G04 #@! TF.GenerationSoftware,KiCad,Pcbnew,(5.1.4-0-10_14)*
G04 #@! TF.CreationDate,2020-06-27T12:48:12+01:00*
G04 #@! TF.ProjectId,Informer207,496e666f-726d-4657-9232-30372e6b6963,rev?*
G04 #@! TF.SameCoordinates,Original*
G04 #@! TF.FileFunction,Legend,Bot*
G04 #@! TF.FilePolarity,Positive*
%FSLAX46Y46*%
G04 Gerber Fmt 4.6, Leading zero omitted, Abs format (unit mm)*
G04 Created by KiCad (PCBNEW (5.1.4-0-10_14)) date 2020-06-27 12:48:12*
%MOMM*%
%LPD*%
G04 APERTURE LIST*
%ADD10C,0.150000*%
%ADD11C,0.120000*%
G04 APERTURE END LIST*
D10*
X164536380Y-107132571D02*
X164060190Y-106799238D01*
X164536380Y-106561142D02*
X163536380Y-106561142D01*
X163536380Y-106942095D01*
X163584000Y-107037333D01*
X163631619Y-107084952D01*
X163726857Y-107132571D01*
X163869714Y-107132571D01*
X163964952Y-107084952D01*
X164012571Y-107037333D01*
X164060190Y-106942095D01*
X164060190Y-106561142D01*
X164012571Y-107561142D02*
X164012571Y-107894476D01*
X164536380Y-108037333D02*
X164536380Y-107561142D01*
X163536380Y-107561142D01*
X163536380Y-108037333D01*
X164441142Y-109037333D02*
X164488761Y-108989714D01*
X164536380Y-108846857D01*
X164536380Y-108751619D01*
X164488761Y-108608761D01*
X164393523Y-108513523D01*
X164298285Y-108465904D01*
X164107809Y-108418285D01*
X163964952Y-108418285D01*
X163774476Y-108465904D01*
X163679238Y-108513523D01*
X163584000Y-108608761D01*
X163536380Y-108751619D01*
X163536380Y-108846857D01*
X163584000Y-108989714D01*
X163631619Y-109037333D01*
X163536380Y-109323047D02*
X164536380Y-109656380D01*
X163536380Y-109989714D01*
X164488761Y-100600095D02*
X164536380Y-100742952D01*
X164536380Y-100981047D01*
X164488761Y-101076285D01*
X164441142Y-101123904D01*
X164345904Y-101171523D01*
X164250666Y-101171523D01*
X164155428Y-101123904D01*
X164107809Y-101076285D01*
X164060190Y-100981047D01*
X164012571Y-100790571D01*
X163964952Y-100695333D01*
X163917333Y-100647714D01*
X163822095Y-100600095D01*
X163726857Y-100600095D01*
X163631619Y-100647714D01*
X163584000Y-100695333D01*
X163536380Y-100790571D01*
X163536380Y-101028666D01*
X163584000Y-101171523D01*
X164012571Y-101600095D02*
X164012571Y-101933428D01*
X164536380Y-102076285D02*
X164536380Y-101600095D01*
X163536380Y-101600095D01*
X163536380Y-102076285D01*
X164536380Y-102504857D02*
X163536380Y-102504857D01*
X164536380Y-103076285D01*
X163536380Y-103076285D01*
X164536380Y-103552476D02*
X163536380Y-103552476D01*
X163536380Y-103790571D01*
X163584000Y-103933428D01*
X163679238Y-104028666D01*
X163774476Y-104076285D01*
X163964952Y-104123904D01*
X164107809Y-104123904D01*
X164298285Y-104076285D01*
X164393523Y-104028666D01*
X164488761Y-103933428D01*
X164536380Y-103790571D01*
X164536380Y-103552476D01*
X171902380Y-103100476D02*
X170902380Y-103100476D01*
X170902380Y-103481428D01*
X170950000Y-103576666D01*
X170997619Y-103624285D01*
X171092857Y-103671904D01*
X171235714Y-103671904D01*
X171330952Y-103624285D01*
X171378571Y-103576666D01*
X171426190Y-103481428D01*
X171426190Y-103100476D01*
X170902380Y-104290952D02*
X170902380Y-104481428D01*
X170950000Y-104576666D01*
X171045238Y-104671904D01*
X171235714Y-104719523D01*
X171569047Y-104719523D01*
X171759523Y-104671904D01*
X171854761Y-104576666D01*
X171902380Y-104481428D01*
X171902380Y-104290952D01*
X171854761Y-104195714D01*
X171759523Y-104100476D01*
X171569047Y-104052857D01*
X171235714Y-104052857D01*
X171045238Y-104100476D01*
X170950000Y-104195714D01*
X170902380Y-104290952D01*
X170902380Y-105052857D02*
X171902380Y-105290952D01*
X171188095Y-105481428D01*
X171902380Y-105671904D01*
X170902380Y-105910000D01*
X171378571Y-106290952D02*
X171378571Y-106624285D01*
X171902380Y-106767142D02*
X171902380Y-106290952D01*
X170902380Y-106290952D01*
X170902380Y-106767142D01*
X171902380Y-107767142D02*
X171426190Y-107433809D01*
X171902380Y-107195714D02*
X170902380Y-107195714D01*
X170902380Y-107576666D01*
X170950000Y-107671904D01*
X170997619Y-107719523D01*
X171092857Y-107767142D01*
X171235714Y-107767142D01*
X171330952Y-107719523D01*
X171378571Y-107671904D01*
X171426190Y-107576666D01*
X171426190Y-107195714D01*
X165695142Y-114482571D02*
X165552285Y-114530190D01*
X165504666Y-114577809D01*
X165457047Y-114673047D01*
X165457047Y-114815904D01*
X165504666Y-114911142D01*
X165552285Y-114958761D01*
X165647523Y-115006380D01*
X166028476Y-115006380D01*
X166028476Y-114006380D01*
X165695142Y-114006380D01*
X165599904Y-114054000D01*
X165552285Y-114101619D01*
X165504666Y-114196857D01*
X165504666Y-114292095D01*
X165552285Y-114387333D01*
X165599904Y-114434952D01*
X165695142Y-114482571D01*
X166028476Y-114482571D01*
X164838000Y-114006380D02*
X164647523Y-114006380D01*
X164552285Y-114054000D01*
X164457047Y-114149238D01*
X164409428Y-114339714D01*
X164409428Y-114673047D01*
X164457047Y-114863523D01*
X164552285Y-114958761D01*
X164647523Y-115006380D01*
X164838000Y-115006380D01*
X164933238Y-114958761D01*
X165028476Y-114863523D01*
X165076095Y-114673047D01*
X165076095Y-114339714D01*
X165028476Y-114149238D01*
X164933238Y-114054000D01*
X164838000Y-114006380D01*
X163790380Y-114006380D02*
X163599904Y-114006380D01*
X163504666Y-114054000D01*
X163409428Y-114149238D01*
X163361809Y-114339714D01*
X163361809Y-114673047D01*
X163409428Y-114863523D01*
X163504666Y-114958761D01*
X163599904Y-115006380D01*
X163790380Y-115006380D01*
X163885619Y-114958761D01*
X163980857Y-114863523D01*
X164028476Y-114673047D01*
X164028476Y-114339714D01*
X163980857Y-114149238D01*
X163885619Y-114054000D01*
X163790380Y-114006380D01*
X163076095Y-114006380D02*
X162504666Y-114006380D01*
X162790380Y-115006380D02*
X162790380Y-114006380D01*
X165790380Y-96718380D02*
X166123714Y-96242190D01*
X166361809Y-96718380D02*
X166361809Y-95718380D01*
X165980857Y-95718380D01*
X165885619Y-95766000D01*
X165838000Y-95813619D01*
X165790380Y-95908857D01*
X165790380Y-96051714D01*
X165838000Y-96146952D01*
X165885619Y-96194571D01*
X165980857Y-96242190D01*
X166361809Y-96242190D01*
X165361809Y-96194571D02*
X165028476Y-96194571D01*
X164885619Y-96718380D02*
X165361809Y-96718380D01*
X165361809Y-95718380D01*
X164885619Y-95718380D01*
X164504666Y-96670761D02*
X164361809Y-96718380D01*
X164123714Y-96718380D01*
X164028476Y-96670761D01*
X163980857Y-96623142D01*
X163933238Y-96527904D01*
X163933238Y-96432666D01*
X163980857Y-96337428D01*
X164028476Y-96289809D01*
X164123714Y-96242190D01*
X164314190Y-96194571D01*
X164409428Y-96146952D01*
X164457047Y-96099333D01*
X164504666Y-96004095D01*
X164504666Y-95908857D01*
X164457047Y-95813619D01*
X164409428Y-95766000D01*
X164314190Y-95718380D01*
X164076095Y-95718380D01*
X163933238Y-95766000D01*
X163504666Y-96194571D02*
X163171333Y-96194571D01*
X163028476Y-96718380D02*
X163504666Y-96718380D01*
X163504666Y-95718380D01*
X163028476Y-95718380D01*
X162742761Y-95718380D02*
X162171333Y-95718380D01*
X162457047Y-96718380D02*
X162457047Y-95718380D01*
X165289714Y-121356380D02*
X165289714Y-120356380D01*
X164908761Y-120356380D01*
X164813523Y-120404000D01*
X164765904Y-120451619D01*
X164718285Y-120546857D01*
X164718285Y-120689714D01*
X164765904Y-120784952D01*
X164813523Y-120832571D01*
X164908761Y-120880190D01*
X165289714Y-120880190D01*
X163718285Y-121356380D02*
X164051619Y-120880190D01*
X164289714Y-121356380D02*
X164289714Y-120356380D01*
X163908761Y-120356380D01*
X163813523Y-120404000D01*
X163765904Y-120451619D01*
X163718285Y-120546857D01*
X163718285Y-120689714D01*
X163765904Y-120784952D01*
X163813523Y-120832571D01*
X163908761Y-120880190D01*
X164289714Y-120880190D01*
X163099238Y-120356380D02*
X162908761Y-120356380D01*
X162813523Y-120404000D01*
X162718285Y-120499238D01*
X162670666Y-120689714D01*
X162670666Y-121023047D01*
X162718285Y-121213523D01*
X162813523Y-121308761D01*
X162908761Y-121356380D01*
X163099238Y-121356380D01*
X163194476Y-121308761D01*
X163289714Y-121213523D01*
X163337333Y-121023047D01*
X163337333Y-120689714D01*
X163289714Y-120499238D01*
X163194476Y-120404000D01*
X163099238Y-120356380D01*
X161718285Y-120404000D02*
X161813523Y-120356380D01*
X161956380Y-120356380D01*
X162099238Y-120404000D01*
X162194476Y-120499238D01*
X162242095Y-120594476D01*
X162289714Y-120784952D01*
X162289714Y-120927809D01*
X162242095Y-121118285D01*
X162194476Y-121213523D01*
X162099238Y-121308761D01*
X161956380Y-121356380D01*
X161861142Y-121356380D01*
X161718285Y-121308761D01*
X161670666Y-121261142D01*
X161670666Y-120927809D01*
X161861142Y-120927809D01*
X160670666Y-121356380D02*
X161004000Y-120880190D01*
X161242095Y-121356380D02*
X161242095Y-120356380D01*
X160861142Y-120356380D01*
X160765904Y-120404000D01*
X160718285Y-120451619D01*
X160670666Y-120546857D01*
X160670666Y-120689714D01*
X160718285Y-120784952D01*
X160765904Y-120832571D01*
X160861142Y-120880190D01*
X161242095Y-120880190D01*
X160289714Y-121070666D02*
X159813523Y-121070666D01*
X160384952Y-121356380D02*
X160051619Y-120356380D01*
X159718285Y-121356380D01*
X159384952Y-121356380D02*
X159384952Y-120356380D01*
X159051619Y-121070666D01*
X158718285Y-120356380D01*
X158718285Y-121356380D01*
X157527809Y-120308761D02*
X158384952Y-121594476D01*
X157194476Y-121356380D02*
X157194476Y-120356380D01*
X156956380Y-120356380D01*
X156813523Y-120404000D01*
X156718285Y-120499238D01*
X156670666Y-120594476D01*
X156623047Y-120784952D01*
X156623047Y-120927809D01*
X156670666Y-121118285D01*
X156718285Y-121213523D01*
X156813523Y-121308761D01*
X156956380Y-121356380D01*
X157194476Y-121356380D01*
X156194476Y-120832571D02*
X155861142Y-120832571D01*
X155718285Y-121356380D02*
X156194476Y-121356380D01*
X156194476Y-120356380D01*
X155718285Y-120356380D01*
X154956380Y-120832571D02*
X154813523Y-120880190D01*
X154765904Y-120927809D01*
X154718285Y-121023047D01*
X154718285Y-121165904D01*
X154765904Y-121261142D01*
X154813523Y-121308761D01*
X154908761Y-121356380D01*
X155289714Y-121356380D01*
X155289714Y-120356380D01*
X154956380Y-120356380D01*
X154861142Y-120404000D01*
X154813523Y-120451619D01*
X154765904Y-120546857D01*
X154765904Y-120642095D01*
X154813523Y-120737333D01*
X154861142Y-120784952D01*
X154956380Y-120832571D01*
X155289714Y-120832571D01*
X154289714Y-120356380D02*
X154289714Y-121165904D01*
X154242095Y-121261142D01*
X154194476Y-121308761D01*
X154099238Y-121356380D01*
X153908761Y-121356380D01*
X153813523Y-121308761D01*
X153765904Y-121261142D01*
X153718285Y-121165904D01*
X153718285Y-120356380D01*
X152718285Y-120404000D02*
X152813523Y-120356380D01*
X152956380Y-120356380D01*
X153099238Y-120404000D01*
X153194476Y-120499238D01*
X153242095Y-120594476D01*
X153289714Y-120784952D01*
X153289714Y-120927809D01*
X153242095Y-121118285D01*
X153194476Y-121213523D01*
X153099238Y-121308761D01*
X152956380Y-121356380D01*
X152861142Y-121356380D01*
X152718285Y-121308761D01*
X152670666Y-121261142D01*
X152670666Y-120927809D01*
X152861142Y-120927809D01*
D11*
X154987236Y-113508200D02*
X156191364Y-113508200D01*
X154987236Y-111688200D02*
X156191364Y-111688200D01*
X156227100Y-100221636D02*
X156227100Y-101425764D01*
X158047100Y-100221636D02*
X158047100Y-101425764D01*
X158881400Y-101425764D02*
X158881400Y-100221636D01*
X160701400Y-101425764D02*
X160701400Y-100221636D01*
X155380100Y-101454364D02*
X155380100Y-100250236D01*
X153560100Y-101454364D02*
X153560100Y-100250236D01*
X161383300Y-101413064D02*
X161383300Y-100208936D01*
X163203300Y-101413064D02*
X163203300Y-100208936D01*
X164803200Y-110675100D02*
X164803200Y-106615100D01*
X167073200Y-110675100D02*
X164803200Y-110675100D01*
X167073200Y-106615100D02*
X167073200Y-110675100D01*
X164803200Y-104049300D02*
X164803200Y-99989300D01*
X164803200Y-99989300D02*
X167073200Y-99989300D01*
X167073200Y-99989300D02*
X167073200Y-104049300D01*
X170426000Y-103646500D02*
X170426000Y-107706500D01*
X170426000Y-107706500D02*
X168156000Y-107706500D01*
X168156000Y-107706500D02*
X168156000Y-103646500D01*
X151324000Y-124647000D02*
X151324000Y-121987000D01*
X164084000Y-124647000D02*
X151324000Y-124647000D01*
X164084000Y-121987000D02*
X151324000Y-121987000D01*
X164084000Y-124647000D02*
X164084000Y-121987000D01*
X165354000Y-124647000D02*
X166684000Y-124647000D01*
X166684000Y-124647000D02*
X166684000Y-123317000D01*
X158279000Y-90306900D02*
X158729000Y-90306900D01*
X158279000Y-88456900D02*
X158279000Y-90306900D01*
X166079000Y-85906900D02*
X166079000Y-86156900D01*
X158279000Y-85906900D02*
X158279000Y-86156900D01*
X166079000Y-88456900D02*
X166079000Y-90306900D01*
X166079000Y-90306900D02*
X165629000Y-90306900D01*
X160479000Y-90856900D02*
X160929000Y-90856900D01*
X160479000Y-90856900D02*
X160479000Y-90406900D01*
X163358001Y-107523901D02*
X163358001Y-109473901D01*
X163358001Y-107523901D02*
X163358001Y-105573901D01*
X153238001Y-107523901D02*
X153238001Y-109473901D01*
X153238001Y-107523901D02*
X153238001Y-104073901D01*
X161315000Y-95068000D02*
X167435000Y-95068000D01*
X167435000Y-95068000D02*
X167435000Y-91368000D01*
X167435000Y-91368000D02*
X161315000Y-91368000D01*
X161315000Y-91368000D02*
X161315000Y-95068000D01*
X167358800Y-119198000D02*
X167358800Y-115498000D01*
X161238800Y-119198000D02*
X167358800Y-119198000D01*
X161238800Y-115498000D02*
X161238800Y-119198000D01*
X167358800Y-115498000D02*
X161238800Y-115498000D01*
D10*
X155614666Y-112879142D02*
X155662285Y-112926761D01*
X155805142Y-112974380D01*
X155900380Y-112974380D01*
X156043238Y-112926761D01*
X156138476Y-112831523D01*
X156186095Y-112736285D01*
X156233714Y-112545809D01*
X156233714Y-112402952D01*
X156186095Y-112212476D01*
X156138476Y-112117238D01*
X156043238Y-112022000D01*
X155900380Y-111974380D01*
X155805142Y-111974380D01*
X155662285Y-112022000D01*
X155614666Y-112069619D01*
X154662285Y-112974380D02*
X155233714Y-112974380D01*
X154948000Y-112974380D02*
X154948000Y-111974380D01*
X155043238Y-112117238D01*
X155138476Y-112212476D01*
X155233714Y-112260095D01*
X157583142Y-100657033D02*
X157630761Y-100609414D01*
X157678380Y-100466557D01*
X157678380Y-100371319D01*
X157630761Y-100228461D01*
X157535523Y-100133223D01*
X157440285Y-100085604D01*
X157249809Y-100037985D01*
X157106952Y-100037985D01*
X156916476Y-100085604D01*
X156821238Y-100133223D01*
X156726000Y-100228461D01*
X156678380Y-100371319D01*
X156678380Y-100466557D01*
X156726000Y-100609414D01*
X156773619Y-100657033D01*
X156773619Y-101037985D02*
X156726000Y-101085604D01*
X156678380Y-101180842D01*
X156678380Y-101418938D01*
X156726000Y-101514176D01*
X156773619Y-101561795D01*
X156868857Y-101609414D01*
X156964095Y-101609414D01*
X157106952Y-101561795D01*
X157678380Y-100990366D01*
X157678380Y-101609414D01*
X159408857Y-100990366D02*
X159361238Y-101037985D01*
X159313619Y-101180842D01*
X159313619Y-101276080D01*
X159361238Y-101418938D01*
X159456476Y-101514176D01*
X159551714Y-101561795D01*
X159742190Y-101609414D01*
X159885047Y-101609414D01*
X160075523Y-101561795D01*
X160170761Y-101514176D01*
X160266000Y-101418938D01*
X160313619Y-101276080D01*
X160313619Y-101180842D01*
X160266000Y-101037985D01*
X160218380Y-100990366D01*
X159980285Y-100133223D02*
X159313619Y-100133223D01*
X160361238Y-100371319D02*
X159646952Y-100609414D01*
X159646952Y-99990366D01*
X154074857Y-101004666D02*
X154027238Y-101052285D01*
X153979619Y-101195142D01*
X153979619Y-101290380D01*
X154027238Y-101433238D01*
X154122476Y-101528476D01*
X154217714Y-101576095D01*
X154408190Y-101623714D01*
X154551047Y-101623714D01*
X154741523Y-101576095D01*
X154836761Y-101528476D01*
X154932000Y-101433238D01*
X154979619Y-101290380D01*
X154979619Y-101195142D01*
X154932000Y-101052285D01*
X154884380Y-101004666D01*
X154979619Y-100099904D02*
X154979619Y-100576095D01*
X154503428Y-100623714D01*
X154551047Y-100576095D01*
X154598666Y-100480857D01*
X154598666Y-100242761D01*
X154551047Y-100147523D01*
X154503428Y-100099904D01*
X154408190Y-100052285D01*
X154170095Y-100052285D01*
X154074857Y-100099904D01*
X154027238Y-100147523D01*
X153979619Y-100242761D01*
X153979619Y-100480857D01*
X154027238Y-100576095D01*
X154074857Y-100623714D01*
X161948857Y-100977666D02*
X161901238Y-101025285D01*
X161853619Y-101168142D01*
X161853619Y-101263380D01*
X161901238Y-101406238D01*
X161996476Y-101501476D01*
X162091714Y-101549095D01*
X162282190Y-101596714D01*
X162425047Y-101596714D01*
X162615523Y-101549095D01*
X162710761Y-101501476D01*
X162806000Y-101406238D01*
X162853619Y-101263380D01*
X162853619Y-101168142D01*
X162806000Y-101025285D01*
X162758380Y-100977666D01*
X162853619Y-100120523D02*
X162853619Y-100311000D01*
X162806000Y-100406238D01*
X162758380Y-100453857D01*
X162615523Y-100549095D01*
X162425047Y-100596714D01*
X162044095Y-100596714D01*
X161948857Y-100549095D01*
X161901238Y-100501476D01*
X161853619Y-100406238D01*
X161853619Y-100215761D01*
X161901238Y-100120523D01*
X161948857Y-100072904D01*
X162044095Y-100025285D01*
X162282190Y-100025285D01*
X162377428Y-100072904D01*
X162425047Y-100120523D01*
X162472666Y-100215761D01*
X162472666Y-100406238D01*
X162425047Y-100501476D01*
X162377428Y-100549095D01*
X162282190Y-100596714D01*
X166314380Y-107477004D02*
X165314380Y-107477004D01*
X165314380Y-107715100D01*
X165362000Y-107857957D01*
X165457238Y-107953195D01*
X165552476Y-108000814D01*
X165742952Y-108048433D01*
X165885809Y-108048433D01*
X166076285Y-108000814D01*
X166171523Y-107953195D01*
X166266761Y-107857957D01*
X166314380Y-107715100D01*
X166314380Y-107477004D01*
X166314380Y-109000814D02*
X166314380Y-108429385D01*
X166314380Y-108715100D02*
X165314380Y-108715100D01*
X165457238Y-108619861D01*
X165552476Y-108524623D01*
X165600095Y-108429385D01*
X166314380Y-101711204D02*
X165314380Y-101711204D01*
X165314380Y-101949300D01*
X165362000Y-102092157D01*
X165457238Y-102187395D01*
X165552476Y-102235014D01*
X165742952Y-102282633D01*
X165885809Y-102282633D01*
X166076285Y-102235014D01*
X166171523Y-102187395D01*
X166266761Y-102092157D01*
X166314380Y-101949300D01*
X166314380Y-101711204D01*
X165409619Y-102663585D02*
X165362000Y-102711204D01*
X165314380Y-102806442D01*
X165314380Y-103044538D01*
X165362000Y-103139776D01*
X165409619Y-103187395D01*
X165504857Y-103235014D01*
X165600095Y-103235014D01*
X165742952Y-103187395D01*
X166314380Y-102615966D01*
X166314380Y-103235014D01*
X168711619Y-105984595D02*
X169711619Y-105984595D01*
X169711619Y-105746500D01*
X169664000Y-105603642D01*
X169568761Y-105508404D01*
X169473523Y-105460785D01*
X169283047Y-105413166D01*
X169140190Y-105413166D01*
X168949714Y-105460785D01*
X168854476Y-105508404D01*
X168759238Y-105603642D01*
X168711619Y-105746500D01*
X168711619Y-105984595D01*
X169711619Y-105079833D02*
X169711619Y-104460785D01*
X169330666Y-104794119D01*
X169330666Y-104651261D01*
X169283047Y-104556023D01*
X169235428Y-104508404D01*
X169140190Y-104460785D01*
X168902095Y-104460785D01*
X168806857Y-104508404D01*
X168759238Y-104556023D01*
X168711619Y-104651261D01*
X168711619Y-104936976D01*
X168759238Y-105032214D01*
X168806857Y-105079833D01*
X162512333Y-88352380D02*
X162512333Y-89066666D01*
X162559952Y-89209523D01*
X162655190Y-89304761D01*
X162798047Y-89352380D01*
X162893285Y-89352380D01*
X162083761Y-88447619D02*
X162036142Y-88400000D01*
X161940904Y-88352380D01*
X161702809Y-88352380D01*
X161607571Y-88400000D01*
X161559952Y-88447619D01*
X161512333Y-88542857D01*
X161512333Y-88638095D01*
X161559952Y-88780952D01*
X162131380Y-89352380D01*
X161512333Y-89352380D01*
X157948380Y-106426095D02*
X158757904Y-106426095D01*
X158853142Y-106473714D01*
X158900761Y-106521333D01*
X158948380Y-106616571D01*
X158948380Y-106807047D01*
X158900761Y-106902285D01*
X158853142Y-106949904D01*
X158757904Y-106997523D01*
X157948380Y-106997523D01*
X158043619Y-107426095D02*
X157996000Y-107473714D01*
X157948380Y-107568952D01*
X157948380Y-107807047D01*
X157996000Y-107902285D01*
X158043619Y-107949904D01*
X158138857Y-107997523D01*
X158234095Y-107997523D01*
X158376952Y-107949904D01*
X158948380Y-107378476D01*
X158948380Y-107997523D01*
X165708333Y-93622761D02*
X165565476Y-93670380D01*
X165327380Y-93670380D01*
X165232142Y-93622761D01*
X165184523Y-93575142D01*
X165136904Y-93479904D01*
X165136904Y-93384666D01*
X165184523Y-93289428D01*
X165232142Y-93241809D01*
X165327380Y-93194190D01*
X165517857Y-93146571D01*
X165613095Y-93098952D01*
X165660714Y-93051333D01*
X165708333Y-92956095D01*
X165708333Y-92860857D01*
X165660714Y-92765619D01*
X165613095Y-92718000D01*
X165517857Y-92670380D01*
X165279761Y-92670380D01*
X165136904Y-92718000D01*
X164803571Y-92670380D02*
X164565476Y-93670380D01*
X164375000Y-92956095D01*
X164184523Y-93670380D01*
X163946428Y-92670380D01*
X163041666Y-93670380D02*
X163613095Y-93670380D01*
X163327380Y-93670380D02*
X163327380Y-92670380D01*
X163422619Y-92813238D01*
X163517857Y-92908476D01*
X163613095Y-92956095D01*
X165632133Y-117752761D02*
X165489276Y-117800380D01*
X165251180Y-117800380D01*
X165155942Y-117752761D01*
X165108323Y-117705142D01*
X165060704Y-117609904D01*
X165060704Y-117514666D01*
X165108323Y-117419428D01*
X165155942Y-117371809D01*
X165251180Y-117324190D01*
X165441657Y-117276571D01*
X165536895Y-117228952D01*
X165584514Y-117181333D01*
X165632133Y-117086095D01*
X165632133Y-116990857D01*
X165584514Y-116895619D01*
X165536895Y-116848000D01*
X165441657Y-116800380D01*
X165203561Y-116800380D01*
X165060704Y-116848000D01*
X164727371Y-116800380D02*
X164489276Y-117800380D01*
X164298800Y-117086095D01*
X164108323Y-117800380D01*
X163870228Y-116800380D01*
X163536895Y-116895619D02*
X163489276Y-116848000D01*
X163394038Y-116800380D01*
X163155942Y-116800380D01*
X163060704Y-116848000D01*
X163013085Y-116895619D01*
X162965466Y-116990857D01*
X162965466Y-117086095D01*
X163013085Y-117228952D01*
X163584514Y-117800380D01*
X162965466Y-117800380D01*
M02*
