G04 #@! TF.GenerationSoftware,KiCad,Pcbnew,(5.1.4-0-10_14)*
G04 #@! TF.CreationDate,2020-06-27T12:48:12+01:00*
G04 #@! TF.ProjectId,Informer207,496e666f-726d-4657-9232-30372e6b6963,rev?*
G04 #@! TF.SameCoordinates,Original*
G04 #@! TF.FileFunction,Soldermask,Top*
G04 #@! TF.FilePolarity,Negative*
%FSLAX46Y46*%
G04 Gerber Fmt 4.6, Leading zero omitted, Abs format (unit mm)*
G04 Created by KiCad (PCBNEW (5.1.4-0-10_14)) date 2020-06-27 12:48:12*
%MOMM*%
%LPD*%
G04 APERTURE LIST*
%ADD10C,0.100000*%
G04 APERTURE END LIST*
D10*
G36*
X145941417Y-127246965D02*
G01*
X146212195Y-127300825D01*
X146503558Y-127421512D01*
X146765778Y-127596722D01*
X146988778Y-127819722D01*
X147163988Y-128081942D01*
X147284675Y-128373305D01*
X147346200Y-128682615D01*
X147346200Y-128997985D01*
X147284675Y-129307295D01*
X147163988Y-129598658D01*
X146988778Y-129860878D01*
X146765778Y-130083878D01*
X146503558Y-130259088D01*
X146212195Y-130379775D01*
X145941417Y-130433635D01*
X145902886Y-130441300D01*
X145587514Y-130441300D01*
X145548983Y-130433635D01*
X145278205Y-130379775D01*
X144986842Y-130259088D01*
X144724622Y-130083878D01*
X144501622Y-129860878D01*
X144326412Y-129598658D01*
X144205725Y-129307295D01*
X144144200Y-128997985D01*
X144144200Y-128682615D01*
X144205725Y-128373305D01*
X144326412Y-128081942D01*
X144501622Y-127819722D01*
X144724622Y-127596722D01*
X144986842Y-127421512D01*
X145278205Y-127300825D01*
X145548983Y-127246965D01*
X145587514Y-127239300D01*
X145902886Y-127239300D01*
X145941417Y-127246965D01*
X145941417Y-127246965D01*
G37*
G36*
X162924442Y-122422518D02*
G01*
X162990627Y-122429037D01*
X163160466Y-122480557D01*
X163316991Y-122564222D01*
X163352729Y-122593552D01*
X163454186Y-122676814D01*
X163537448Y-122778271D01*
X163566778Y-122814009D01*
X163650443Y-122970534D01*
X163701963Y-123140373D01*
X163719359Y-123317000D01*
X163701963Y-123493627D01*
X163650443Y-123663466D01*
X163566778Y-123819991D01*
X163537448Y-123855729D01*
X163454186Y-123957186D01*
X163352729Y-124040448D01*
X163316991Y-124069778D01*
X163160466Y-124153443D01*
X162990627Y-124204963D01*
X162924442Y-124211482D01*
X162858260Y-124218000D01*
X162769740Y-124218000D01*
X162703558Y-124211482D01*
X162637373Y-124204963D01*
X162467534Y-124153443D01*
X162311009Y-124069778D01*
X162275271Y-124040448D01*
X162173814Y-123957186D01*
X162090552Y-123855729D01*
X162061222Y-123819991D01*
X161977557Y-123663466D01*
X161926037Y-123493627D01*
X161908641Y-123317000D01*
X161926037Y-123140373D01*
X161977557Y-122970534D01*
X162061222Y-122814009D01*
X162090552Y-122778271D01*
X162173814Y-122676814D01*
X162275271Y-122593552D01*
X162311009Y-122564222D01*
X162467534Y-122480557D01*
X162637373Y-122429037D01*
X162703558Y-122422518D01*
X162769740Y-122416000D01*
X162858260Y-122416000D01*
X162924442Y-122422518D01*
X162924442Y-122422518D01*
G37*
G36*
X160384442Y-122422518D02*
G01*
X160450627Y-122429037D01*
X160620466Y-122480557D01*
X160776991Y-122564222D01*
X160812729Y-122593552D01*
X160914186Y-122676814D01*
X160997448Y-122778271D01*
X161026778Y-122814009D01*
X161110443Y-122970534D01*
X161161963Y-123140373D01*
X161179359Y-123317000D01*
X161161963Y-123493627D01*
X161110443Y-123663466D01*
X161026778Y-123819991D01*
X160997448Y-123855729D01*
X160914186Y-123957186D01*
X160812729Y-124040448D01*
X160776991Y-124069778D01*
X160620466Y-124153443D01*
X160450627Y-124204963D01*
X160384442Y-124211482D01*
X160318260Y-124218000D01*
X160229740Y-124218000D01*
X160163558Y-124211482D01*
X160097373Y-124204963D01*
X159927534Y-124153443D01*
X159771009Y-124069778D01*
X159735271Y-124040448D01*
X159633814Y-123957186D01*
X159550552Y-123855729D01*
X159521222Y-123819991D01*
X159437557Y-123663466D01*
X159386037Y-123493627D01*
X159368641Y-123317000D01*
X159386037Y-123140373D01*
X159437557Y-122970534D01*
X159521222Y-122814009D01*
X159550552Y-122778271D01*
X159633814Y-122676814D01*
X159735271Y-122593552D01*
X159771009Y-122564222D01*
X159927534Y-122480557D01*
X160097373Y-122429037D01*
X160163558Y-122422518D01*
X160229740Y-122416000D01*
X160318260Y-122416000D01*
X160384442Y-122422518D01*
X160384442Y-122422518D01*
G37*
G36*
X157844442Y-122422518D02*
G01*
X157910627Y-122429037D01*
X158080466Y-122480557D01*
X158236991Y-122564222D01*
X158272729Y-122593552D01*
X158374186Y-122676814D01*
X158457448Y-122778271D01*
X158486778Y-122814009D01*
X158570443Y-122970534D01*
X158621963Y-123140373D01*
X158639359Y-123317000D01*
X158621963Y-123493627D01*
X158570443Y-123663466D01*
X158486778Y-123819991D01*
X158457448Y-123855729D01*
X158374186Y-123957186D01*
X158272729Y-124040448D01*
X158236991Y-124069778D01*
X158080466Y-124153443D01*
X157910627Y-124204963D01*
X157844442Y-124211482D01*
X157778260Y-124218000D01*
X157689740Y-124218000D01*
X157623558Y-124211482D01*
X157557373Y-124204963D01*
X157387534Y-124153443D01*
X157231009Y-124069778D01*
X157195271Y-124040448D01*
X157093814Y-123957186D01*
X157010552Y-123855729D01*
X156981222Y-123819991D01*
X156897557Y-123663466D01*
X156846037Y-123493627D01*
X156828641Y-123317000D01*
X156846037Y-123140373D01*
X156897557Y-122970534D01*
X156981222Y-122814009D01*
X157010552Y-122778271D01*
X157093814Y-122676814D01*
X157195271Y-122593552D01*
X157231009Y-122564222D01*
X157387534Y-122480557D01*
X157557373Y-122429037D01*
X157623558Y-122422518D01*
X157689740Y-122416000D01*
X157778260Y-122416000D01*
X157844442Y-122422518D01*
X157844442Y-122422518D01*
G37*
G36*
X155304442Y-122422518D02*
G01*
X155370627Y-122429037D01*
X155540466Y-122480557D01*
X155696991Y-122564222D01*
X155732729Y-122593552D01*
X155834186Y-122676814D01*
X155917448Y-122778271D01*
X155946778Y-122814009D01*
X156030443Y-122970534D01*
X156081963Y-123140373D01*
X156099359Y-123317000D01*
X156081963Y-123493627D01*
X156030443Y-123663466D01*
X155946778Y-123819991D01*
X155917448Y-123855729D01*
X155834186Y-123957186D01*
X155732729Y-124040448D01*
X155696991Y-124069778D01*
X155540466Y-124153443D01*
X155370627Y-124204963D01*
X155304442Y-124211482D01*
X155238260Y-124218000D01*
X155149740Y-124218000D01*
X155083558Y-124211482D01*
X155017373Y-124204963D01*
X154847534Y-124153443D01*
X154691009Y-124069778D01*
X154655271Y-124040448D01*
X154553814Y-123957186D01*
X154470552Y-123855729D01*
X154441222Y-123819991D01*
X154357557Y-123663466D01*
X154306037Y-123493627D01*
X154288641Y-123317000D01*
X154306037Y-123140373D01*
X154357557Y-122970534D01*
X154441222Y-122814009D01*
X154470552Y-122778271D01*
X154553814Y-122676814D01*
X154655271Y-122593552D01*
X154691009Y-122564222D01*
X154847534Y-122480557D01*
X155017373Y-122429037D01*
X155083558Y-122422518D01*
X155149740Y-122416000D01*
X155238260Y-122416000D01*
X155304442Y-122422518D01*
X155304442Y-122422518D01*
G37*
G36*
X152764442Y-122422518D02*
G01*
X152830627Y-122429037D01*
X153000466Y-122480557D01*
X153156991Y-122564222D01*
X153192729Y-122593552D01*
X153294186Y-122676814D01*
X153377448Y-122778271D01*
X153406778Y-122814009D01*
X153490443Y-122970534D01*
X153541963Y-123140373D01*
X153559359Y-123317000D01*
X153541963Y-123493627D01*
X153490443Y-123663466D01*
X153406778Y-123819991D01*
X153377448Y-123855729D01*
X153294186Y-123957186D01*
X153192729Y-124040448D01*
X153156991Y-124069778D01*
X153000466Y-124153443D01*
X152830627Y-124204963D01*
X152764442Y-124211482D01*
X152698260Y-124218000D01*
X152609740Y-124218000D01*
X152543558Y-124211482D01*
X152477373Y-124204963D01*
X152307534Y-124153443D01*
X152151009Y-124069778D01*
X152115271Y-124040448D01*
X152013814Y-123957186D01*
X151930552Y-123855729D01*
X151901222Y-123819991D01*
X151817557Y-123663466D01*
X151766037Y-123493627D01*
X151748641Y-123317000D01*
X151766037Y-123140373D01*
X151817557Y-122970534D01*
X151901222Y-122814009D01*
X151930552Y-122778271D01*
X152013814Y-122676814D01*
X152115271Y-122593552D01*
X152151009Y-122564222D01*
X152307534Y-122480557D01*
X152477373Y-122429037D01*
X152543558Y-122422518D01*
X152609740Y-122416000D01*
X152698260Y-122416000D01*
X152764442Y-122422518D01*
X152764442Y-122422518D01*
G37*
G36*
X166255000Y-124218000D02*
G01*
X164453000Y-124218000D01*
X164453000Y-122416000D01*
X166255000Y-122416000D01*
X166255000Y-124218000D01*
X166255000Y-124218000D01*
G37*
G36*
X147263428Y-121182003D02*
G01*
X147418300Y-121246153D01*
X147557681Y-121339285D01*
X147676215Y-121457819D01*
X147769347Y-121597200D01*
X147833497Y-121752072D01*
X147866200Y-121916484D01*
X147866200Y-122084116D01*
X147833497Y-122248528D01*
X147769347Y-122403400D01*
X147676215Y-122542781D01*
X147557681Y-122661315D01*
X147418300Y-122754447D01*
X147263428Y-122818597D01*
X147099016Y-122851300D01*
X146931384Y-122851300D01*
X146766972Y-122818597D01*
X146612100Y-122754447D01*
X146472719Y-122661315D01*
X146354185Y-122542781D01*
X146261053Y-122403400D01*
X146196903Y-122248528D01*
X146164200Y-122084116D01*
X146164200Y-121916484D01*
X146196903Y-121752072D01*
X146261053Y-121597200D01*
X146354185Y-121457819D01*
X146472719Y-121339285D01*
X146612100Y-121246153D01*
X146766972Y-121182003D01*
X146931384Y-121149300D01*
X147099016Y-121149300D01*
X147263428Y-121182003D01*
X147263428Y-121182003D01*
G37*
G36*
X144723428Y-119797003D02*
G01*
X144878300Y-119861153D01*
X145017681Y-119954285D01*
X145136215Y-120072819D01*
X145229347Y-120212200D01*
X145293497Y-120367072D01*
X145326200Y-120531484D01*
X145326200Y-120699116D01*
X145293497Y-120863528D01*
X145229347Y-121018400D01*
X145136215Y-121157781D01*
X145017681Y-121276315D01*
X144878300Y-121369447D01*
X144723428Y-121433597D01*
X144559016Y-121466300D01*
X144391384Y-121466300D01*
X144226972Y-121433597D01*
X144072100Y-121369447D01*
X143932719Y-121276315D01*
X143814185Y-121157781D01*
X143721053Y-121018400D01*
X143656903Y-120863528D01*
X143624200Y-120699116D01*
X143624200Y-120531484D01*
X143656903Y-120367072D01*
X143721053Y-120212200D01*
X143814185Y-120072819D01*
X143932719Y-119954285D01*
X144072100Y-119861153D01*
X144226972Y-119797003D01*
X144391384Y-119764300D01*
X144559016Y-119764300D01*
X144723428Y-119797003D01*
X144723428Y-119797003D01*
G37*
G36*
X152159562Y-119055681D02*
G01*
X152194481Y-119066274D01*
X152226663Y-119083476D01*
X152254873Y-119106627D01*
X152278024Y-119134837D01*
X152295226Y-119167019D01*
X152305819Y-119201938D01*
X152310000Y-119244395D01*
X152310000Y-120385605D01*
X152305819Y-120428062D01*
X152295226Y-120462981D01*
X152278024Y-120495163D01*
X152254873Y-120523373D01*
X152226663Y-120546524D01*
X152194481Y-120563726D01*
X152159562Y-120574319D01*
X152117105Y-120578500D01*
X150650895Y-120578500D01*
X150608438Y-120574319D01*
X150573519Y-120563726D01*
X150541337Y-120546524D01*
X150513127Y-120523373D01*
X150489976Y-120495163D01*
X150472774Y-120462981D01*
X150462181Y-120428062D01*
X150458000Y-120385605D01*
X150458000Y-119244395D01*
X150462181Y-119201938D01*
X150472774Y-119167019D01*
X150489976Y-119134837D01*
X150513127Y-119106627D01*
X150541337Y-119083476D01*
X150573519Y-119066274D01*
X150608438Y-119055681D01*
X150650895Y-119051500D01*
X152117105Y-119051500D01*
X152159562Y-119055681D01*
X152159562Y-119055681D01*
G37*
G36*
X164859562Y-119055681D02*
G01*
X164894481Y-119066274D01*
X164926663Y-119083476D01*
X164954873Y-119106627D01*
X164978024Y-119134837D01*
X164995226Y-119167019D01*
X165005819Y-119201938D01*
X165010000Y-119244395D01*
X165010000Y-120385605D01*
X165005819Y-120428062D01*
X164995226Y-120462981D01*
X164978024Y-120495163D01*
X164954873Y-120523373D01*
X164926663Y-120546524D01*
X164894481Y-120563726D01*
X164859562Y-120574319D01*
X164817105Y-120578500D01*
X163350895Y-120578500D01*
X163308438Y-120574319D01*
X163273519Y-120563726D01*
X163241337Y-120546524D01*
X163213127Y-120523373D01*
X163189976Y-120495163D01*
X163172774Y-120462981D01*
X163162181Y-120428062D01*
X163158000Y-120385605D01*
X163158000Y-119244395D01*
X163162181Y-119201938D01*
X163172774Y-119167019D01*
X163189976Y-119134837D01*
X163213127Y-119106627D01*
X163241337Y-119083476D01*
X163273519Y-119066274D01*
X163308438Y-119055681D01*
X163350895Y-119051500D01*
X164817105Y-119051500D01*
X164859562Y-119055681D01*
X164859562Y-119055681D01*
G37*
G36*
X154699562Y-119055681D02*
G01*
X154734481Y-119066274D01*
X154766663Y-119083476D01*
X154794873Y-119106627D01*
X154818024Y-119134837D01*
X154835226Y-119167019D01*
X154845819Y-119201938D01*
X154850000Y-119244395D01*
X154850000Y-120385605D01*
X154845819Y-120428062D01*
X154835226Y-120462981D01*
X154818024Y-120495163D01*
X154794873Y-120523373D01*
X154766663Y-120546524D01*
X154734481Y-120563726D01*
X154699562Y-120574319D01*
X154657105Y-120578500D01*
X153190895Y-120578500D01*
X153148438Y-120574319D01*
X153113519Y-120563726D01*
X153081337Y-120546524D01*
X153053127Y-120523373D01*
X153029976Y-120495163D01*
X153012774Y-120462981D01*
X153002181Y-120428062D01*
X152998000Y-120385605D01*
X152998000Y-119244395D01*
X153002181Y-119201938D01*
X153012774Y-119167019D01*
X153029976Y-119134837D01*
X153053127Y-119106627D01*
X153081337Y-119083476D01*
X153113519Y-119066274D01*
X153148438Y-119055681D01*
X153190895Y-119051500D01*
X154657105Y-119051500D01*
X154699562Y-119055681D01*
X154699562Y-119055681D01*
G37*
G36*
X162319562Y-119055681D02*
G01*
X162354481Y-119066274D01*
X162386663Y-119083476D01*
X162414873Y-119106627D01*
X162438024Y-119134837D01*
X162455226Y-119167019D01*
X162465819Y-119201938D01*
X162470000Y-119244395D01*
X162470000Y-120385605D01*
X162465819Y-120428062D01*
X162455226Y-120462981D01*
X162438024Y-120495163D01*
X162414873Y-120523373D01*
X162386663Y-120546524D01*
X162354481Y-120563726D01*
X162319562Y-120574319D01*
X162277105Y-120578500D01*
X160810895Y-120578500D01*
X160768438Y-120574319D01*
X160733519Y-120563726D01*
X160701337Y-120546524D01*
X160673127Y-120523373D01*
X160649976Y-120495163D01*
X160632774Y-120462981D01*
X160622181Y-120428062D01*
X160618000Y-120385605D01*
X160618000Y-119244395D01*
X160622181Y-119201938D01*
X160632774Y-119167019D01*
X160649976Y-119134837D01*
X160673127Y-119106627D01*
X160701337Y-119083476D01*
X160733519Y-119066274D01*
X160768438Y-119055681D01*
X160810895Y-119051500D01*
X162277105Y-119051500D01*
X162319562Y-119055681D01*
X162319562Y-119055681D01*
G37*
G36*
X157239562Y-119055681D02*
G01*
X157274481Y-119066274D01*
X157306663Y-119083476D01*
X157334873Y-119106627D01*
X157358024Y-119134837D01*
X157375226Y-119167019D01*
X157385819Y-119201938D01*
X157390000Y-119244395D01*
X157390000Y-120385605D01*
X157385819Y-120428062D01*
X157375226Y-120462981D01*
X157358024Y-120495163D01*
X157334873Y-120523373D01*
X157306663Y-120546524D01*
X157274481Y-120563726D01*
X157239562Y-120574319D01*
X157197105Y-120578500D01*
X155730895Y-120578500D01*
X155688438Y-120574319D01*
X155653519Y-120563726D01*
X155621337Y-120546524D01*
X155593127Y-120523373D01*
X155569976Y-120495163D01*
X155552774Y-120462981D01*
X155542181Y-120428062D01*
X155538000Y-120385605D01*
X155538000Y-119244395D01*
X155542181Y-119201938D01*
X155552774Y-119167019D01*
X155569976Y-119134837D01*
X155593127Y-119106627D01*
X155621337Y-119083476D01*
X155653519Y-119066274D01*
X155688438Y-119055681D01*
X155730895Y-119051500D01*
X157197105Y-119051500D01*
X157239562Y-119055681D01*
X157239562Y-119055681D01*
G37*
G36*
X159779562Y-119055681D02*
G01*
X159814481Y-119066274D01*
X159846663Y-119083476D01*
X159874873Y-119106627D01*
X159898024Y-119134837D01*
X159915226Y-119167019D01*
X159925819Y-119201938D01*
X159930000Y-119244395D01*
X159930000Y-120385605D01*
X159925819Y-120428062D01*
X159915226Y-120462981D01*
X159898024Y-120495163D01*
X159874873Y-120523373D01*
X159846663Y-120546524D01*
X159814481Y-120563726D01*
X159779562Y-120574319D01*
X159737105Y-120578500D01*
X158270895Y-120578500D01*
X158228438Y-120574319D01*
X158193519Y-120563726D01*
X158161337Y-120546524D01*
X158133127Y-120523373D01*
X158109976Y-120495163D01*
X158092774Y-120462981D01*
X158082181Y-120428062D01*
X158078000Y-120385605D01*
X158078000Y-119244395D01*
X158082181Y-119201938D01*
X158092774Y-119167019D01*
X158109976Y-119134837D01*
X158133127Y-119106627D01*
X158161337Y-119083476D01*
X158193519Y-119066274D01*
X158228438Y-119055681D01*
X158270895Y-119051500D01*
X159737105Y-119051500D01*
X159779562Y-119055681D01*
X159779562Y-119055681D01*
G37*
G36*
X147263428Y-118412003D02*
G01*
X147418300Y-118476153D01*
X147557681Y-118569285D01*
X147676215Y-118687819D01*
X147769347Y-118827200D01*
X147833497Y-118982072D01*
X147866200Y-119146484D01*
X147866200Y-119314116D01*
X147833497Y-119478528D01*
X147769347Y-119633400D01*
X147676215Y-119772781D01*
X147557681Y-119891315D01*
X147418300Y-119984447D01*
X147263428Y-120048597D01*
X147099016Y-120081300D01*
X146931384Y-120081300D01*
X146766972Y-120048597D01*
X146612100Y-119984447D01*
X146472719Y-119891315D01*
X146354185Y-119772781D01*
X146261053Y-119633400D01*
X146196903Y-119478528D01*
X146164200Y-119314116D01*
X146164200Y-119146484D01*
X146196903Y-118982072D01*
X146261053Y-118827200D01*
X146354185Y-118687819D01*
X146472719Y-118569285D01*
X146612100Y-118476153D01*
X146766972Y-118412003D01*
X146931384Y-118379300D01*
X147099016Y-118379300D01*
X147263428Y-118412003D01*
X147263428Y-118412003D01*
G37*
G36*
X144723428Y-117027003D02*
G01*
X144878300Y-117091153D01*
X145017681Y-117184285D01*
X145136215Y-117302819D01*
X145229347Y-117442200D01*
X145293497Y-117597072D01*
X145326200Y-117761484D01*
X145326200Y-117929116D01*
X145293497Y-118093528D01*
X145229347Y-118248400D01*
X145136215Y-118387781D01*
X145017681Y-118506315D01*
X144878300Y-118599447D01*
X144723428Y-118663597D01*
X144559016Y-118696300D01*
X144391384Y-118696300D01*
X144226972Y-118663597D01*
X144072100Y-118599447D01*
X143932719Y-118506315D01*
X143814185Y-118387781D01*
X143721053Y-118248400D01*
X143656903Y-118093528D01*
X143624200Y-117929116D01*
X143624200Y-117761484D01*
X143656903Y-117597072D01*
X143721053Y-117442200D01*
X143814185Y-117302819D01*
X143932719Y-117184285D01*
X144072100Y-117091153D01*
X144226972Y-117027003D01*
X144391384Y-116994300D01*
X144559016Y-116994300D01*
X144723428Y-117027003D01*
X144723428Y-117027003D01*
G37*
G36*
X159779562Y-116080681D02*
G01*
X159814481Y-116091274D01*
X159846663Y-116108476D01*
X159874873Y-116131627D01*
X159898024Y-116159837D01*
X159915226Y-116192019D01*
X159925819Y-116226938D01*
X159930000Y-116269395D01*
X159930000Y-117410605D01*
X159925819Y-117453062D01*
X159915226Y-117487981D01*
X159898024Y-117520163D01*
X159874873Y-117548373D01*
X159846663Y-117571524D01*
X159814481Y-117588726D01*
X159779562Y-117599319D01*
X159737105Y-117603500D01*
X158270895Y-117603500D01*
X158228438Y-117599319D01*
X158193519Y-117588726D01*
X158161337Y-117571524D01*
X158133127Y-117548373D01*
X158109976Y-117520163D01*
X158092774Y-117487981D01*
X158082181Y-117453062D01*
X158078000Y-117410605D01*
X158078000Y-116269395D01*
X158082181Y-116226938D01*
X158092774Y-116192019D01*
X158109976Y-116159837D01*
X158133127Y-116131627D01*
X158161337Y-116108476D01*
X158193519Y-116091274D01*
X158228438Y-116080681D01*
X158270895Y-116076500D01*
X159737105Y-116076500D01*
X159779562Y-116080681D01*
X159779562Y-116080681D01*
G37*
G36*
X162319562Y-116080681D02*
G01*
X162354481Y-116091274D01*
X162386663Y-116108476D01*
X162414873Y-116131627D01*
X162438024Y-116159837D01*
X162455226Y-116192019D01*
X162465819Y-116226938D01*
X162470000Y-116269395D01*
X162470000Y-117410605D01*
X162465819Y-117453062D01*
X162455226Y-117487981D01*
X162438024Y-117520163D01*
X162414873Y-117548373D01*
X162386663Y-117571524D01*
X162354481Y-117588726D01*
X162319562Y-117599319D01*
X162277105Y-117603500D01*
X160810895Y-117603500D01*
X160768438Y-117599319D01*
X160733519Y-117588726D01*
X160701337Y-117571524D01*
X160673127Y-117548373D01*
X160649976Y-117520163D01*
X160632774Y-117487981D01*
X160622181Y-117453062D01*
X160618000Y-117410605D01*
X160618000Y-116269395D01*
X160622181Y-116226938D01*
X160632774Y-116192019D01*
X160649976Y-116159837D01*
X160673127Y-116131627D01*
X160701337Y-116108476D01*
X160733519Y-116091274D01*
X160768438Y-116080681D01*
X160810895Y-116076500D01*
X162277105Y-116076500D01*
X162319562Y-116080681D01*
X162319562Y-116080681D01*
G37*
G36*
X152159562Y-116080681D02*
G01*
X152194481Y-116091274D01*
X152226663Y-116108476D01*
X152254873Y-116131627D01*
X152278024Y-116159837D01*
X152295226Y-116192019D01*
X152305819Y-116226938D01*
X152310000Y-116269395D01*
X152310000Y-117410605D01*
X152305819Y-117453062D01*
X152295226Y-117487981D01*
X152278024Y-117520163D01*
X152254873Y-117548373D01*
X152226663Y-117571524D01*
X152194481Y-117588726D01*
X152159562Y-117599319D01*
X152117105Y-117603500D01*
X150650895Y-117603500D01*
X150608438Y-117599319D01*
X150573519Y-117588726D01*
X150541337Y-117571524D01*
X150513127Y-117548373D01*
X150489976Y-117520163D01*
X150472774Y-117487981D01*
X150462181Y-117453062D01*
X150458000Y-117410605D01*
X150458000Y-116269395D01*
X150462181Y-116226938D01*
X150472774Y-116192019D01*
X150489976Y-116159837D01*
X150513127Y-116131627D01*
X150541337Y-116108476D01*
X150573519Y-116091274D01*
X150608438Y-116080681D01*
X150650895Y-116076500D01*
X152117105Y-116076500D01*
X152159562Y-116080681D01*
X152159562Y-116080681D01*
G37*
G36*
X157239562Y-116080681D02*
G01*
X157274481Y-116091274D01*
X157306663Y-116108476D01*
X157334873Y-116131627D01*
X157358024Y-116159837D01*
X157375226Y-116192019D01*
X157385819Y-116226938D01*
X157390000Y-116269395D01*
X157390000Y-117410605D01*
X157385819Y-117453062D01*
X157375226Y-117487981D01*
X157358024Y-117520163D01*
X157334873Y-117548373D01*
X157306663Y-117571524D01*
X157274481Y-117588726D01*
X157239562Y-117599319D01*
X157197105Y-117603500D01*
X155730895Y-117603500D01*
X155688438Y-117599319D01*
X155653519Y-117588726D01*
X155621337Y-117571524D01*
X155593127Y-117548373D01*
X155569976Y-117520163D01*
X155552774Y-117487981D01*
X155542181Y-117453062D01*
X155538000Y-117410605D01*
X155538000Y-116269395D01*
X155542181Y-116226938D01*
X155552774Y-116192019D01*
X155569976Y-116159837D01*
X155593127Y-116131627D01*
X155621337Y-116108476D01*
X155653519Y-116091274D01*
X155688438Y-116080681D01*
X155730895Y-116076500D01*
X157197105Y-116076500D01*
X157239562Y-116080681D01*
X157239562Y-116080681D01*
G37*
G36*
X164859562Y-116080681D02*
G01*
X164894481Y-116091274D01*
X164926663Y-116108476D01*
X164954873Y-116131627D01*
X164978024Y-116159837D01*
X164995226Y-116192019D01*
X165005819Y-116226938D01*
X165010000Y-116269395D01*
X165010000Y-117410605D01*
X165005819Y-117453062D01*
X164995226Y-117487981D01*
X164978024Y-117520163D01*
X164954873Y-117548373D01*
X164926663Y-117571524D01*
X164894481Y-117588726D01*
X164859562Y-117599319D01*
X164817105Y-117603500D01*
X163350895Y-117603500D01*
X163308438Y-117599319D01*
X163273519Y-117588726D01*
X163241337Y-117571524D01*
X163213127Y-117548373D01*
X163189976Y-117520163D01*
X163172774Y-117487981D01*
X163162181Y-117453062D01*
X163158000Y-117410605D01*
X163158000Y-116269395D01*
X163162181Y-116226938D01*
X163172774Y-116192019D01*
X163189976Y-116159837D01*
X163213127Y-116131627D01*
X163241337Y-116108476D01*
X163273519Y-116091274D01*
X163308438Y-116080681D01*
X163350895Y-116076500D01*
X164817105Y-116076500D01*
X164859562Y-116080681D01*
X164859562Y-116080681D01*
G37*
G36*
X154699562Y-116080681D02*
G01*
X154734481Y-116091274D01*
X154766663Y-116108476D01*
X154794873Y-116131627D01*
X154818024Y-116159837D01*
X154835226Y-116192019D01*
X154845819Y-116226938D01*
X154850000Y-116269395D01*
X154850000Y-117410605D01*
X154845819Y-117453062D01*
X154835226Y-117487981D01*
X154818024Y-117520163D01*
X154794873Y-117548373D01*
X154766663Y-117571524D01*
X154734481Y-117588726D01*
X154699562Y-117599319D01*
X154657105Y-117603500D01*
X153190895Y-117603500D01*
X153148438Y-117599319D01*
X153113519Y-117588726D01*
X153081337Y-117571524D01*
X153053127Y-117548373D01*
X153029976Y-117520163D01*
X153012774Y-117487981D01*
X153002181Y-117453062D01*
X152998000Y-117410605D01*
X152998000Y-116269395D01*
X153002181Y-116226938D01*
X153012774Y-116192019D01*
X153029976Y-116159837D01*
X153053127Y-116131627D01*
X153081337Y-116108476D01*
X153113519Y-116091274D01*
X153148438Y-116080681D01*
X153190895Y-116076500D01*
X154657105Y-116076500D01*
X154699562Y-116080681D01*
X154699562Y-116080681D01*
G37*
G36*
X147263428Y-115642003D02*
G01*
X147418300Y-115706153D01*
X147557681Y-115799285D01*
X147676215Y-115917819D01*
X147769347Y-116057200D01*
X147833497Y-116212072D01*
X147866200Y-116376484D01*
X147866200Y-116544116D01*
X147833497Y-116708528D01*
X147769347Y-116863400D01*
X147676215Y-117002781D01*
X147557681Y-117121315D01*
X147418300Y-117214447D01*
X147263428Y-117278597D01*
X147099016Y-117311300D01*
X146931384Y-117311300D01*
X146766972Y-117278597D01*
X146612100Y-117214447D01*
X146472719Y-117121315D01*
X146354185Y-117002781D01*
X146261053Y-116863400D01*
X146196903Y-116708528D01*
X146164200Y-116544116D01*
X146164200Y-116376484D01*
X146196903Y-116212072D01*
X146261053Y-116057200D01*
X146354185Y-115917819D01*
X146472719Y-115799285D01*
X146612100Y-115706153D01*
X146766972Y-115642003D01*
X146931384Y-115609300D01*
X147099016Y-115609300D01*
X147263428Y-115642003D01*
X147263428Y-115642003D01*
G37*
G36*
X144723428Y-114257003D02*
G01*
X144878300Y-114321153D01*
X145017681Y-114414285D01*
X145136215Y-114532819D01*
X145229347Y-114672200D01*
X145293497Y-114827072D01*
X145326200Y-114991484D01*
X145326200Y-115159116D01*
X145293497Y-115323528D01*
X145229347Y-115478400D01*
X145136215Y-115617781D01*
X145017681Y-115736315D01*
X144878300Y-115829447D01*
X144723428Y-115893597D01*
X144559016Y-115926300D01*
X144391384Y-115926300D01*
X144226972Y-115893597D01*
X144072100Y-115829447D01*
X143932719Y-115736315D01*
X143814185Y-115617781D01*
X143721053Y-115478400D01*
X143656903Y-115323528D01*
X143624200Y-115159116D01*
X143624200Y-114991484D01*
X143656903Y-114827072D01*
X143721053Y-114672200D01*
X143814185Y-114532819D01*
X143932719Y-114414285D01*
X144072100Y-114321153D01*
X144226972Y-114257003D01*
X144391384Y-114224300D01*
X144559016Y-114224300D01*
X144723428Y-114257003D01*
X144723428Y-114257003D01*
G37*
G36*
X169509300Y-114757800D02*
G01*
X168507300Y-114757800D01*
X168507300Y-112655800D01*
X169509300Y-112655800D01*
X169509300Y-114757800D01*
X169509300Y-114757800D01*
G37*
G36*
X154269300Y-114757800D02*
G01*
X153267300Y-114757800D01*
X153267300Y-112655800D01*
X154269300Y-112655800D01*
X154269300Y-114757800D01*
X154269300Y-114757800D01*
G37*
G36*
X161889300Y-114757800D02*
G01*
X160887300Y-114757800D01*
X160887300Y-112655800D01*
X161889300Y-112655800D01*
X161889300Y-114757800D01*
X161889300Y-114757800D01*
G37*
G36*
X163159300Y-114757800D02*
G01*
X162157300Y-114757800D01*
X162157300Y-112655800D01*
X163159300Y-112655800D01*
X163159300Y-114757800D01*
X163159300Y-114757800D01*
G37*
G36*
X164429300Y-114757800D02*
G01*
X163427300Y-114757800D01*
X163427300Y-112655800D01*
X164429300Y-112655800D01*
X164429300Y-114757800D01*
X164429300Y-114757800D01*
G37*
G36*
X165699300Y-114757800D02*
G01*
X164697300Y-114757800D01*
X164697300Y-112655800D01*
X165699300Y-112655800D01*
X165699300Y-114757800D01*
X165699300Y-114757800D01*
G37*
G36*
X152999300Y-114757800D02*
G01*
X151997300Y-114757800D01*
X151997300Y-112655800D01*
X152999300Y-112655800D01*
X152999300Y-114757800D01*
X152999300Y-114757800D01*
G37*
G36*
X166969300Y-114757800D02*
G01*
X165967300Y-114757800D01*
X165967300Y-112655800D01*
X166969300Y-112655800D01*
X166969300Y-114757800D01*
X166969300Y-114757800D01*
G37*
G36*
X168239300Y-114757800D02*
G01*
X167237300Y-114757800D01*
X167237300Y-112655800D01*
X168239300Y-112655800D01*
X168239300Y-114757800D01*
X168239300Y-114757800D01*
G37*
G36*
X160619300Y-114757800D02*
G01*
X159617300Y-114757800D01*
X159617300Y-112655800D01*
X160619300Y-112655800D01*
X160619300Y-114757800D01*
X160619300Y-114757800D01*
G37*
G36*
X159349300Y-114757800D02*
G01*
X158347300Y-114757800D01*
X158347300Y-112655800D01*
X159349300Y-112655800D01*
X159349300Y-114757800D01*
X159349300Y-114757800D01*
G37*
G36*
X158079300Y-114757800D02*
G01*
X157077300Y-114757800D01*
X157077300Y-112655800D01*
X158079300Y-112655800D01*
X158079300Y-114757800D01*
X158079300Y-114757800D01*
G37*
G36*
X156809300Y-114757800D02*
G01*
X155807300Y-114757800D01*
X155807300Y-112655800D01*
X156809300Y-112655800D01*
X156809300Y-114757800D01*
X156809300Y-114757800D01*
G37*
G36*
X155539300Y-114757800D02*
G01*
X154537300Y-114757800D01*
X154537300Y-112655800D01*
X155539300Y-112655800D01*
X155539300Y-114757800D01*
X155539300Y-114757800D01*
G37*
G36*
X147263428Y-112872003D02*
G01*
X147418300Y-112936153D01*
X147557681Y-113029285D01*
X147676215Y-113147819D01*
X147769347Y-113287200D01*
X147833497Y-113442072D01*
X147866200Y-113606484D01*
X147866200Y-113774116D01*
X147833497Y-113938528D01*
X147769347Y-114093400D01*
X147676215Y-114232781D01*
X147557681Y-114351315D01*
X147418300Y-114444447D01*
X147263428Y-114508597D01*
X147099016Y-114541300D01*
X146931384Y-114541300D01*
X146766972Y-114508597D01*
X146612100Y-114444447D01*
X146472719Y-114351315D01*
X146354185Y-114232781D01*
X146261053Y-114093400D01*
X146196903Y-113938528D01*
X146164200Y-113774116D01*
X146164200Y-113606484D01*
X146196903Y-113442072D01*
X146261053Y-113287200D01*
X146354185Y-113147819D01*
X146472719Y-113029285D01*
X146612100Y-112936153D01*
X146766972Y-112872003D01*
X146931384Y-112839300D01*
X147099016Y-112839300D01*
X147263428Y-112872003D01*
X147263428Y-112872003D01*
G37*
G36*
X144723428Y-111487003D02*
G01*
X144878300Y-111551153D01*
X145017681Y-111644285D01*
X145136215Y-111762819D01*
X145229347Y-111902200D01*
X145293497Y-112057072D01*
X145326200Y-112221484D01*
X145326200Y-112389116D01*
X145293497Y-112553528D01*
X145229347Y-112708400D01*
X145136215Y-112847781D01*
X145017681Y-112966315D01*
X144878300Y-113059447D01*
X144723428Y-113123597D01*
X144559016Y-113156300D01*
X144391384Y-113156300D01*
X144226972Y-113123597D01*
X144072100Y-113059447D01*
X143932719Y-112966315D01*
X143814185Y-112847781D01*
X143721053Y-112708400D01*
X143656903Y-112553528D01*
X143624200Y-112389116D01*
X143624200Y-112221484D01*
X143656903Y-112057072D01*
X143721053Y-111902200D01*
X143814185Y-111762819D01*
X143932719Y-111644285D01*
X144072100Y-111551153D01*
X144226972Y-111487003D01*
X144391384Y-111454300D01*
X144559016Y-111454300D01*
X144723428Y-111487003D01*
X144723428Y-111487003D01*
G37*
G36*
X147263428Y-110102003D02*
G01*
X147418300Y-110166153D01*
X147557681Y-110259285D01*
X147676215Y-110377819D01*
X147769347Y-110517200D01*
X147833497Y-110672072D01*
X147866200Y-110836484D01*
X147866200Y-111004116D01*
X147833497Y-111168528D01*
X147769347Y-111323400D01*
X147676215Y-111462781D01*
X147557681Y-111581315D01*
X147418300Y-111674447D01*
X147263428Y-111738597D01*
X147099016Y-111771300D01*
X146931384Y-111771300D01*
X146766972Y-111738597D01*
X146612100Y-111674447D01*
X146472719Y-111581315D01*
X146354185Y-111462781D01*
X146261053Y-111323400D01*
X146196903Y-111168528D01*
X146164200Y-111004116D01*
X146164200Y-110836484D01*
X146196903Y-110672072D01*
X146261053Y-110517200D01*
X146354185Y-110377819D01*
X146472719Y-110259285D01*
X146612100Y-110166153D01*
X146766972Y-110102003D01*
X146931384Y-110069300D01*
X147099016Y-110069300D01*
X147263428Y-110102003D01*
X147263428Y-110102003D01*
G37*
G36*
X152549300Y-111422800D02*
G01*
X150447300Y-111422800D01*
X150447300Y-110420800D01*
X152549300Y-110420800D01*
X152549300Y-111422800D01*
X152549300Y-111422800D01*
G37*
G36*
X144723428Y-108717003D02*
G01*
X144878300Y-108781153D01*
X145017681Y-108874285D01*
X145136215Y-108992819D01*
X145229347Y-109132200D01*
X145293497Y-109287072D01*
X145326200Y-109451484D01*
X145326200Y-109619116D01*
X145293497Y-109783528D01*
X145229347Y-109938400D01*
X145136215Y-110077781D01*
X145017681Y-110196315D01*
X144878300Y-110289447D01*
X144723428Y-110353597D01*
X144559016Y-110386300D01*
X144391384Y-110386300D01*
X144226972Y-110353597D01*
X144072100Y-110289447D01*
X143932719Y-110196315D01*
X143814185Y-110077781D01*
X143721053Y-109938400D01*
X143656903Y-109783528D01*
X143624200Y-109619116D01*
X143624200Y-109451484D01*
X143656903Y-109287072D01*
X143721053Y-109132200D01*
X143814185Y-108992819D01*
X143932719Y-108874285D01*
X144072100Y-108781153D01*
X144226972Y-108717003D01*
X144391384Y-108684300D01*
X144559016Y-108684300D01*
X144723428Y-108717003D01*
X144723428Y-108717003D01*
G37*
G36*
X152549300Y-110152800D02*
G01*
X150447300Y-110152800D01*
X150447300Y-109150800D01*
X152549300Y-109150800D01*
X152549300Y-110152800D01*
X152549300Y-110152800D01*
G37*
G36*
X147263428Y-107332003D02*
G01*
X147418300Y-107396153D01*
X147557681Y-107489285D01*
X147676215Y-107607819D01*
X147769347Y-107747200D01*
X147833497Y-107902072D01*
X147866200Y-108066484D01*
X147866200Y-108234116D01*
X147833497Y-108398528D01*
X147769347Y-108553400D01*
X147676215Y-108692781D01*
X147557681Y-108811315D01*
X147418300Y-108904447D01*
X147263428Y-108968597D01*
X147099016Y-109001300D01*
X146931384Y-109001300D01*
X146766972Y-108968597D01*
X146612100Y-108904447D01*
X146472719Y-108811315D01*
X146354185Y-108692781D01*
X146261053Y-108553400D01*
X146196903Y-108398528D01*
X146164200Y-108234116D01*
X146164200Y-108066484D01*
X146196903Y-107902072D01*
X146261053Y-107747200D01*
X146354185Y-107607819D01*
X146472719Y-107489285D01*
X146612100Y-107396153D01*
X146766972Y-107332003D01*
X146931384Y-107299300D01*
X147099016Y-107299300D01*
X147263428Y-107332003D01*
X147263428Y-107332003D01*
G37*
G36*
X152549300Y-108882800D02*
G01*
X150447300Y-108882800D01*
X150447300Y-107880800D01*
X152549300Y-107880800D01*
X152549300Y-108882800D01*
X152549300Y-108882800D01*
G37*
G36*
X144723428Y-105947003D02*
G01*
X144878300Y-106011153D01*
X145017681Y-106104285D01*
X145136215Y-106222819D01*
X145229347Y-106362200D01*
X145293497Y-106517072D01*
X145326200Y-106681484D01*
X145326200Y-106849116D01*
X145293497Y-107013528D01*
X145229347Y-107168400D01*
X145136215Y-107307781D01*
X145017681Y-107426315D01*
X144878300Y-107519447D01*
X144723428Y-107583597D01*
X144559016Y-107616300D01*
X144391384Y-107616300D01*
X144226972Y-107583597D01*
X144072100Y-107519447D01*
X143932719Y-107426315D01*
X143814185Y-107307781D01*
X143721053Y-107168400D01*
X143656903Y-107013528D01*
X143624200Y-106849116D01*
X143624200Y-106681484D01*
X143656903Y-106517072D01*
X143721053Y-106362200D01*
X143814185Y-106222819D01*
X143932719Y-106104285D01*
X144072100Y-106011153D01*
X144226972Y-105947003D01*
X144391384Y-105914300D01*
X144559016Y-105914300D01*
X144723428Y-105947003D01*
X144723428Y-105947003D01*
G37*
G36*
X152549300Y-107612800D02*
G01*
X150447300Y-107612800D01*
X150447300Y-106610800D01*
X152549300Y-106610800D01*
X152549300Y-107612800D01*
X152549300Y-107612800D01*
G37*
G36*
X164059300Y-106757800D02*
G01*
X158957300Y-106757800D01*
X158957300Y-101655800D01*
X164059300Y-101655800D01*
X164059300Y-106757800D01*
X164059300Y-106757800D01*
G37*
G36*
X152549300Y-106342800D02*
G01*
X150447300Y-106342800D01*
X150447300Y-105340800D01*
X152549300Y-105340800D01*
X152549300Y-106342800D01*
X152549300Y-106342800D01*
G37*
G36*
X147263428Y-104562003D02*
G01*
X147418300Y-104626153D01*
X147557681Y-104719285D01*
X147676215Y-104837819D01*
X147769347Y-104977200D01*
X147833497Y-105132072D01*
X147866200Y-105296484D01*
X147866200Y-105464116D01*
X147833497Y-105628528D01*
X147769347Y-105783400D01*
X147676215Y-105922781D01*
X147557681Y-106041315D01*
X147418300Y-106134447D01*
X147263428Y-106198597D01*
X147099016Y-106231300D01*
X146931384Y-106231300D01*
X146766972Y-106198597D01*
X146612100Y-106134447D01*
X146472719Y-106041315D01*
X146354185Y-105922781D01*
X146261053Y-105783400D01*
X146196903Y-105628528D01*
X146164200Y-105464116D01*
X146164200Y-105296484D01*
X146196903Y-105132072D01*
X146261053Y-104977200D01*
X146354185Y-104837819D01*
X146472719Y-104719285D01*
X146612100Y-104626153D01*
X146766972Y-104562003D01*
X146931384Y-104529300D01*
X147099016Y-104529300D01*
X147263428Y-104562003D01*
X147263428Y-104562003D01*
G37*
G36*
X152549300Y-105072800D02*
G01*
X150447300Y-105072800D01*
X150447300Y-104070800D01*
X152549300Y-104070800D01*
X152549300Y-105072800D01*
X152549300Y-105072800D01*
G37*
G36*
X144723428Y-103177003D02*
G01*
X144878300Y-103241153D01*
X145017681Y-103334285D01*
X145136215Y-103452819D01*
X145229347Y-103592200D01*
X145293497Y-103747072D01*
X145326200Y-103911484D01*
X145326200Y-104079116D01*
X145293497Y-104243528D01*
X145229347Y-104398400D01*
X145136215Y-104537781D01*
X145017681Y-104656315D01*
X144878300Y-104749447D01*
X144723428Y-104813597D01*
X144559016Y-104846300D01*
X144391384Y-104846300D01*
X144226972Y-104813597D01*
X144072100Y-104749447D01*
X143932719Y-104656315D01*
X143814185Y-104537781D01*
X143721053Y-104398400D01*
X143656903Y-104243528D01*
X143624200Y-104079116D01*
X143624200Y-103911484D01*
X143656903Y-103747072D01*
X143721053Y-103592200D01*
X143814185Y-103452819D01*
X143932719Y-103334285D01*
X144072100Y-103241153D01*
X144226972Y-103177003D01*
X144391384Y-103144300D01*
X144559016Y-103144300D01*
X144723428Y-103177003D01*
X144723428Y-103177003D01*
G37*
G36*
X152549300Y-103802800D02*
G01*
X150447300Y-103802800D01*
X150447300Y-102800800D01*
X152549300Y-102800800D01*
X152549300Y-103802800D01*
X152549300Y-103802800D01*
G37*
G36*
X147263428Y-101792003D02*
G01*
X147418300Y-101856153D01*
X147557681Y-101949285D01*
X147676215Y-102067819D01*
X147769347Y-102207200D01*
X147833497Y-102362072D01*
X147866200Y-102526484D01*
X147866200Y-102694116D01*
X147833497Y-102858528D01*
X147769347Y-103013400D01*
X147676215Y-103152781D01*
X147557681Y-103271315D01*
X147418300Y-103364447D01*
X147263428Y-103428597D01*
X147099016Y-103461300D01*
X146931384Y-103461300D01*
X146766972Y-103428597D01*
X146612100Y-103364447D01*
X146472719Y-103271315D01*
X146354185Y-103152781D01*
X146261053Y-103013400D01*
X146196903Y-102858528D01*
X146164200Y-102694116D01*
X146164200Y-102526484D01*
X146196903Y-102362072D01*
X146261053Y-102207200D01*
X146354185Y-102067819D01*
X146472719Y-101949285D01*
X146612100Y-101856153D01*
X146766972Y-101792003D01*
X146931384Y-101759300D01*
X147099016Y-101759300D01*
X147263428Y-101792003D01*
X147263428Y-101792003D01*
G37*
G36*
X152549300Y-102532800D02*
G01*
X150447300Y-102532800D01*
X150447300Y-101530800D01*
X152549300Y-101530800D01*
X152549300Y-102532800D01*
X152549300Y-102532800D01*
G37*
G36*
X144723428Y-100407003D02*
G01*
X144878300Y-100471153D01*
X145017681Y-100564285D01*
X145136215Y-100682819D01*
X145229347Y-100822200D01*
X145293497Y-100977072D01*
X145326200Y-101141484D01*
X145326200Y-101309116D01*
X145293497Y-101473528D01*
X145229347Y-101628400D01*
X145136215Y-101767781D01*
X145017681Y-101886315D01*
X144878300Y-101979447D01*
X144723428Y-102043597D01*
X144559016Y-102076300D01*
X144391384Y-102076300D01*
X144226972Y-102043597D01*
X144072100Y-101979447D01*
X143932719Y-101886315D01*
X143814185Y-101767781D01*
X143721053Y-101628400D01*
X143656903Y-101473528D01*
X143624200Y-101309116D01*
X143624200Y-101141484D01*
X143656903Y-100977072D01*
X143721053Y-100822200D01*
X143814185Y-100682819D01*
X143932719Y-100564285D01*
X144072100Y-100471153D01*
X144226972Y-100407003D01*
X144391384Y-100374300D01*
X144559016Y-100374300D01*
X144723428Y-100407003D01*
X144723428Y-100407003D01*
G37*
G36*
X152549300Y-101262800D02*
G01*
X150447300Y-101262800D01*
X150447300Y-100260800D01*
X152549300Y-100260800D01*
X152549300Y-101262800D01*
X152549300Y-101262800D01*
G37*
G36*
X147263428Y-99022003D02*
G01*
X147418300Y-99086153D01*
X147557681Y-99179285D01*
X147676215Y-99297819D01*
X147769347Y-99437200D01*
X147833497Y-99592072D01*
X147866200Y-99756484D01*
X147866200Y-99924116D01*
X147833497Y-100088528D01*
X147769347Y-100243400D01*
X147676215Y-100382781D01*
X147557681Y-100501315D01*
X147418300Y-100594447D01*
X147263428Y-100658597D01*
X147099016Y-100691300D01*
X146931384Y-100691300D01*
X146766972Y-100658597D01*
X146612100Y-100594447D01*
X146472719Y-100501315D01*
X146354185Y-100382781D01*
X146261053Y-100243400D01*
X146196903Y-100088528D01*
X146164200Y-99924116D01*
X146164200Y-99756484D01*
X146196903Y-99592072D01*
X146261053Y-99437200D01*
X146354185Y-99297819D01*
X146472719Y-99179285D01*
X146612100Y-99086153D01*
X146766972Y-99022003D01*
X146931384Y-98989300D01*
X147099016Y-98989300D01*
X147263428Y-99022003D01*
X147263428Y-99022003D01*
G37*
G36*
X152549300Y-99992800D02*
G01*
X150447300Y-99992800D01*
X150447300Y-98990800D01*
X152549300Y-98990800D01*
X152549300Y-99992800D01*
X152549300Y-99992800D01*
G37*
G36*
X144723428Y-97637003D02*
G01*
X144878300Y-97701153D01*
X145017681Y-97794285D01*
X145136215Y-97912819D01*
X145229347Y-98052200D01*
X145293497Y-98207072D01*
X145326200Y-98371484D01*
X145326200Y-98539116D01*
X145293497Y-98703528D01*
X145229347Y-98858400D01*
X145136215Y-98997781D01*
X145017681Y-99116315D01*
X144878300Y-99209447D01*
X144723428Y-99273597D01*
X144559016Y-99306300D01*
X144391384Y-99306300D01*
X144226972Y-99273597D01*
X144072100Y-99209447D01*
X143932719Y-99116315D01*
X143814185Y-98997781D01*
X143721053Y-98858400D01*
X143656903Y-98703528D01*
X143624200Y-98539116D01*
X143624200Y-98371484D01*
X143656903Y-98207072D01*
X143721053Y-98052200D01*
X143814185Y-97912819D01*
X143932719Y-97794285D01*
X144072100Y-97701153D01*
X144226972Y-97637003D01*
X144391384Y-97604300D01*
X144559016Y-97604300D01*
X144723428Y-97637003D01*
X144723428Y-97637003D01*
G37*
G36*
X147263428Y-96252003D02*
G01*
X147418300Y-96316153D01*
X147557681Y-96409285D01*
X147676215Y-96527819D01*
X147769347Y-96667200D01*
X147833497Y-96822072D01*
X147866200Y-96986484D01*
X147866200Y-97154116D01*
X147833497Y-97318528D01*
X147769347Y-97473400D01*
X147676215Y-97612781D01*
X147557681Y-97731315D01*
X147418300Y-97824447D01*
X147263428Y-97888597D01*
X147099016Y-97921300D01*
X146931384Y-97921300D01*
X146766972Y-97888597D01*
X146612100Y-97824447D01*
X146472719Y-97731315D01*
X146354185Y-97612781D01*
X146261053Y-97473400D01*
X146196903Y-97318528D01*
X146164200Y-97154116D01*
X146164200Y-96986484D01*
X146196903Y-96822072D01*
X146261053Y-96667200D01*
X146354185Y-96527819D01*
X146472719Y-96409285D01*
X146612100Y-96316153D01*
X146766972Y-96252003D01*
X146931384Y-96219300D01*
X147099016Y-96219300D01*
X147263428Y-96252003D01*
X147263428Y-96252003D01*
G37*
G36*
X166969300Y-97757800D02*
G01*
X165967300Y-97757800D01*
X165967300Y-95655800D01*
X166969300Y-95655800D01*
X166969300Y-97757800D01*
X166969300Y-97757800D01*
G37*
G36*
X152999300Y-97757800D02*
G01*
X151997300Y-97757800D01*
X151997300Y-95655800D01*
X152999300Y-95655800D01*
X152999300Y-97757800D01*
X152999300Y-97757800D01*
G37*
G36*
X154269300Y-97757800D02*
G01*
X153267300Y-97757800D01*
X153267300Y-95655800D01*
X154269300Y-95655800D01*
X154269300Y-97757800D01*
X154269300Y-97757800D01*
G37*
G36*
X155539300Y-97757800D02*
G01*
X154537300Y-97757800D01*
X154537300Y-95655800D01*
X155539300Y-95655800D01*
X155539300Y-97757800D01*
X155539300Y-97757800D01*
G37*
G36*
X156809300Y-97757800D02*
G01*
X155807300Y-97757800D01*
X155807300Y-95655800D01*
X156809300Y-95655800D01*
X156809300Y-97757800D01*
X156809300Y-97757800D01*
G37*
G36*
X158079300Y-97757800D02*
G01*
X157077300Y-97757800D01*
X157077300Y-95655800D01*
X158079300Y-95655800D01*
X158079300Y-97757800D01*
X158079300Y-97757800D01*
G37*
G36*
X159349300Y-97757800D02*
G01*
X158347300Y-97757800D01*
X158347300Y-95655800D01*
X159349300Y-95655800D01*
X159349300Y-97757800D01*
X159349300Y-97757800D01*
G37*
G36*
X160619300Y-97757800D02*
G01*
X159617300Y-97757800D01*
X159617300Y-95655800D01*
X160619300Y-95655800D01*
X160619300Y-97757800D01*
X160619300Y-97757800D01*
G37*
G36*
X161889300Y-97757800D02*
G01*
X160887300Y-97757800D01*
X160887300Y-95655800D01*
X161889300Y-95655800D01*
X161889300Y-97757800D01*
X161889300Y-97757800D01*
G37*
G36*
X163159300Y-97757800D02*
G01*
X162157300Y-97757800D01*
X162157300Y-95655800D01*
X163159300Y-95655800D01*
X163159300Y-97757800D01*
X163159300Y-97757800D01*
G37*
G36*
X164429300Y-97757800D02*
G01*
X163427300Y-97757800D01*
X163427300Y-95655800D01*
X164429300Y-95655800D01*
X164429300Y-97757800D01*
X164429300Y-97757800D01*
G37*
G36*
X165699300Y-97757800D02*
G01*
X164697300Y-97757800D01*
X164697300Y-95655800D01*
X165699300Y-95655800D01*
X165699300Y-97757800D01*
X165699300Y-97757800D01*
G37*
G36*
X168239300Y-97757800D02*
G01*
X167237300Y-97757800D01*
X167237300Y-95655800D01*
X168239300Y-95655800D01*
X168239300Y-97757800D01*
X168239300Y-97757800D01*
G37*
G36*
X169509300Y-97757800D02*
G01*
X168507300Y-97757800D01*
X168507300Y-95655800D01*
X169509300Y-95655800D01*
X169509300Y-97757800D01*
X169509300Y-97757800D01*
G37*
G36*
X144723428Y-94867003D02*
G01*
X144878300Y-94931153D01*
X145017681Y-95024285D01*
X145136215Y-95142819D01*
X145229347Y-95282200D01*
X145293497Y-95437072D01*
X145326200Y-95601484D01*
X145326200Y-95769116D01*
X145293497Y-95933528D01*
X145229347Y-96088400D01*
X145136215Y-96227781D01*
X145017681Y-96346315D01*
X144878300Y-96439447D01*
X144723428Y-96503597D01*
X144559016Y-96536300D01*
X144391384Y-96536300D01*
X144226972Y-96503597D01*
X144072100Y-96439447D01*
X143932719Y-96346315D01*
X143814185Y-96227781D01*
X143721053Y-96088400D01*
X143656903Y-95933528D01*
X143624200Y-95769116D01*
X143624200Y-95601484D01*
X143656903Y-95437072D01*
X143721053Y-95282200D01*
X143814185Y-95142819D01*
X143932719Y-95024285D01*
X144072100Y-94931153D01*
X144226972Y-94867003D01*
X144391384Y-94834300D01*
X144559016Y-94834300D01*
X144723428Y-94867003D01*
X144723428Y-94867003D01*
G37*
G36*
X147263428Y-93482003D02*
G01*
X147418300Y-93546153D01*
X147557681Y-93639285D01*
X147676215Y-93757819D01*
X147769347Y-93897200D01*
X147833497Y-94052072D01*
X147866200Y-94216484D01*
X147866200Y-94384116D01*
X147833497Y-94548528D01*
X147769347Y-94703400D01*
X147676215Y-94842781D01*
X147557681Y-94961315D01*
X147418300Y-95054447D01*
X147263428Y-95118597D01*
X147099016Y-95151300D01*
X146931384Y-95151300D01*
X146766972Y-95118597D01*
X146612100Y-95054447D01*
X146472719Y-94961315D01*
X146354185Y-94842781D01*
X146261053Y-94703400D01*
X146196903Y-94548528D01*
X146164200Y-94384116D01*
X146164200Y-94216484D01*
X146196903Y-94052072D01*
X146261053Y-93897200D01*
X146354185Y-93757819D01*
X146472719Y-93639285D01*
X146612100Y-93546153D01*
X146766972Y-93482003D01*
X146931384Y-93449300D01*
X147099016Y-93449300D01*
X147263428Y-93482003D01*
X147263428Y-93482003D01*
G37*
G36*
X167144962Y-93007381D02*
G01*
X167179881Y-93017974D01*
X167212063Y-93035176D01*
X167240273Y-93058327D01*
X167263424Y-93086537D01*
X167280626Y-93118719D01*
X167291219Y-93153638D01*
X167295400Y-93196095D01*
X167295400Y-94662305D01*
X167291219Y-94704762D01*
X167280626Y-94739681D01*
X167263424Y-94771863D01*
X167240273Y-94800073D01*
X167212063Y-94823224D01*
X167179881Y-94840426D01*
X167144962Y-94851019D01*
X167102505Y-94855200D01*
X165961295Y-94855200D01*
X165918838Y-94851019D01*
X165883919Y-94840426D01*
X165851737Y-94823224D01*
X165823527Y-94800073D01*
X165800376Y-94771863D01*
X165783174Y-94739681D01*
X165772581Y-94704762D01*
X165768400Y-94662305D01*
X165768400Y-93196095D01*
X165772581Y-93153638D01*
X165783174Y-93118719D01*
X165800376Y-93086537D01*
X165823527Y-93058327D01*
X165851737Y-93035176D01*
X165883919Y-93017974D01*
X165918838Y-93007381D01*
X165961295Y-93003200D01*
X167102505Y-93003200D01*
X167144962Y-93007381D01*
X167144962Y-93007381D01*
G37*
G36*
X170119962Y-93007381D02*
G01*
X170154881Y-93017974D01*
X170187063Y-93035176D01*
X170215273Y-93058327D01*
X170238424Y-93086537D01*
X170255626Y-93118719D01*
X170266219Y-93153638D01*
X170270400Y-93196095D01*
X170270400Y-94662305D01*
X170266219Y-94704762D01*
X170255626Y-94739681D01*
X170238424Y-94771863D01*
X170215273Y-94800073D01*
X170187063Y-94823224D01*
X170154881Y-94840426D01*
X170119962Y-94851019D01*
X170077505Y-94855200D01*
X168936295Y-94855200D01*
X168893838Y-94851019D01*
X168858919Y-94840426D01*
X168826737Y-94823224D01*
X168798527Y-94800073D01*
X168775376Y-94771863D01*
X168758174Y-94739681D01*
X168747581Y-94704762D01*
X168743400Y-94662305D01*
X168743400Y-93196095D01*
X168747581Y-93153638D01*
X168758174Y-93118719D01*
X168775376Y-93086537D01*
X168798527Y-93058327D01*
X168826737Y-93035176D01*
X168858919Y-93017974D01*
X168893838Y-93007381D01*
X168936295Y-93003200D01*
X170077505Y-93003200D01*
X170119962Y-93007381D01*
X170119962Y-93007381D01*
G37*
G36*
X155786100Y-94853200D02*
G01*
X151884100Y-94853200D01*
X151884100Y-92751200D01*
X155786100Y-92751200D01*
X155786100Y-94853200D01*
X155786100Y-94853200D01*
G37*
G36*
X159984286Y-91970346D02*
G01*
X160014961Y-91979651D01*
X160043229Y-91994761D01*
X160068006Y-92015094D01*
X160088339Y-92039871D01*
X160103449Y-92068139D01*
X160112754Y-92098814D01*
X160116500Y-92136851D01*
X160116500Y-94248349D01*
X160112754Y-94286386D01*
X160103449Y-94317061D01*
X160088339Y-94345329D01*
X160068006Y-94370106D01*
X160043229Y-94390439D01*
X160014961Y-94405549D01*
X159984286Y-94414854D01*
X159946249Y-94418600D01*
X157934751Y-94418600D01*
X157896714Y-94414854D01*
X157866039Y-94405549D01*
X157837771Y-94390439D01*
X157812994Y-94370106D01*
X157792661Y-94345329D01*
X157777551Y-94317061D01*
X157768246Y-94286386D01*
X157764500Y-94248349D01*
X157764500Y-92136851D01*
X157768246Y-92098814D01*
X157777551Y-92068139D01*
X157792661Y-92039871D01*
X157812994Y-92015094D01*
X157837771Y-91994761D01*
X157866039Y-91979651D01*
X157896714Y-91970346D01*
X157934751Y-91966600D01*
X159946249Y-91966600D01*
X159984286Y-91970346D01*
X159984286Y-91970346D01*
G37*
G36*
X165084286Y-91970346D02*
G01*
X165114961Y-91979651D01*
X165143229Y-91994761D01*
X165168006Y-92015094D01*
X165188339Y-92039871D01*
X165203449Y-92068139D01*
X165212754Y-92098814D01*
X165216500Y-92136851D01*
X165216500Y-94248349D01*
X165212754Y-94286386D01*
X165203449Y-94317061D01*
X165188339Y-94345329D01*
X165168006Y-94370106D01*
X165143229Y-94390439D01*
X165114961Y-94405549D01*
X165084286Y-94414854D01*
X165046249Y-94418600D01*
X163034751Y-94418600D01*
X162996714Y-94414854D01*
X162966039Y-94405549D01*
X162937771Y-94390439D01*
X162912994Y-94370106D01*
X162892661Y-94345329D01*
X162877551Y-94317061D01*
X162868246Y-94286386D01*
X162864500Y-94248349D01*
X162864500Y-92136851D01*
X162868246Y-92098814D01*
X162877551Y-92068139D01*
X162892661Y-92039871D01*
X162912994Y-92015094D01*
X162937771Y-91994761D01*
X162966039Y-91979651D01*
X162996714Y-91970346D01*
X163034751Y-91966600D01*
X165046249Y-91966600D01*
X165084286Y-91970346D01*
X165084286Y-91970346D01*
G37*
G36*
X144723428Y-92097003D02*
G01*
X144878300Y-92161153D01*
X145017681Y-92254285D01*
X145136215Y-92372819D01*
X145229347Y-92512200D01*
X145293497Y-92667072D01*
X145326200Y-92831484D01*
X145326200Y-92999116D01*
X145293497Y-93163528D01*
X145229347Y-93318400D01*
X145136215Y-93457781D01*
X145017681Y-93576315D01*
X144878300Y-93669447D01*
X144723428Y-93733597D01*
X144559016Y-93766300D01*
X144391384Y-93766300D01*
X144226972Y-93733597D01*
X144072100Y-93669447D01*
X143932719Y-93576315D01*
X143814185Y-93457781D01*
X143721053Y-93318400D01*
X143656903Y-93163528D01*
X143624200Y-92999116D01*
X143624200Y-92831484D01*
X143656903Y-92667072D01*
X143721053Y-92512200D01*
X143814185Y-92372819D01*
X143932719Y-92254285D01*
X144072100Y-92161153D01*
X144226972Y-92097003D01*
X144391384Y-92064300D01*
X144559016Y-92064300D01*
X144723428Y-92097003D01*
X144723428Y-92097003D01*
G37*
G36*
X147263428Y-90712003D02*
G01*
X147418300Y-90776153D01*
X147557681Y-90869285D01*
X147676215Y-90987819D01*
X147769347Y-91127200D01*
X147833497Y-91282072D01*
X147866200Y-91446484D01*
X147866200Y-91614116D01*
X147833497Y-91778528D01*
X147769347Y-91933400D01*
X147676215Y-92072781D01*
X147557681Y-92191315D01*
X147418300Y-92284447D01*
X147263428Y-92348597D01*
X147099016Y-92381300D01*
X146931384Y-92381300D01*
X146766972Y-92348597D01*
X146612100Y-92284447D01*
X146472719Y-92191315D01*
X146354185Y-92072781D01*
X146261053Y-91933400D01*
X146196903Y-91778528D01*
X146164200Y-91614116D01*
X146164200Y-91446484D01*
X146196903Y-91282072D01*
X146261053Y-91127200D01*
X146354185Y-90987819D01*
X146472719Y-90869285D01*
X146612100Y-90776153D01*
X146766972Y-90712003D01*
X146931384Y-90679300D01*
X147099016Y-90679300D01*
X147263428Y-90712003D01*
X147263428Y-90712003D01*
G37*
G36*
X144723428Y-89327003D02*
G01*
X144878300Y-89391153D01*
X145017681Y-89484285D01*
X145136215Y-89602819D01*
X145229347Y-89742200D01*
X145293497Y-89897072D01*
X145326200Y-90061484D01*
X145326200Y-90229116D01*
X145293497Y-90393528D01*
X145229347Y-90548400D01*
X145136215Y-90687781D01*
X145017681Y-90806315D01*
X144878300Y-90899447D01*
X144723428Y-90963597D01*
X144559016Y-90996300D01*
X144391384Y-90996300D01*
X144226972Y-90963597D01*
X144072100Y-90899447D01*
X143932719Y-90806315D01*
X143814185Y-90687781D01*
X143721053Y-90548400D01*
X143656903Y-90393528D01*
X143624200Y-90229116D01*
X143624200Y-90061484D01*
X143656903Y-89897072D01*
X143721053Y-89742200D01*
X143814185Y-89602819D01*
X143932719Y-89484285D01*
X144072100Y-89391153D01*
X144226972Y-89327003D01*
X144391384Y-89294300D01*
X144559016Y-89294300D01*
X144723428Y-89327003D01*
X144723428Y-89327003D01*
G37*
G36*
X164905348Y-89260720D02*
G01*
X164905350Y-89260721D01*
X164905351Y-89260721D01*
X165046574Y-89319217D01*
X165046577Y-89319219D01*
X165173669Y-89404139D01*
X165281761Y-89512231D01*
X165347957Y-89611300D01*
X165366683Y-89639326D01*
X165425179Y-89780549D01*
X165425180Y-89780552D01*
X165455000Y-89930469D01*
X165455000Y-90083331D01*
X165426002Y-90229116D01*
X165425179Y-90233251D01*
X165366683Y-90374474D01*
X165366681Y-90374477D01*
X165281761Y-90501569D01*
X165173669Y-90609661D01*
X165056755Y-90687780D01*
X165046574Y-90694583D01*
X164905351Y-90753079D01*
X164905350Y-90753079D01*
X164905348Y-90753080D01*
X164755431Y-90782900D01*
X164602569Y-90782900D01*
X164452652Y-90753080D01*
X164452650Y-90753079D01*
X164452649Y-90753079D01*
X164311426Y-90694583D01*
X164301245Y-90687780D01*
X164184331Y-90609661D01*
X164076239Y-90501569D01*
X163991319Y-90374477D01*
X163991317Y-90374474D01*
X163932821Y-90233251D01*
X163931999Y-90229116D01*
X163903000Y-90083331D01*
X163903000Y-89930469D01*
X163932820Y-89780552D01*
X163932821Y-89780549D01*
X163991317Y-89639326D01*
X164010043Y-89611300D01*
X164076239Y-89512231D01*
X164184331Y-89404139D01*
X164311423Y-89319219D01*
X164311426Y-89319217D01*
X164452649Y-89260721D01*
X164452650Y-89260721D01*
X164452652Y-89260720D01*
X164602569Y-89230900D01*
X164755431Y-89230900D01*
X164905348Y-89260720D01*
X164905348Y-89260720D01*
G37*
G36*
X159905348Y-89260720D02*
G01*
X159905350Y-89260721D01*
X159905351Y-89260721D01*
X160046574Y-89319217D01*
X160046577Y-89319219D01*
X160173669Y-89404139D01*
X160281761Y-89512231D01*
X160347957Y-89611300D01*
X160366683Y-89639326D01*
X160425179Y-89780549D01*
X160425180Y-89780552D01*
X160455000Y-89930469D01*
X160455000Y-90083331D01*
X160426002Y-90229116D01*
X160425179Y-90233251D01*
X160366683Y-90374474D01*
X160366681Y-90374477D01*
X160281761Y-90501569D01*
X160173669Y-90609661D01*
X160056755Y-90687780D01*
X160046574Y-90694583D01*
X159905351Y-90753079D01*
X159905350Y-90753079D01*
X159905348Y-90753080D01*
X159755431Y-90782900D01*
X159602569Y-90782900D01*
X159452652Y-90753080D01*
X159452650Y-90753079D01*
X159452649Y-90753079D01*
X159311426Y-90694583D01*
X159301245Y-90687780D01*
X159184331Y-90609661D01*
X159076239Y-90501569D01*
X158991319Y-90374477D01*
X158991317Y-90374474D01*
X158932821Y-90233251D01*
X158931999Y-90229116D01*
X158903000Y-90083331D01*
X158903000Y-89930469D01*
X158932820Y-89780552D01*
X158932821Y-89780549D01*
X158991317Y-89639326D01*
X159010043Y-89611300D01*
X159076239Y-89512231D01*
X159184331Y-89404139D01*
X159311423Y-89319219D01*
X159311426Y-89319217D01*
X159452649Y-89260721D01*
X159452650Y-89260721D01*
X159452652Y-89260720D01*
X159602569Y-89230900D01*
X159755431Y-89230900D01*
X159905348Y-89260720D01*
X159905348Y-89260720D01*
G37*
G36*
X147866200Y-89611300D02*
G01*
X146164200Y-89611300D01*
X146164200Y-87909300D01*
X147866200Y-87909300D01*
X147866200Y-89611300D01*
X147866200Y-89611300D01*
G37*
G36*
X152336100Y-88553200D02*
G01*
X150734100Y-88553200D01*
X150734100Y-86451200D01*
X152336100Y-86451200D01*
X152336100Y-88553200D01*
X152336100Y-88553200D01*
G37*
G36*
X154636100Y-88553200D02*
G01*
X153034100Y-88553200D01*
X153034100Y-86451200D01*
X154636100Y-86451200D01*
X154636100Y-88553200D01*
X154636100Y-88553200D01*
G37*
G36*
X156936100Y-88553200D02*
G01*
X155334100Y-88553200D01*
X155334100Y-86451200D01*
X156936100Y-86451200D01*
X156936100Y-88553200D01*
X156936100Y-88553200D01*
G37*
G36*
X158806618Y-86315320D02*
G01*
X158897404Y-86342860D01*
X158929336Y-86352546D01*
X159042425Y-86412994D01*
X159141554Y-86494346D01*
X159222906Y-86593475D01*
X159283354Y-86706564D01*
X159293040Y-86738496D01*
X159320580Y-86829282D01*
X159330000Y-86924927D01*
X159330000Y-87688873D01*
X159320580Y-87784518D01*
X159293040Y-87875304D01*
X159283354Y-87907236D01*
X159222906Y-88020325D01*
X159141554Y-88119453D01*
X159042424Y-88200806D01*
X158929335Y-88261254D01*
X158897403Y-88270940D01*
X158806617Y-88298480D01*
X158679000Y-88311049D01*
X158551382Y-88298480D01*
X158460596Y-88270940D01*
X158428664Y-88261254D01*
X158315575Y-88200806D01*
X158216447Y-88119454D01*
X158135094Y-88020324D01*
X158074646Y-87907235D01*
X158064960Y-87875303D01*
X158037420Y-87784517D01*
X158028000Y-87688872D01*
X158028000Y-86924927D01*
X158037420Y-86829282D01*
X158074645Y-86706568D01*
X158099608Y-86659866D01*
X158135095Y-86593475D01*
X158216447Y-86494346D01*
X158315576Y-86412994D01*
X158428665Y-86352546D01*
X158460597Y-86342860D01*
X158551383Y-86315320D01*
X158679000Y-86302751D01*
X158806618Y-86315320D01*
X158806618Y-86315320D01*
G37*
G36*
X165806617Y-86315320D02*
G01*
X165897403Y-86342860D01*
X165929335Y-86352546D01*
X166042424Y-86412994D01*
X166141554Y-86494347D01*
X166222906Y-86593475D01*
X166283354Y-86706564D01*
X166293040Y-86738496D01*
X166320580Y-86829282D01*
X166330000Y-86924927D01*
X166330000Y-87688873D01*
X166320580Y-87784518D01*
X166293040Y-87875304D01*
X166283354Y-87907236D01*
X166222906Y-88020325D01*
X166141554Y-88119454D01*
X166042425Y-88200806D01*
X165929336Y-88261254D01*
X165897404Y-88270940D01*
X165806618Y-88298480D01*
X165679000Y-88311049D01*
X165551383Y-88298480D01*
X165460597Y-88270940D01*
X165428665Y-88261254D01*
X165315576Y-88200806D01*
X165216447Y-88119454D01*
X165135095Y-88020325D01*
X165099608Y-87953934D01*
X165074645Y-87907232D01*
X165037420Y-87784518D01*
X165028000Y-87688873D01*
X165028000Y-86924928D01*
X165037420Y-86829283D01*
X165074645Y-86706569D01*
X165074646Y-86706565D01*
X165135094Y-86593476D01*
X165216447Y-86494346D01*
X165315575Y-86412994D01*
X165428664Y-86352546D01*
X165460596Y-86342860D01*
X165551382Y-86315320D01*
X165679000Y-86302751D01*
X165806617Y-86315320D01*
X165806617Y-86315320D01*
G37*
G36*
X145941417Y-80206965D02*
G01*
X146212195Y-80260825D01*
X146503558Y-80381512D01*
X146765778Y-80556722D01*
X146988778Y-80779722D01*
X147163988Y-81041942D01*
X147284675Y-81333305D01*
X147346200Y-81642615D01*
X147346200Y-81957985D01*
X147284675Y-82267295D01*
X147163988Y-82558658D01*
X146988778Y-82820878D01*
X146765778Y-83043878D01*
X146503558Y-83219088D01*
X146212195Y-83339775D01*
X145941417Y-83393635D01*
X145902886Y-83401300D01*
X145587514Y-83401300D01*
X145548983Y-83393635D01*
X145278205Y-83339775D01*
X144986842Y-83219088D01*
X144724622Y-83043878D01*
X144501622Y-82820878D01*
X144326412Y-82558658D01*
X144205725Y-82267295D01*
X144144200Y-81957985D01*
X144144200Y-81642615D01*
X144205725Y-81333305D01*
X144326412Y-81041942D01*
X144501622Y-80779722D01*
X144724622Y-80556722D01*
X144986842Y-80381512D01*
X145278205Y-80260825D01*
X145548983Y-80206965D01*
X145587514Y-80199300D01*
X145902886Y-80199300D01*
X145941417Y-80206965D01*
X145941417Y-80206965D01*
G37*
M02*
