G04 #@! TF.GenerationSoftware,KiCad,Pcbnew,(5.1.4-0-10_14)*
G04 #@! TF.CreationDate,2020-06-27T12:48:12+01:00*
G04 #@! TF.ProjectId,Informer207,496e666f-726d-4657-9232-30372e6b6963,rev?*
G04 #@! TF.SameCoordinates,Original*
G04 #@! TF.FileFunction,Soldermask,Bot*
G04 #@! TF.FilePolarity,Negative*
%FSLAX46Y46*%
G04 Gerber Fmt 4.6, Leading zero omitted, Abs format (unit mm)*
G04 Created by KiCad (PCBNEW (5.1.4-0-10_14)) date 2020-06-27 12:48:12*
%MOMM*%
%LPD*%
G04 APERTURE LIST*
%ADD10C,0.100000*%
G04 APERTURE END LIST*
D10*
G36*
X145941417Y-127246965D02*
G01*
X146212195Y-127300825D01*
X146503558Y-127421512D01*
X146765778Y-127596722D01*
X146988778Y-127819722D01*
X147163988Y-128081942D01*
X147284675Y-128373305D01*
X147346200Y-128682615D01*
X147346200Y-128997985D01*
X147284675Y-129307295D01*
X147163988Y-129598658D01*
X146988778Y-129860878D01*
X146765778Y-130083878D01*
X146503558Y-130259088D01*
X146212195Y-130379775D01*
X145941417Y-130433635D01*
X145902886Y-130441300D01*
X145587514Y-130441300D01*
X145548983Y-130433635D01*
X145278205Y-130379775D01*
X144986842Y-130259088D01*
X144724622Y-130083878D01*
X144501622Y-129860878D01*
X144326412Y-129598658D01*
X144205725Y-129307295D01*
X144144200Y-128997985D01*
X144144200Y-128682615D01*
X144205725Y-128373305D01*
X144326412Y-128081942D01*
X144501622Y-127819722D01*
X144724622Y-127596722D01*
X144986842Y-127421512D01*
X145278205Y-127300825D01*
X145548983Y-127246965D01*
X145587514Y-127239300D01*
X145902886Y-127239300D01*
X145941417Y-127246965D01*
X145941417Y-127246965D01*
G37*
G36*
X166255000Y-124218000D02*
G01*
X164453000Y-124218000D01*
X164453000Y-122416000D01*
X166255000Y-122416000D01*
X166255000Y-124218000D01*
X166255000Y-124218000D01*
G37*
G36*
X162924442Y-122422518D02*
G01*
X162990627Y-122429037D01*
X163160466Y-122480557D01*
X163316991Y-122564222D01*
X163352729Y-122593552D01*
X163454186Y-122676814D01*
X163537448Y-122778271D01*
X163566778Y-122814009D01*
X163650443Y-122970534D01*
X163701963Y-123140373D01*
X163719359Y-123317000D01*
X163701963Y-123493627D01*
X163650443Y-123663466D01*
X163566778Y-123819991D01*
X163537448Y-123855729D01*
X163454186Y-123957186D01*
X163352729Y-124040448D01*
X163316991Y-124069778D01*
X163160466Y-124153443D01*
X162990627Y-124204963D01*
X162924442Y-124211482D01*
X162858260Y-124218000D01*
X162769740Y-124218000D01*
X162703558Y-124211482D01*
X162637373Y-124204963D01*
X162467534Y-124153443D01*
X162311009Y-124069778D01*
X162275271Y-124040448D01*
X162173814Y-123957186D01*
X162090552Y-123855729D01*
X162061222Y-123819991D01*
X161977557Y-123663466D01*
X161926037Y-123493627D01*
X161908641Y-123317000D01*
X161926037Y-123140373D01*
X161977557Y-122970534D01*
X162061222Y-122814009D01*
X162090552Y-122778271D01*
X162173814Y-122676814D01*
X162275271Y-122593552D01*
X162311009Y-122564222D01*
X162467534Y-122480557D01*
X162637373Y-122429037D01*
X162703558Y-122422518D01*
X162769740Y-122416000D01*
X162858260Y-122416000D01*
X162924442Y-122422518D01*
X162924442Y-122422518D01*
G37*
G36*
X160384442Y-122422518D02*
G01*
X160450627Y-122429037D01*
X160620466Y-122480557D01*
X160776991Y-122564222D01*
X160812729Y-122593552D01*
X160914186Y-122676814D01*
X160997448Y-122778271D01*
X161026778Y-122814009D01*
X161110443Y-122970534D01*
X161161963Y-123140373D01*
X161179359Y-123317000D01*
X161161963Y-123493627D01*
X161110443Y-123663466D01*
X161026778Y-123819991D01*
X160997448Y-123855729D01*
X160914186Y-123957186D01*
X160812729Y-124040448D01*
X160776991Y-124069778D01*
X160620466Y-124153443D01*
X160450627Y-124204963D01*
X160384442Y-124211482D01*
X160318260Y-124218000D01*
X160229740Y-124218000D01*
X160163558Y-124211482D01*
X160097373Y-124204963D01*
X159927534Y-124153443D01*
X159771009Y-124069778D01*
X159735271Y-124040448D01*
X159633814Y-123957186D01*
X159550552Y-123855729D01*
X159521222Y-123819991D01*
X159437557Y-123663466D01*
X159386037Y-123493627D01*
X159368641Y-123317000D01*
X159386037Y-123140373D01*
X159437557Y-122970534D01*
X159521222Y-122814009D01*
X159550552Y-122778271D01*
X159633814Y-122676814D01*
X159735271Y-122593552D01*
X159771009Y-122564222D01*
X159927534Y-122480557D01*
X160097373Y-122429037D01*
X160163558Y-122422518D01*
X160229740Y-122416000D01*
X160318260Y-122416000D01*
X160384442Y-122422518D01*
X160384442Y-122422518D01*
G37*
G36*
X157844442Y-122422518D02*
G01*
X157910627Y-122429037D01*
X158080466Y-122480557D01*
X158236991Y-122564222D01*
X158272729Y-122593552D01*
X158374186Y-122676814D01*
X158457448Y-122778271D01*
X158486778Y-122814009D01*
X158570443Y-122970534D01*
X158621963Y-123140373D01*
X158639359Y-123317000D01*
X158621963Y-123493627D01*
X158570443Y-123663466D01*
X158486778Y-123819991D01*
X158457448Y-123855729D01*
X158374186Y-123957186D01*
X158272729Y-124040448D01*
X158236991Y-124069778D01*
X158080466Y-124153443D01*
X157910627Y-124204963D01*
X157844442Y-124211482D01*
X157778260Y-124218000D01*
X157689740Y-124218000D01*
X157623558Y-124211482D01*
X157557373Y-124204963D01*
X157387534Y-124153443D01*
X157231009Y-124069778D01*
X157195271Y-124040448D01*
X157093814Y-123957186D01*
X157010552Y-123855729D01*
X156981222Y-123819991D01*
X156897557Y-123663466D01*
X156846037Y-123493627D01*
X156828641Y-123317000D01*
X156846037Y-123140373D01*
X156897557Y-122970534D01*
X156981222Y-122814009D01*
X157010552Y-122778271D01*
X157093814Y-122676814D01*
X157195271Y-122593552D01*
X157231009Y-122564222D01*
X157387534Y-122480557D01*
X157557373Y-122429037D01*
X157623558Y-122422518D01*
X157689740Y-122416000D01*
X157778260Y-122416000D01*
X157844442Y-122422518D01*
X157844442Y-122422518D01*
G37*
G36*
X155304442Y-122422518D02*
G01*
X155370627Y-122429037D01*
X155540466Y-122480557D01*
X155696991Y-122564222D01*
X155732729Y-122593552D01*
X155834186Y-122676814D01*
X155917448Y-122778271D01*
X155946778Y-122814009D01*
X156030443Y-122970534D01*
X156081963Y-123140373D01*
X156099359Y-123317000D01*
X156081963Y-123493627D01*
X156030443Y-123663466D01*
X155946778Y-123819991D01*
X155917448Y-123855729D01*
X155834186Y-123957186D01*
X155732729Y-124040448D01*
X155696991Y-124069778D01*
X155540466Y-124153443D01*
X155370627Y-124204963D01*
X155304442Y-124211482D01*
X155238260Y-124218000D01*
X155149740Y-124218000D01*
X155083558Y-124211482D01*
X155017373Y-124204963D01*
X154847534Y-124153443D01*
X154691009Y-124069778D01*
X154655271Y-124040448D01*
X154553814Y-123957186D01*
X154470552Y-123855729D01*
X154441222Y-123819991D01*
X154357557Y-123663466D01*
X154306037Y-123493627D01*
X154288641Y-123317000D01*
X154306037Y-123140373D01*
X154357557Y-122970534D01*
X154441222Y-122814009D01*
X154470552Y-122778271D01*
X154553814Y-122676814D01*
X154655271Y-122593552D01*
X154691009Y-122564222D01*
X154847534Y-122480557D01*
X155017373Y-122429037D01*
X155083558Y-122422518D01*
X155149740Y-122416000D01*
X155238260Y-122416000D01*
X155304442Y-122422518D01*
X155304442Y-122422518D01*
G37*
G36*
X152764442Y-122422518D02*
G01*
X152830627Y-122429037D01*
X153000466Y-122480557D01*
X153156991Y-122564222D01*
X153192729Y-122593552D01*
X153294186Y-122676814D01*
X153377448Y-122778271D01*
X153406778Y-122814009D01*
X153490443Y-122970534D01*
X153541963Y-123140373D01*
X153559359Y-123317000D01*
X153541963Y-123493627D01*
X153490443Y-123663466D01*
X153406778Y-123819991D01*
X153377448Y-123855729D01*
X153294186Y-123957186D01*
X153192729Y-124040448D01*
X153156991Y-124069778D01*
X153000466Y-124153443D01*
X152830627Y-124204963D01*
X152764442Y-124211482D01*
X152698260Y-124218000D01*
X152609740Y-124218000D01*
X152543558Y-124211482D01*
X152477373Y-124204963D01*
X152307534Y-124153443D01*
X152151009Y-124069778D01*
X152115271Y-124040448D01*
X152013814Y-123957186D01*
X151930552Y-123855729D01*
X151901222Y-123819991D01*
X151817557Y-123663466D01*
X151766037Y-123493627D01*
X151748641Y-123317000D01*
X151766037Y-123140373D01*
X151817557Y-122970534D01*
X151901222Y-122814009D01*
X151930552Y-122778271D01*
X152013814Y-122676814D01*
X152115271Y-122593552D01*
X152151009Y-122564222D01*
X152307534Y-122480557D01*
X152477373Y-122429037D01*
X152543558Y-122422518D01*
X152609740Y-122416000D01*
X152698260Y-122416000D01*
X152764442Y-122422518D01*
X152764442Y-122422518D01*
G37*
G36*
X147263428Y-121182003D02*
G01*
X147418300Y-121246153D01*
X147557681Y-121339285D01*
X147676215Y-121457819D01*
X147769347Y-121597200D01*
X147833497Y-121752072D01*
X147866200Y-121916484D01*
X147866200Y-122084116D01*
X147833497Y-122248528D01*
X147769347Y-122403400D01*
X147676215Y-122542781D01*
X147557681Y-122661315D01*
X147418300Y-122754447D01*
X147263428Y-122818597D01*
X147099016Y-122851300D01*
X146931384Y-122851300D01*
X146766972Y-122818597D01*
X146612100Y-122754447D01*
X146472719Y-122661315D01*
X146354185Y-122542781D01*
X146261053Y-122403400D01*
X146196903Y-122248528D01*
X146164200Y-122084116D01*
X146164200Y-121916484D01*
X146196903Y-121752072D01*
X146261053Y-121597200D01*
X146354185Y-121457819D01*
X146472719Y-121339285D01*
X146612100Y-121246153D01*
X146766972Y-121182003D01*
X146931384Y-121149300D01*
X147099016Y-121149300D01*
X147263428Y-121182003D01*
X147263428Y-121182003D01*
G37*
G36*
X144723428Y-119797003D02*
G01*
X144878300Y-119861153D01*
X145017681Y-119954285D01*
X145136215Y-120072819D01*
X145229347Y-120212200D01*
X145293497Y-120367072D01*
X145326200Y-120531484D01*
X145326200Y-120699116D01*
X145293497Y-120863528D01*
X145229347Y-121018400D01*
X145136215Y-121157781D01*
X145017681Y-121276315D01*
X144878300Y-121369447D01*
X144723428Y-121433597D01*
X144559016Y-121466300D01*
X144391384Y-121466300D01*
X144226972Y-121433597D01*
X144072100Y-121369447D01*
X143932719Y-121276315D01*
X143814185Y-121157781D01*
X143721053Y-121018400D01*
X143656903Y-120863528D01*
X143624200Y-120699116D01*
X143624200Y-120531484D01*
X143656903Y-120367072D01*
X143721053Y-120212200D01*
X143814185Y-120072819D01*
X143932719Y-119954285D01*
X144072100Y-119861153D01*
X144226972Y-119797003D01*
X144391384Y-119764300D01*
X144559016Y-119764300D01*
X144723428Y-119797003D01*
X144723428Y-119797003D01*
G37*
G36*
X147263428Y-118412003D02*
G01*
X147418300Y-118476153D01*
X147557681Y-118569285D01*
X147676215Y-118687819D01*
X147769347Y-118827200D01*
X147833497Y-118982072D01*
X147866200Y-119146484D01*
X147866200Y-119314116D01*
X147833497Y-119478528D01*
X147769347Y-119633400D01*
X147676215Y-119772781D01*
X147557681Y-119891315D01*
X147418300Y-119984447D01*
X147263428Y-120048597D01*
X147099016Y-120081300D01*
X146931384Y-120081300D01*
X146766972Y-120048597D01*
X146612100Y-119984447D01*
X146472719Y-119891315D01*
X146354185Y-119772781D01*
X146261053Y-119633400D01*
X146196903Y-119478528D01*
X146164200Y-119314116D01*
X146164200Y-119146484D01*
X146196903Y-118982072D01*
X146261053Y-118827200D01*
X146354185Y-118687819D01*
X146472719Y-118569285D01*
X146612100Y-118476153D01*
X146766972Y-118412003D01*
X146931384Y-118379300D01*
X147099016Y-118379300D01*
X147263428Y-118412003D01*
X147263428Y-118412003D01*
G37*
G36*
X144723428Y-117027003D02*
G01*
X144878300Y-117091153D01*
X145017681Y-117184285D01*
X145136215Y-117302819D01*
X145229347Y-117442200D01*
X145293497Y-117597072D01*
X145326200Y-117761484D01*
X145326200Y-117929116D01*
X145293497Y-118093528D01*
X145229347Y-118248400D01*
X145136215Y-118387781D01*
X145017681Y-118506315D01*
X144878300Y-118599447D01*
X144723428Y-118663597D01*
X144559016Y-118696300D01*
X144391384Y-118696300D01*
X144226972Y-118663597D01*
X144072100Y-118599447D01*
X143932719Y-118506315D01*
X143814185Y-118387781D01*
X143721053Y-118248400D01*
X143656903Y-118093528D01*
X143624200Y-117929116D01*
X143624200Y-117761484D01*
X143656903Y-117597072D01*
X143721053Y-117442200D01*
X143814185Y-117302819D01*
X143932719Y-117184285D01*
X144072100Y-117091153D01*
X144226972Y-117027003D01*
X144391384Y-116994300D01*
X144559016Y-116994300D01*
X144723428Y-117027003D01*
X144723428Y-117027003D01*
G37*
G36*
X168999800Y-118149000D02*
G01*
X167397800Y-118149000D01*
X167397800Y-116547000D01*
X168999800Y-116547000D01*
X168999800Y-118149000D01*
X168999800Y-118149000D01*
G37*
G36*
X161199800Y-118149000D02*
G01*
X159597800Y-118149000D01*
X159597800Y-116547000D01*
X161199800Y-116547000D01*
X161199800Y-118149000D01*
X161199800Y-118149000D01*
G37*
G36*
X147263428Y-115642003D02*
G01*
X147418300Y-115706153D01*
X147557681Y-115799285D01*
X147676215Y-115917819D01*
X147769347Y-116057200D01*
X147833497Y-116212072D01*
X147866200Y-116376484D01*
X147866200Y-116544116D01*
X147833497Y-116708528D01*
X147769347Y-116863400D01*
X147676215Y-117002781D01*
X147557681Y-117121315D01*
X147418300Y-117214447D01*
X147263428Y-117278597D01*
X147099016Y-117311300D01*
X146931384Y-117311300D01*
X146766972Y-117278597D01*
X146612100Y-117214447D01*
X146472719Y-117121315D01*
X146354185Y-117002781D01*
X146261053Y-116863400D01*
X146196903Y-116708528D01*
X146164200Y-116544116D01*
X146164200Y-116376484D01*
X146196903Y-116212072D01*
X146261053Y-116057200D01*
X146354185Y-115917819D01*
X146472719Y-115799285D01*
X146612100Y-115706153D01*
X146766972Y-115642003D01*
X146931384Y-115609300D01*
X147099016Y-115609300D01*
X147263428Y-115642003D01*
X147263428Y-115642003D01*
G37*
G36*
X144723428Y-114257003D02*
G01*
X144878300Y-114321153D01*
X145017681Y-114414285D01*
X145136215Y-114532819D01*
X145229347Y-114672200D01*
X145293497Y-114827072D01*
X145326200Y-114991484D01*
X145326200Y-115159116D01*
X145293497Y-115323528D01*
X145229347Y-115478400D01*
X145136215Y-115617781D01*
X145017681Y-115736315D01*
X144878300Y-115829447D01*
X144723428Y-115893597D01*
X144559016Y-115926300D01*
X144391384Y-115926300D01*
X144226972Y-115893597D01*
X144072100Y-115829447D01*
X143932719Y-115736315D01*
X143814185Y-115617781D01*
X143721053Y-115478400D01*
X143656903Y-115323528D01*
X143624200Y-115159116D01*
X143624200Y-114991484D01*
X143656903Y-114827072D01*
X143721053Y-114672200D01*
X143814185Y-114532819D01*
X143932719Y-114414285D01*
X144072100Y-114321153D01*
X144226972Y-114257003D01*
X144391384Y-114224300D01*
X144559016Y-114224300D01*
X144723428Y-114257003D01*
X144723428Y-114257003D01*
G37*
G36*
X147263428Y-112872003D02*
G01*
X147418300Y-112936153D01*
X147557681Y-113029285D01*
X147676215Y-113147819D01*
X147769347Y-113287200D01*
X147833497Y-113442072D01*
X147866200Y-113606484D01*
X147866200Y-113774116D01*
X147833497Y-113938528D01*
X147769347Y-114093400D01*
X147676215Y-114232781D01*
X147557681Y-114351315D01*
X147418300Y-114444447D01*
X147263428Y-114508597D01*
X147099016Y-114541300D01*
X146931384Y-114541300D01*
X146766972Y-114508597D01*
X146612100Y-114444447D01*
X146472719Y-114351315D01*
X146354185Y-114232781D01*
X146261053Y-114093400D01*
X146196903Y-113938528D01*
X146164200Y-113774116D01*
X146164200Y-113606484D01*
X146196903Y-113442072D01*
X146261053Y-113287200D01*
X146354185Y-113147819D01*
X146472719Y-113029285D01*
X146612100Y-112936153D01*
X146766972Y-112872003D01*
X146931384Y-112839300D01*
X147099016Y-112839300D01*
X147263428Y-112872003D01*
X147263428Y-112872003D01*
G37*
G36*
X154714862Y-111676381D02*
G01*
X154749781Y-111686974D01*
X154781963Y-111704176D01*
X154810173Y-111727327D01*
X154833324Y-111755537D01*
X154850526Y-111787719D01*
X154861119Y-111822638D01*
X154865300Y-111865095D01*
X154865300Y-113331305D01*
X154861119Y-113373762D01*
X154850526Y-113408681D01*
X154833324Y-113440863D01*
X154810173Y-113469073D01*
X154781963Y-113492224D01*
X154749781Y-113509426D01*
X154714862Y-113520019D01*
X154672405Y-113524200D01*
X153531195Y-113524200D01*
X153488738Y-113520019D01*
X153453819Y-113509426D01*
X153421637Y-113492224D01*
X153393427Y-113469073D01*
X153370276Y-113440863D01*
X153353074Y-113408681D01*
X153342481Y-113373762D01*
X153338300Y-113331305D01*
X153338300Y-111865095D01*
X153342481Y-111822638D01*
X153353074Y-111787719D01*
X153370276Y-111755537D01*
X153393427Y-111727327D01*
X153421637Y-111704176D01*
X153453819Y-111686974D01*
X153488738Y-111676381D01*
X153531195Y-111672200D01*
X154672405Y-111672200D01*
X154714862Y-111676381D01*
X154714862Y-111676381D01*
G37*
G36*
X157689862Y-111676381D02*
G01*
X157724781Y-111686974D01*
X157756963Y-111704176D01*
X157785173Y-111727327D01*
X157808324Y-111755537D01*
X157825526Y-111787719D01*
X157836119Y-111822638D01*
X157840300Y-111865095D01*
X157840300Y-113331305D01*
X157836119Y-113373762D01*
X157825526Y-113408681D01*
X157808324Y-113440863D01*
X157785173Y-113469073D01*
X157756963Y-113492224D01*
X157724781Y-113509426D01*
X157689862Y-113520019D01*
X157647405Y-113524200D01*
X156506195Y-113524200D01*
X156463738Y-113520019D01*
X156428819Y-113509426D01*
X156396637Y-113492224D01*
X156368427Y-113469073D01*
X156345276Y-113440863D01*
X156328074Y-113408681D01*
X156317481Y-113373762D01*
X156313300Y-113331305D01*
X156313300Y-111865095D01*
X156317481Y-111822638D01*
X156328074Y-111787719D01*
X156345276Y-111755537D01*
X156368427Y-111727327D01*
X156396637Y-111704176D01*
X156428819Y-111686974D01*
X156463738Y-111676381D01*
X156506195Y-111672200D01*
X157647405Y-111672200D01*
X157689862Y-111676381D01*
X157689862Y-111676381D01*
G37*
G36*
X144723428Y-111487003D02*
G01*
X144878300Y-111551153D01*
X145017681Y-111644285D01*
X145136215Y-111762819D01*
X145229347Y-111902200D01*
X145293497Y-112057072D01*
X145326200Y-112221484D01*
X145326200Y-112389116D01*
X145293497Y-112553528D01*
X145229347Y-112708400D01*
X145136215Y-112847781D01*
X145017681Y-112966315D01*
X144878300Y-113059447D01*
X144723428Y-113123597D01*
X144559016Y-113156300D01*
X144391384Y-113156300D01*
X144226972Y-113123597D01*
X144072100Y-113059447D01*
X143932719Y-112966315D01*
X143814185Y-112847781D01*
X143721053Y-112708400D01*
X143656903Y-112553528D01*
X143624200Y-112389116D01*
X143624200Y-112221484D01*
X143656903Y-112057072D01*
X143721053Y-111902200D01*
X143814185Y-111762819D01*
X143932719Y-111644285D01*
X144072100Y-111551153D01*
X144226972Y-111487003D01*
X144391384Y-111454300D01*
X144559016Y-111454300D01*
X144723428Y-111487003D01*
X144723428Y-111487003D01*
G37*
G36*
X147263428Y-110102003D02*
G01*
X147418300Y-110166153D01*
X147557681Y-110259285D01*
X147676215Y-110377819D01*
X147769347Y-110517200D01*
X147833497Y-110672072D01*
X147866200Y-110836484D01*
X147866200Y-111004116D01*
X147833497Y-111168528D01*
X147769347Y-111323400D01*
X147676215Y-111462781D01*
X147557681Y-111581315D01*
X147418300Y-111674447D01*
X147263428Y-111738597D01*
X147099016Y-111771300D01*
X146931384Y-111771300D01*
X146766972Y-111738597D01*
X146612100Y-111674447D01*
X146472719Y-111581315D01*
X146354185Y-111462781D01*
X146261053Y-111323400D01*
X146196903Y-111168528D01*
X146164200Y-111004116D01*
X146164200Y-110836484D01*
X146196903Y-110672072D01*
X146261053Y-110517200D01*
X146354185Y-110377819D01*
X146472719Y-110259285D01*
X146612100Y-110166153D01*
X146766972Y-110102003D01*
X146931384Y-110069300D01*
X147099016Y-110069300D01*
X147263428Y-110102003D01*
X147263428Y-110102003D01*
G37*
G36*
X154112929Y-108975665D02*
G01*
X154134010Y-108982061D01*
X154153446Y-108992449D01*
X154170477Y-109006425D01*
X154184453Y-109023456D01*
X154194841Y-109042892D01*
X154201237Y-109063973D01*
X154204001Y-109092041D01*
X154204001Y-110905761D01*
X154201237Y-110933829D01*
X154194841Y-110954910D01*
X154184453Y-110974346D01*
X154170477Y-110991377D01*
X154153446Y-111005353D01*
X154134010Y-111015741D01*
X154112929Y-111022137D01*
X154084861Y-111024901D01*
X153621141Y-111024901D01*
X153593073Y-111022137D01*
X153571992Y-111015741D01*
X153552556Y-111005353D01*
X153535525Y-110991377D01*
X153521549Y-110974346D01*
X153511161Y-110954910D01*
X153504765Y-110933829D01*
X153502001Y-110905761D01*
X153502001Y-109092041D01*
X153504765Y-109063973D01*
X153511161Y-109042892D01*
X153521549Y-109023456D01*
X153535525Y-109006425D01*
X153552556Y-108992449D01*
X153571992Y-108982061D01*
X153593073Y-108975665D01*
X153621141Y-108972901D01*
X154084861Y-108972901D01*
X154112929Y-108975665D01*
X154112929Y-108975665D01*
G37*
G36*
X155382929Y-108975665D02*
G01*
X155404010Y-108982061D01*
X155423446Y-108992449D01*
X155440477Y-109006425D01*
X155454453Y-109023456D01*
X155464841Y-109042892D01*
X155471237Y-109063973D01*
X155474001Y-109092041D01*
X155474001Y-110905761D01*
X155471237Y-110933829D01*
X155464841Y-110954910D01*
X155454453Y-110974346D01*
X155440477Y-110991377D01*
X155423446Y-111005353D01*
X155404010Y-111015741D01*
X155382929Y-111022137D01*
X155354861Y-111024901D01*
X154891141Y-111024901D01*
X154863073Y-111022137D01*
X154841992Y-111015741D01*
X154822556Y-111005353D01*
X154805525Y-110991377D01*
X154791549Y-110974346D01*
X154781161Y-110954910D01*
X154774765Y-110933829D01*
X154772001Y-110905761D01*
X154772001Y-109092041D01*
X154774765Y-109063973D01*
X154781161Y-109042892D01*
X154791549Y-109023456D01*
X154805525Y-109006425D01*
X154822556Y-108992449D01*
X154841992Y-108982061D01*
X154863073Y-108975665D01*
X154891141Y-108972901D01*
X155354861Y-108972901D01*
X155382929Y-108975665D01*
X155382929Y-108975665D01*
G37*
G36*
X156652929Y-108975665D02*
G01*
X156674010Y-108982061D01*
X156693446Y-108992449D01*
X156710477Y-109006425D01*
X156724453Y-109023456D01*
X156734841Y-109042892D01*
X156741237Y-109063973D01*
X156744001Y-109092041D01*
X156744001Y-110905761D01*
X156741237Y-110933829D01*
X156734841Y-110954910D01*
X156724453Y-110974346D01*
X156710477Y-110991377D01*
X156693446Y-111005353D01*
X156674010Y-111015741D01*
X156652929Y-111022137D01*
X156624861Y-111024901D01*
X156161141Y-111024901D01*
X156133073Y-111022137D01*
X156111992Y-111015741D01*
X156092556Y-111005353D01*
X156075525Y-110991377D01*
X156061549Y-110974346D01*
X156051161Y-110954910D01*
X156044765Y-110933829D01*
X156042001Y-110905761D01*
X156042001Y-109092041D01*
X156044765Y-109063973D01*
X156051161Y-109042892D01*
X156061549Y-109023456D01*
X156075525Y-109006425D01*
X156092556Y-108992449D01*
X156111992Y-108982061D01*
X156133073Y-108975665D01*
X156161141Y-108972901D01*
X156624861Y-108972901D01*
X156652929Y-108975665D01*
X156652929Y-108975665D01*
G37*
G36*
X157922929Y-108975665D02*
G01*
X157944010Y-108982061D01*
X157963446Y-108992449D01*
X157980477Y-109006425D01*
X157994453Y-109023456D01*
X158004841Y-109042892D01*
X158011237Y-109063973D01*
X158014001Y-109092041D01*
X158014001Y-110905761D01*
X158011237Y-110933829D01*
X158004841Y-110954910D01*
X157994453Y-110974346D01*
X157980477Y-110991377D01*
X157963446Y-111005353D01*
X157944010Y-111015741D01*
X157922929Y-111022137D01*
X157894861Y-111024901D01*
X157431141Y-111024901D01*
X157403073Y-111022137D01*
X157381992Y-111015741D01*
X157362556Y-111005353D01*
X157345525Y-110991377D01*
X157331549Y-110974346D01*
X157321161Y-110954910D01*
X157314765Y-110933829D01*
X157312001Y-110905761D01*
X157312001Y-109092041D01*
X157314765Y-109063973D01*
X157321161Y-109042892D01*
X157331549Y-109023456D01*
X157345525Y-109006425D01*
X157362556Y-108992449D01*
X157381992Y-108982061D01*
X157403073Y-108975665D01*
X157431141Y-108972901D01*
X157894861Y-108972901D01*
X157922929Y-108975665D01*
X157922929Y-108975665D01*
G37*
G36*
X159192929Y-108975665D02*
G01*
X159214010Y-108982061D01*
X159233446Y-108992449D01*
X159250477Y-109006425D01*
X159264453Y-109023456D01*
X159274841Y-109042892D01*
X159281237Y-109063973D01*
X159284001Y-109092041D01*
X159284001Y-110905761D01*
X159281237Y-110933829D01*
X159274841Y-110954910D01*
X159264453Y-110974346D01*
X159250477Y-110991377D01*
X159233446Y-111005353D01*
X159214010Y-111015741D01*
X159192929Y-111022137D01*
X159164861Y-111024901D01*
X158701141Y-111024901D01*
X158673073Y-111022137D01*
X158651992Y-111015741D01*
X158632556Y-111005353D01*
X158615525Y-110991377D01*
X158601549Y-110974346D01*
X158591161Y-110954910D01*
X158584765Y-110933829D01*
X158582001Y-110905761D01*
X158582001Y-109092041D01*
X158584765Y-109063973D01*
X158591161Y-109042892D01*
X158601549Y-109023456D01*
X158615525Y-109006425D01*
X158632556Y-108992449D01*
X158651992Y-108982061D01*
X158673073Y-108975665D01*
X158701141Y-108972901D01*
X159164861Y-108972901D01*
X159192929Y-108975665D01*
X159192929Y-108975665D01*
G37*
G36*
X160462929Y-108975665D02*
G01*
X160484010Y-108982061D01*
X160503446Y-108992449D01*
X160520477Y-109006425D01*
X160534453Y-109023456D01*
X160544841Y-109042892D01*
X160551237Y-109063973D01*
X160554001Y-109092041D01*
X160554001Y-110905761D01*
X160551237Y-110933829D01*
X160544841Y-110954910D01*
X160534453Y-110974346D01*
X160520477Y-110991377D01*
X160503446Y-111005353D01*
X160484010Y-111015741D01*
X160462929Y-111022137D01*
X160434861Y-111024901D01*
X159971141Y-111024901D01*
X159943073Y-111022137D01*
X159921992Y-111015741D01*
X159902556Y-111005353D01*
X159885525Y-110991377D01*
X159871549Y-110974346D01*
X159861161Y-110954910D01*
X159854765Y-110933829D01*
X159852001Y-110905761D01*
X159852001Y-109092041D01*
X159854765Y-109063973D01*
X159861161Y-109042892D01*
X159871549Y-109023456D01*
X159885525Y-109006425D01*
X159902556Y-108992449D01*
X159921992Y-108982061D01*
X159943073Y-108975665D01*
X159971141Y-108972901D01*
X160434861Y-108972901D01*
X160462929Y-108975665D01*
X160462929Y-108975665D01*
G37*
G36*
X161732929Y-108975665D02*
G01*
X161754010Y-108982061D01*
X161773446Y-108992449D01*
X161790477Y-109006425D01*
X161804453Y-109023456D01*
X161814841Y-109042892D01*
X161821237Y-109063973D01*
X161824001Y-109092041D01*
X161824001Y-110905761D01*
X161821237Y-110933829D01*
X161814841Y-110954910D01*
X161804453Y-110974346D01*
X161790477Y-110991377D01*
X161773446Y-111005353D01*
X161754010Y-111015741D01*
X161732929Y-111022137D01*
X161704861Y-111024901D01*
X161241141Y-111024901D01*
X161213073Y-111022137D01*
X161191992Y-111015741D01*
X161172556Y-111005353D01*
X161155525Y-110991377D01*
X161141549Y-110974346D01*
X161131161Y-110954910D01*
X161124765Y-110933829D01*
X161122001Y-110905761D01*
X161122001Y-109092041D01*
X161124765Y-109063973D01*
X161131161Y-109042892D01*
X161141549Y-109023456D01*
X161155525Y-109006425D01*
X161172556Y-108992449D01*
X161191992Y-108982061D01*
X161213073Y-108975665D01*
X161241141Y-108972901D01*
X161704861Y-108972901D01*
X161732929Y-108975665D01*
X161732929Y-108975665D01*
G37*
G36*
X163002929Y-108975665D02*
G01*
X163024010Y-108982061D01*
X163043446Y-108992449D01*
X163060477Y-109006425D01*
X163074453Y-109023456D01*
X163084841Y-109042892D01*
X163091237Y-109063973D01*
X163094001Y-109092041D01*
X163094001Y-110905761D01*
X163091237Y-110933829D01*
X163084841Y-110954910D01*
X163074453Y-110974346D01*
X163060477Y-110991377D01*
X163043446Y-111005353D01*
X163024010Y-111015741D01*
X163002929Y-111022137D01*
X162974861Y-111024901D01*
X162511141Y-111024901D01*
X162483073Y-111022137D01*
X162461992Y-111015741D01*
X162442556Y-111005353D01*
X162425525Y-110991377D01*
X162411549Y-110974346D01*
X162401161Y-110954910D01*
X162394765Y-110933829D01*
X162392001Y-110905761D01*
X162392001Y-109092041D01*
X162394765Y-109063973D01*
X162401161Y-109042892D01*
X162411549Y-109023456D01*
X162425525Y-109006425D01*
X162442556Y-108992449D01*
X162461992Y-108982061D01*
X162483073Y-108975665D01*
X162511141Y-108972901D01*
X162974861Y-108972901D01*
X163002929Y-108975665D01*
X163002929Y-108975665D01*
G37*
G36*
X166713762Y-108943281D02*
G01*
X166748681Y-108953874D01*
X166780863Y-108971076D01*
X166809073Y-108994227D01*
X166832224Y-109022437D01*
X166849426Y-109054619D01*
X166860019Y-109089538D01*
X166864200Y-109131995D01*
X166864200Y-110273205D01*
X166860019Y-110315662D01*
X166849426Y-110350581D01*
X166832224Y-110382763D01*
X166809073Y-110410973D01*
X166780863Y-110434124D01*
X166748681Y-110451326D01*
X166713762Y-110461919D01*
X166671305Y-110466100D01*
X165205095Y-110466100D01*
X165162638Y-110461919D01*
X165127719Y-110451326D01*
X165095537Y-110434124D01*
X165067327Y-110410973D01*
X165044176Y-110382763D01*
X165026974Y-110350581D01*
X165016381Y-110315662D01*
X165012200Y-110273205D01*
X165012200Y-109131995D01*
X165016381Y-109089538D01*
X165026974Y-109054619D01*
X165044176Y-109022437D01*
X165067327Y-108994227D01*
X165095537Y-108971076D01*
X165127719Y-108953874D01*
X165162638Y-108943281D01*
X165205095Y-108939100D01*
X166671305Y-108939100D01*
X166713762Y-108943281D01*
X166713762Y-108943281D01*
G37*
G36*
X144723428Y-108717003D02*
G01*
X144878300Y-108781153D01*
X145017681Y-108874285D01*
X145136215Y-108992819D01*
X145229347Y-109132200D01*
X145293497Y-109287072D01*
X145326200Y-109451484D01*
X145326200Y-109619116D01*
X145293497Y-109783528D01*
X145229347Y-109938400D01*
X145136215Y-110077781D01*
X145017681Y-110196315D01*
X144878300Y-110289447D01*
X144723428Y-110353597D01*
X144559016Y-110386300D01*
X144391384Y-110386300D01*
X144226972Y-110353597D01*
X144072100Y-110289447D01*
X143932719Y-110196315D01*
X143814185Y-110077781D01*
X143721053Y-109938400D01*
X143656903Y-109783528D01*
X143624200Y-109619116D01*
X143624200Y-109451484D01*
X143656903Y-109287072D01*
X143721053Y-109132200D01*
X143814185Y-108992819D01*
X143932719Y-108874285D01*
X144072100Y-108781153D01*
X144226972Y-108717003D01*
X144391384Y-108684300D01*
X144559016Y-108684300D01*
X144723428Y-108717003D01*
X144723428Y-108717003D01*
G37*
G36*
X147263428Y-107332003D02*
G01*
X147418300Y-107396153D01*
X147557681Y-107489285D01*
X147676215Y-107607819D01*
X147769347Y-107747200D01*
X147833497Y-107902072D01*
X147866200Y-108066484D01*
X147866200Y-108234116D01*
X147833497Y-108398528D01*
X147769347Y-108553400D01*
X147676215Y-108692781D01*
X147557681Y-108811315D01*
X147418300Y-108904447D01*
X147263428Y-108968597D01*
X147099016Y-109001300D01*
X146931384Y-109001300D01*
X146766972Y-108968597D01*
X146612100Y-108904447D01*
X146472719Y-108811315D01*
X146354185Y-108692781D01*
X146261053Y-108553400D01*
X146196903Y-108398528D01*
X146164200Y-108234116D01*
X146164200Y-108066484D01*
X146196903Y-107902072D01*
X146261053Y-107747200D01*
X146354185Y-107607819D01*
X146472719Y-107489285D01*
X146612100Y-107396153D01*
X146766972Y-107332003D01*
X146931384Y-107299300D01*
X147099016Y-107299300D01*
X147263428Y-107332003D01*
X147263428Y-107332003D01*
G37*
G36*
X144723428Y-105947003D02*
G01*
X144878300Y-106011153D01*
X145017681Y-106104285D01*
X145136215Y-106222819D01*
X145229347Y-106362200D01*
X145293497Y-106517072D01*
X145326200Y-106681484D01*
X145326200Y-106849116D01*
X145293497Y-107013528D01*
X145229347Y-107168400D01*
X145136215Y-107307781D01*
X145017681Y-107426315D01*
X144878300Y-107519447D01*
X144723428Y-107583597D01*
X144559016Y-107616300D01*
X144391384Y-107616300D01*
X144226972Y-107583597D01*
X144072100Y-107519447D01*
X143932719Y-107426315D01*
X143814185Y-107307781D01*
X143721053Y-107168400D01*
X143656903Y-107013528D01*
X143624200Y-106849116D01*
X143624200Y-106681484D01*
X143656903Y-106517072D01*
X143721053Y-106362200D01*
X143814185Y-106222819D01*
X143932719Y-106104285D01*
X144072100Y-106011153D01*
X144226972Y-105947003D01*
X144391384Y-105914300D01*
X144559016Y-105914300D01*
X144723428Y-105947003D01*
X144723428Y-105947003D01*
G37*
G36*
X170066562Y-105974681D02*
G01*
X170101481Y-105985274D01*
X170133663Y-106002476D01*
X170161873Y-106025627D01*
X170185024Y-106053837D01*
X170202226Y-106086019D01*
X170212819Y-106120938D01*
X170217000Y-106163395D01*
X170217000Y-107304605D01*
X170212819Y-107347062D01*
X170202226Y-107381981D01*
X170185024Y-107414163D01*
X170161873Y-107442373D01*
X170133663Y-107465524D01*
X170101481Y-107482726D01*
X170066562Y-107493319D01*
X170024105Y-107497500D01*
X168557895Y-107497500D01*
X168515438Y-107493319D01*
X168480519Y-107482726D01*
X168448337Y-107465524D01*
X168420127Y-107442373D01*
X168396976Y-107414163D01*
X168379774Y-107381981D01*
X168369181Y-107347062D01*
X168365000Y-107304605D01*
X168365000Y-106163395D01*
X168369181Y-106120938D01*
X168379774Y-106086019D01*
X168396976Y-106053837D01*
X168420127Y-106025627D01*
X168448337Y-106002476D01*
X168480519Y-105985274D01*
X168515438Y-105974681D01*
X168557895Y-105970500D01*
X170024105Y-105970500D01*
X170066562Y-105974681D01*
X170066562Y-105974681D01*
G37*
G36*
X166713762Y-105968281D02*
G01*
X166748681Y-105978874D01*
X166780863Y-105996076D01*
X166809073Y-106019227D01*
X166832224Y-106047437D01*
X166849426Y-106079619D01*
X166860019Y-106114538D01*
X166864200Y-106156995D01*
X166864200Y-107298205D01*
X166860019Y-107340662D01*
X166849426Y-107375581D01*
X166832224Y-107407763D01*
X166809073Y-107435973D01*
X166780863Y-107459124D01*
X166748681Y-107476326D01*
X166713762Y-107486919D01*
X166671305Y-107491100D01*
X165205095Y-107491100D01*
X165162638Y-107486919D01*
X165127719Y-107476326D01*
X165095537Y-107459124D01*
X165067327Y-107435973D01*
X165044176Y-107407763D01*
X165026974Y-107375581D01*
X165016381Y-107340662D01*
X165012200Y-107298205D01*
X165012200Y-106156995D01*
X165016381Y-106114538D01*
X165026974Y-106079619D01*
X165044176Y-106047437D01*
X165067327Y-106019227D01*
X165095537Y-105996076D01*
X165127719Y-105978874D01*
X165162638Y-105968281D01*
X165205095Y-105964100D01*
X166671305Y-105964100D01*
X166713762Y-105968281D01*
X166713762Y-105968281D01*
G37*
G36*
X147263428Y-104562003D02*
G01*
X147418300Y-104626153D01*
X147557681Y-104719285D01*
X147676215Y-104837819D01*
X147769347Y-104977200D01*
X147833497Y-105132072D01*
X147866200Y-105296484D01*
X147866200Y-105464116D01*
X147833497Y-105628528D01*
X147769347Y-105783400D01*
X147676215Y-105922781D01*
X147557681Y-106041315D01*
X147418300Y-106134447D01*
X147263428Y-106198597D01*
X147099016Y-106231300D01*
X146931384Y-106231300D01*
X146766972Y-106198597D01*
X146612100Y-106134447D01*
X146472719Y-106041315D01*
X146354185Y-105922781D01*
X146261053Y-105783400D01*
X146196903Y-105628528D01*
X146164200Y-105464116D01*
X146164200Y-105296484D01*
X146196903Y-105132072D01*
X146261053Y-104977200D01*
X146354185Y-104837819D01*
X146472719Y-104719285D01*
X146612100Y-104626153D01*
X146766972Y-104562003D01*
X146931384Y-104529300D01*
X147099016Y-104529300D01*
X147263428Y-104562003D01*
X147263428Y-104562003D01*
G37*
G36*
X163002929Y-104025665D02*
G01*
X163024010Y-104032061D01*
X163043446Y-104042449D01*
X163060477Y-104056425D01*
X163074453Y-104073456D01*
X163084841Y-104092892D01*
X163091237Y-104113973D01*
X163094001Y-104142041D01*
X163094001Y-105955761D01*
X163091237Y-105983829D01*
X163084841Y-106004910D01*
X163074453Y-106024346D01*
X163060477Y-106041377D01*
X163043446Y-106055353D01*
X163024010Y-106065741D01*
X163002929Y-106072137D01*
X162974861Y-106074901D01*
X162511141Y-106074901D01*
X162483073Y-106072137D01*
X162461992Y-106065741D01*
X162442556Y-106055353D01*
X162425525Y-106041377D01*
X162411549Y-106024346D01*
X162401161Y-106004910D01*
X162394765Y-105983829D01*
X162392001Y-105955761D01*
X162392001Y-104142041D01*
X162394765Y-104113973D01*
X162401161Y-104092892D01*
X162411549Y-104073456D01*
X162425525Y-104056425D01*
X162442556Y-104042449D01*
X162461992Y-104032061D01*
X162483073Y-104025665D01*
X162511141Y-104022901D01*
X162974861Y-104022901D01*
X163002929Y-104025665D01*
X163002929Y-104025665D01*
G37*
G36*
X161732929Y-104025665D02*
G01*
X161754010Y-104032061D01*
X161773446Y-104042449D01*
X161790477Y-104056425D01*
X161804453Y-104073456D01*
X161814841Y-104092892D01*
X161821237Y-104113973D01*
X161824001Y-104142041D01*
X161824001Y-105955761D01*
X161821237Y-105983829D01*
X161814841Y-106004910D01*
X161804453Y-106024346D01*
X161790477Y-106041377D01*
X161773446Y-106055353D01*
X161754010Y-106065741D01*
X161732929Y-106072137D01*
X161704861Y-106074901D01*
X161241141Y-106074901D01*
X161213073Y-106072137D01*
X161191992Y-106065741D01*
X161172556Y-106055353D01*
X161155525Y-106041377D01*
X161141549Y-106024346D01*
X161131161Y-106004910D01*
X161124765Y-105983829D01*
X161122001Y-105955761D01*
X161122001Y-104142041D01*
X161124765Y-104113973D01*
X161131161Y-104092892D01*
X161141549Y-104073456D01*
X161155525Y-104056425D01*
X161172556Y-104042449D01*
X161191992Y-104032061D01*
X161213073Y-104025665D01*
X161241141Y-104022901D01*
X161704861Y-104022901D01*
X161732929Y-104025665D01*
X161732929Y-104025665D01*
G37*
G36*
X160462929Y-104025665D02*
G01*
X160484010Y-104032061D01*
X160503446Y-104042449D01*
X160520477Y-104056425D01*
X160534453Y-104073456D01*
X160544841Y-104092892D01*
X160551237Y-104113973D01*
X160554001Y-104142041D01*
X160554001Y-105955761D01*
X160551237Y-105983829D01*
X160544841Y-106004910D01*
X160534453Y-106024346D01*
X160520477Y-106041377D01*
X160503446Y-106055353D01*
X160484010Y-106065741D01*
X160462929Y-106072137D01*
X160434861Y-106074901D01*
X159971141Y-106074901D01*
X159943073Y-106072137D01*
X159921992Y-106065741D01*
X159902556Y-106055353D01*
X159885525Y-106041377D01*
X159871549Y-106024346D01*
X159861161Y-106004910D01*
X159854765Y-105983829D01*
X159852001Y-105955761D01*
X159852001Y-104142041D01*
X159854765Y-104113973D01*
X159861161Y-104092892D01*
X159871549Y-104073456D01*
X159885525Y-104056425D01*
X159902556Y-104042449D01*
X159921992Y-104032061D01*
X159943073Y-104025665D01*
X159971141Y-104022901D01*
X160434861Y-104022901D01*
X160462929Y-104025665D01*
X160462929Y-104025665D01*
G37*
G36*
X159192929Y-104025665D02*
G01*
X159214010Y-104032061D01*
X159233446Y-104042449D01*
X159250477Y-104056425D01*
X159264453Y-104073456D01*
X159274841Y-104092892D01*
X159281237Y-104113973D01*
X159284001Y-104142041D01*
X159284001Y-105955761D01*
X159281237Y-105983829D01*
X159274841Y-106004910D01*
X159264453Y-106024346D01*
X159250477Y-106041377D01*
X159233446Y-106055353D01*
X159214010Y-106065741D01*
X159192929Y-106072137D01*
X159164861Y-106074901D01*
X158701141Y-106074901D01*
X158673073Y-106072137D01*
X158651992Y-106065741D01*
X158632556Y-106055353D01*
X158615525Y-106041377D01*
X158601549Y-106024346D01*
X158591161Y-106004910D01*
X158584765Y-105983829D01*
X158582001Y-105955761D01*
X158582001Y-104142041D01*
X158584765Y-104113973D01*
X158591161Y-104092892D01*
X158601549Y-104073456D01*
X158615525Y-104056425D01*
X158632556Y-104042449D01*
X158651992Y-104032061D01*
X158673073Y-104025665D01*
X158701141Y-104022901D01*
X159164861Y-104022901D01*
X159192929Y-104025665D01*
X159192929Y-104025665D01*
G37*
G36*
X157922929Y-104025665D02*
G01*
X157944010Y-104032061D01*
X157963446Y-104042449D01*
X157980477Y-104056425D01*
X157994453Y-104073456D01*
X158004841Y-104092892D01*
X158011237Y-104113973D01*
X158014001Y-104142041D01*
X158014001Y-105955761D01*
X158011237Y-105983829D01*
X158004841Y-106004910D01*
X157994453Y-106024346D01*
X157980477Y-106041377D01*
X157963446Y-106055353D01*
X157944010Y-106065741D01*
X157922929Y-106072137D01*
X157894861Y-106074901D01*
X157431141Y-106074901D01*
X157403073Y-106072137D01*
X157381992Y-106065741D01*
X157362556Y-106055353D01*
X157345525Y-106041377D01*
X157331549Y-106024346D01*
X157321161Y-106004910D01*
X157314765Y-105983829D01*
X157312001Y-105955761D01*
X157312001Y-104142041D01*
X157314765Y-104113973D01*
X157321161Y-104092892D01*
X157331549Y-104073456D01*
X157345525Y-104056425D01*
X157362556Y-104042449D01*
X157381992Y-104032061D01*
X157403073Y-104025665D01*
X157431141Y-104022901D01*
X157894861Y-104022901D01*
X157922929Y-104025665D01*
X157922929Y-104025665D01*
G37*
G36*
X156652929Y-104025665D02*
G01*
X156674010Y-104032061D01*
X156693446Y-104042449D01*
X156710477Y-104056425D01*
X156724453Y-104073456D01*
X156734841Y-104092892D01*
X156741237Y-104113973D01*
X156744001Y-104142041D01*
X156744001Y-105955761D01*
X156741237Y-105983829D01*
X156734841Y-106004910D01*
X156724453Y-106024346D01*
X156710477Y-106041377D01*
X156693446Y-106055353D01*
X156674010Y-106065741D01*
X156652929Y-106072137D01*
X156624861Y-106074901D01*
X156161141Y-106074901D01*
X156133073Y-106072137D01*
X156111992Y-106065741D01*
X156092556Y-106055353D01*
X156075525Y-106041377D01*
X156061549Y-106024346D01*
X156051161Y-106004910D01*
X156044765Y-105983829D01*
X156042001Y-105955761D01*
X156042001Y-104142041D01*
X156044765Y-104113973D01*
X156051161Y-104092892D01*
X156061549Y-104073456D01*
X156075525Y-104056425D01*
X156092556Y-104042449D01*
X156111992Y-104032061D01*
X156133073Y-104025665D01*
X156161141Y-104022901D01*
X156624861Y-104022901D01*
X156652929Y-104025665D01*
X156652929Y-104025665D01*
G37*
G36*
X155382929Y-104025665D02*
G01*
X155404010Y-104032061D01*
X155423446Y-104042449D01*
X155440477Y-104056425D01*
X155454453Y-104073456D01*
X155464841Y-104092892D01*
X155471237Y-104113973D01*
X155474001Y-104142041D01*
X155474001Y-105955761D01*
X155471237Y-105983829D01*
X155464841Y-106004910D01*
X155454453Y-106024346D01*
X155440477Y-106041377D01*
X155423446Y-106055353D01*
X155404010Y-106065741D01*
X155382929Y-106072137D01*
X155354861Y-106074901D01*
X154891141Y-106074901D01*
X154863073Y-106072137D01*
X154841992Y-106065741D01*
X154822556Y-106055353D01*
X154805525Y-106041377D01*
X154791549Y-106024346D01*
X154781161Y-106004910D01*
X154774765Y-105983829D01*
X154772001Y-105955761D01*
X154772001Y-104142041D01*
X154774765Y-104113973D01*
X154781161Y-104092892D01*
X154791549Y-104073456D01*
X154805525Y-104056425D01*
X154822556Y-104042449D01*
X154841992Y-104032061D01*
X154863073Y-104025665D01*
X154891141Y-104022901D01*
X155354861Y-104022901D01*
X155382929Y-104025665D01*
X155382929Y-104025665D01*
G37*
G36*
X154112929Y-104025665D02*
G01*
X154134010Y-104032061D01*
X154153446Y-104042449D01*
X154170477Y-104056425D01*
X154184453Y-104073456D01*
X154194841Y-104092892D01*
X154201237Y-104113973D01*
X154204001Y-104142041D01*
X154204001Y-105955761D01*
X154201237Y-105983829D01*
X154194841Y-106004910D01*
X154184453Y-106024346D01*
X154170477Y-106041377D01*
X154153446Y-106055353D01*
X154134010Y-106065741D01*
X154112929Y-106072137D01*
X154084861Y-106074901D01*
X153621141Y-106074901D01*
X153593073Y-106072137D01*
X153571992Y-106065741D01*
X153552556Y-106055353D01*
X153535525Y-106041377D01*
X153521549Y-106024346D01*
X153511161Y-106004910D01*
X153504765Y-105983829D01*
X153502001Y-105955761D01*
X153502001Y-104142041D01*
X153504765Y-104113973D01*
X153511161Y-104092892D01*
X153521549Y-104073456D01*
X153535525Y-104056425D01*
X153552556Y-104042449D01*
X153571992Y-104032061D01*
X153593073Y-104025665D01*
X153621141Y-104022901D01*
X154084861Y-104022901D01*
X154112929Y-104025665D01*
X154112929Y-104025665D01*
G37*
G36*
X144723428Y-103177003D02*
G01*
X144878300Y-103241153D01*
X145017681Y-103334285D01*
X145136215Y-103452819D01*
X145229347Y-103592200D01*
X145293497Y-103747072D01*
X145326200Y-103911484D01*
X145326200Y-104079116D01*
X145293497Y-104243528D01*
X145229347Y-104398400D01*
X145136215Y-104537781D01*
X145017681Y-104656315D01*
X144878300Y-104749447D01*
X144723428Y-104813597D01*
X144559016Y-104846300D01*
X144391384Y-104846300D01*
X144226972Y-104813597D01*
X144072100Y-104749447D01*
X143932719Y-104656315D01*
X143814185Y-104537781D01*
X143721053Y-104398400D01*
X143656903Y-104243528D01*
X143624200Y-104079116D01*
X143624200Y-103911484D01*
X143656903Y-103747072D01*
X143721053Y-103592200D01*
X143814185Y-103452819D01*
X143932719Y-103334285D01*
X144072100Y-103241153D01*
X144226972Y-103177003D01*
X144391384Y-103144300D01*
X144559016Y-103144300D01*
X144723428Y-103177003D01*
X144723428Y-103177003D01*
G37*
G36*
X166713762Y-103177481D02*
G01*
X166748681Y-103188074D01*
X166780863Y-103205276D01*
X166809073Y-103228427D01*
X166832224Y-103256637D01*
X166849426Y-103288819D01*
X166860019Y-103323738D01*
X166864200Y-103366195D01*
X166864200Y-104507405D01*
X166860019Y-104549862D01*
X166849426Y-104584781D01*
X166832224Y-104616963D01*
X166809073Y-104645173D01*
X166780863Y-104668324D01*
X166748681Y-104685526D01*
X166713762Y-104696119D01*
X166671305Y-104700300D01*
X165205095Y-104700300D01*
X165162638Y-104696119D01*
X165127719Y-104685526D01*
X165095537Y-104668324D01*
X165067327Y-104645173D01*
X165044176Y-104616963D01*
X165026974Y-104584781D01*
X165016381Y-104549862D01*
X165012200Y-104507405D01*
X165012200Y-103366195D01*
X165016381Y-103323738D01*
X165026974Y-103288819D01*
X165044176Y-103256637D01*
X165067327Y-103228427D01*
X165095537Y-103205276D01*
X165127719Y-103188074D01*
X165162638Y-103177481D01*
X165205095Y-103173300D01*
X166671305Y-103173300D01*
X166713762Y-103177481D01*
X166713762Y-103177481D01*
G37*
G36*
X170066562Y-102999681D02*
G01*
X170101481Y-103010274D01*
X170133663Y-103027476D01*
X170161873Y-103050627D01*
X170185024Y-103078837D01*
X170202226Y-103111019D01*
X170212819Y-103145938D01*
X170217000Y-103188395D01*
X170217000Y-104329605D01*
X170212819Y-104372062D01*
X170202226Y-104406981D01*
X170185024Y-104439163D01*
X170161873Y-104467373D01*
X170133663Y-104490524D01*
X170101481Y-104507726D01*
X170066562Y-104518319D01*
X170024105Y-104522500D01*
X168557895Y-104522500D01*
X168515438Y-104518319D01*
X168480519Y-104507726D01*
X168448337Y-104490524D01*
X168420127Y-104467373D01*
X168396976Y-104439163D01*
X168379774Y-104406981D01*
X168369181Y-104372062D01*
X168365000Y-104329605D01*
X168365000Y-103188395D01*
X168369181Y-103145938D01*
X168379774Y-103111019D01*
X168396976Y-103078837D01*
X168420127Y-103050627D01*
X168448337Y-103027476D01*
X168480519Y-103010274D01*
X168515438Y-102999681D01*
X168557895Y-102995500D01*
X170024105Y-102995500D01*
X170066562Y-102999681D01*
X170066562Y-102999681D01*
G37*
G36*
X147263428Y-101792003D02*
G01*
X147418300Y-101856153D01*
X147557681Y-101949285D01*
X147676215Y-102067819D01*
X147769347Y-102207200D01*
X147833497Y-102362072D01*
X147866200Y-102526484D01*
X147866200Y-102694116D01*
X147833497Y-102858528D01*
X147769347Y-103013400D01*
X147676215Y-103152781D01*
X147557681Y-103271315D01*
X147418300Y-103364447D01*
X147263428Y-103428597D01*
X147099016Y-103461300D01*
X146931384Y-103461300D01*
X146766972Y-103428597D01*
X146612100Y-103364447D01*
X146472719Y-103271315D01*
X146354185Y-103152781D01*
X146261053Y-103013400D01*
X146196903Y-102858528D01*
X146164200Y-102694116D01*
X146164200Y-102526484D01*
X146196903Y-102362072D01*
X146261053Y-102207200D01*
X146354185Y-102067819D01*
X146472719Y-101949285D01*
X146612100Y-101856153D01*
X146766972Y-101792003D01*
X146931384Y-101759300D01*
X147099016Y-101759300D01*
X147263428Y-101792003D01*
X147263428Y-101792003D01*
G37*
G36*
X155245662Y-101580481D02*
G01*
X155280581Y-101591074D01*
X155312763Y-101608276D01*
X155340973Y-101631427D01*
X155364124Y-101659637D01*
X155381326Y-101691819D01*
X155391919Y-101726738D01*
X155396100Y-101769195D01*
X155396100Y-102910405D01*
X155391919Y-102952862D01*
X155381326Y-102987781D01*
X155364124Y-103019963D01*
X155340973Y-103048173D01*
X155312763Y-103071324D01*
X155280581Y-103088526D01*
X155245662Y-103099119D01*
X155203205Y-103103300D01*
X153736995Y-103103300D01*
X153694538Y-103099119D01*
X153659619Y-103088526D01*
X153627437Y-103071324D01*
X153599227Y-103048173D01*
X153576076Y-103019963D01*
X153558874Y-102987781D01*
X153548281Y-102952862D01*
X153544100Y-102910405D01*
X153544100Y-101769195D01*
X153548281Y-101726738D01*
X153558874Y-101691819D01*
X153576076Y-101659637D01*
X153599227Y-101631427D01*
X153627437Y-101608276D01*
X153659619Y-101591074D01*
X153694538Y-101580481D01*
X153736995Y-101576300D01*
X155203205Y-101576300D01*
X155245662Y-101580481D01*
X155245662Y-101580481D01*
G37*
G36*
X160566962Y-101551881D02*
G01*
X160601881Y-101562474D01*
X160634063Y-101579676D01*
X160662273Y-101602827D01*
X160685424Y-101631037D01*
X160702626Y-101663219D01*
X160713219Y-101698138D01*
X160717400Y-101740595D01*
X160717400Y-102881805D01*
X160713219Y-102924262D01*
X160702626Y-102959181D01*
X160685424Y-102991363D01*
X160662273Y-103019573D01*
X160634063Y-103042724D01*
X160601881Y-103059926D01*
X160566962Y-103070519D01*
X160524505Y-103074700D01*
X159058295Y-103074700D01*
X159015838Y-103070519D01*
X158980919Y-103059926D01*
X158948737Y-103042724D01*
X158920527Y-103019573D01*
X158897376Y-102991363D01*
X158880174Y-102959181D01*
X158869581Y-102924262D01*
X158865400Y-102881805D01*
X158865400Y-101740595D01*
X158869581Y-101698138D01*
X158880174Y-101663219D01*
X158897376Y-101631037D01*
X158920527Y-101602827D01*
X158948737Y-101579676D01*
X158980919Y-101562474D01*
X159015838Y-101551881D01*
X159058295Y-101547700D01*
X160524505Y-101547700D01*
X160566962Y-101551881D01*
X160566962Y-101551881D01*
G37*
G36*
X157912662Y-101551881D02*
G01*
X157947581Y-101562474D01*
X157979763Y-101579676D01*
X158007973Y-101602827D01*
X158031124Y-101631037D01*
X158048326Y-101663219D01*
X158058919Y-101698138D01*
X158063100Y-101740595D01*
X158063100Y-102881805D01*
X158058919Y-102924262D01*
X158048326Y-102959181D01*
X158031124Y-102991363D01*
X158007973Y-103019573D01*
X157979763Y-103042724D01*
X157947581Y-103059926D01*
X157912662Y-103070519D01*
X157870205Y-103074700D01*
X156403995Y-103074700D01*
X156361538Y-103070519D01*
X156326619Y-103059926D01*
X156294437Y-103042724D01*
X156266227Y-103019573D01*
X156243076Y-102991363D01*
X156225874Y-102959181D01*
X156215281Y-102924262D01*
X156211100Y-102881805D01*
X156211100Y-101740595D01*
X156215281Y-101698138D01*
X156225874Y-101663219D01*
X156243076Y-101631037D01*
X156266227Y-101602827D01*
X156294437Y-101579676D01*
X156326619Y-101562474D01*
X156361538Y-101551881D01*
X156403995Y-101547700D01*
X157870205Y-101547700D01*
X157912662Y-101551881D01*
X157912662Y-101551881D01*
G37*
G36*
X163068862Y-101539181D02*
G01*
X163103781Y-101549774D01*
X163135963Y-101566976D01*
X163164173Y-101590127D01*
X163187324Y-101618337D01*
X163204526Y-101650519D01*
X163215119Y-101685438D01*
X163219300Y-101727895D01*
X163219300Y-102869105D01*
X163215119Y-102911562D01*
X163204526Y-102946481D01*
X163187324Y-102978663D01*
X163164173Y-103006873D01*
X163135963Y-103030024D01*
X163103781Y-103047226D01*
X163068862Y-103057819D01*
X163026405Y-103062000D01*
X161560195Y-103062000D01*
X161517738Y-103057819D01*
X161482819Y-103047226D01*
X161450637Y-103030024D01*
X161422427Y-103006873D01*
X161399276Y-102978663D01*
X161382074Y-102946481D01*
X161371481Y-102911562D01*
X161367300Y-102869105D01*
X161367300Y-101727895D01*
X161371481Y-101685438D01*
X161382074Y-101650519D01*
X161399276Y-101618337D01*
X161422427Y-101590127D01*
X161450637Y-101566976D01*
X161482819Y-101549774D01*
X161517738Y-101539181D01*
X161560195Y-101535000D01*
X163026405Y-101535000D01*
X163068862Y-101539181D01*
X163068862Y-101539181D01*
G37*
G36*
X144723428Y-100407003D02*
G01*
X144878300Y-100471153D01*
X145017681Y-100564285D01*
X145136215Y-100682819D01*
X145229347Y-100822200D01*
X145293497Y-100977072D01*
X145326200Y-101141484D01*
X145326200Y-101309116D01*
X145293497Y-101473528D01*
X145229347Y-101628400D01*
X145136215Y-101767781D01*
X145017681Y-101886315D01*
X144878300Y-101979447D01*
X144723428Y-102043597D01*
X144559016Y-102076300D01*
X144391384Y-102076300D01*
X144226972Y-102043597D01*
X144072100Y-101979447D01*
X143932719Y-101886315D01*
X143814185Y-101767781D01*
X143721053Y-101628400D01*
X143656903Y-101473528D01*
X143624200Y-101309116D01*
X143624200Y-101141484D01*
X143656903Y-100977072D01*
X143721053Y-100822200D01*
X143814185Y-100682819D01*
X143932719Y-100564285D01*
X144072100Y-100471153D01*
X144226972Y-100407003D01*
X144391384Y-100374300D01*
X144559016Y-100374300D01*
X144723428Y-100407003D01*
X144723428Y-100407003D01*
G37*
G36*
X166713762Y-100202481D02*
G01*
X166748681Y-100213074D01*
X166780863Y-100230276D01*
X166809073Y-100253427D01*
X166832224Y-100281637D01*
X166849426Y-100313819D01*
X166860019Y-100348738D01*
X166864200Y-100391195D01*
X166864200Y-101532405D01*
X166860019Y-101574862D01*
X166849426Y-101609781D01*
X166832224Y-101641963D01*
X166809073Y-101670173D01*
X166780863Y-101693324D01*
X166748681Y-101710526D01*
X166713762Y-101721119D01*
X166671305Y-101725300D01*
X165205095Y-101725300D01*
X165162638Y-101721119D01*
X165127719Y-101710526D01*
X165095537Y-101693324D01*
X165067327Y-101670173D01*
X165044176Y-101641963D01*
X165026974Y-101609781D01*
X165016381Y-101574862D01*
X165012200Y-101532405D01*
X165012200Y-100391195D01*
X165016381Y-100348738D01*
X165026974Y-100313819D01*
X165044176Y-100281637D01*
X165067327Y-100253427D01*
X165095537Y-100230276D01*
X165127719Y-100213074D01*
X165162638Y-100202481D01*
X165205095Y-100198300D01*
X166671305Y-100198300D01*
X166713762Y-100202481D01*
X166713762Y-100202481D01*
G37*
G36*
X147263428Y-99022003D02*
G01*
X147418300Y-99086153D01*
X147557681Y-99179285D01*
X147676215Y-99297819D01*
X147769347Y-99437200D01*
X147833497Y-99592072D01*
X147866200Y-99756484D01*
X147866200Y-99924116D01*
X147833497Y-100088528D01*
X147769347Y-100243400D01*
X147676215Y-100382781D01*
X147557681Y-100501315D01*
X147418300Y-100594447D01*
X147263428Y-100658597D01*
X147099016Y-100691300D01*
X146931384Y-100691300D01*
X146766972Y-100658597D01*
X146612100Y-100594447D01*
X146472719Y-100501315D01*
X146354185Y-100382781D01*
X146261053Y-100243400D01*
X146196903Y-100088528D01*
X146164200Y-99924116D01*
X146164200Y-99756484D01*
X146196903Y-99592072D01*
X146261053Y-99437200D01*
X146354185Y-99297819D01*
X146472719Y-99179285D01*
X146612100Y-99086153D01*
X146766972Y-99022003D01*
X146931384Y-98989300D01*
X147099016Y-98989300D01*
X147263428Y-99022003D01*
X147263428Y-99022003D01*
G37*
G36*
X155245662Y-98605481D02*
G01*
X155280581Y-98616074D01*
X155312763Y-98633276D01*
X155340973Y-98656427D01*
X155364124Y-98684637D01*
X155381326Y-98716819D01*
X155391919Y-98751738D01*
X155396100Y-98794195D01*
X155396100Y-99935405D01*
X155391919Y-99977862D01*
X155381326Y-100012781D01*
X155364124Y-100044963D01*
X155340973Y-100073173D01*
X155312763Y-100096324D01*
X155280581Y-100113526D01*
X155245662Y-100124119D01*
X155203205Y-100128300D01*
X153736995Y-100128300D01*
X153694538Y-100124119D01*
X153659619Y-100113526D01*
X153627437Y-100096324D01*
X153599227Y-100073173D01*
X153576076Y-100044963D01*
X153558874Y-100012781D01*
X153548281Y-99977862D01*
X153544100Y-99935405D01*
X153544100Y-98794195D01*
X153548281Y-98751738D01*
X153558874Y-98716819D01*
X153576076Y-98684637D01*
X153599227Y-98656427D01*
X153627437Y-98633276D01*
X153659619Y-98616074D01*
X153694538Y-98605481D01*
X153736995Y-98601300D01*
X155203205Y-98601300D01*
X155245662Y-98605481D01*
X155245662Y-98605481D01*
G37*
G36*
X157912662Y-98576881D02*
G01*
X157947581Y-98587474D01*
X157979763Y-98604676D01*
X158007973Y-98627827D01*
X158031124Y-98656037D01*
X158048326Y-98688219D01*
X158058919Y-98723138D01*
X158063100Y-98765595D01*
X158063100Y-99906805D01*
X158058919Y-99949262D01*
X158048326Y-99984181D01*
X158031124Y-100016363D01*
X158007973Y-100044573D01*
X157979763Y-100067724D01*
X157947581Y-100084926D01*
X157912662Y-100095519D01*
X157870205Y-100099700D01*
X156403995Y-100099700D01*
X156361538Y-100095519D01*
X156326619Y-100084926D01*
X156294437Y-100067724D01*
X156266227Y-100044573D01*
X156243076Y-100016363D01*
X156225874Y-99984181D01*
X156215281Y-99949262D01*
X156211100Y-99906805D01*
X156211100Y-98765595D01*
X156215281Y-98723138D01*
X156225874Y-98688219D01*
X156243076Y-98656037D01*
X156266227Y-98627827D01*
X156294437Y-98604676D01*
X156326619Y-98587474D01*
X156361538Y-98576881D01*
X156403995Y-98572700D01*
X157870205Y-98572700D01*
X157912662Y-98576881D01*
X157912662Y-98576881D01*
G37*
G36*
X160566962Y-98576881D02*
G01*
X160601881Y-98587474D01*
X160634063Y-98604676D01*
X160662273Y-98627827D01*
X160685424Y-98656037D01*
X160702626Y-98688219D01*
X160713219Y-98723138D01*
X160717400Y-98765595D01*
X160717400Y-99906805D01*
X160713219Y-99949262D01*
X160702626Y-99984181D01*
X160685424Y-100016363D01*
X160662273Y-100044573D01*
X160634063Y-100067724D01*
X160601881Y-100084926D01*
X160566962Y-100095519D01*
X160524505Y-100099700D01*
X159058295Y-100099700D01*
X159015838Y-100095519D01*
X158980919Y-100084926D01*
X158948737Y-100067724D01*
X158920527Y-100044573D01*
X158897376Y-100016363D01*
X158880174Y-99984181D01*
X158869581Y-99949262D01*
X158865400Y-99906805D01*
X158865400Y-98765595D01*
X158869581Y-98723138D01*
X158880174Y-98688219D01*
X158897376Y-98656037D01*
X158920527Y-98627827D01*
X158948737Y-98604676D01*
X158980919Y-98587474D01*
X159015838Y-98576881D01*
X159058295Y-98572700D01*
X160524505Y-98572700D01*
X160566962Y-98576881D01*
X160566962Y-98576881D01*
G37*
G36*
X163068862Y-98564181D02*
G01*
X163103781Y-98574774D01*
X163135963Y-98591976D01*
X163164173Y-98615127D01*
X163187324Y-98643337D01*
X163204526Y-98675519D01*
X163215119Y-98710438D01*
X163219300Y-98752895D01*
X163219300Y-99894105D01*
X163215119Y-99936562D01*
X163204526Y-99971481D01*
X163187324Y-100003663D01*
X163164173Y-100031873D01*
X163135963Y-100055024D01*
X163103781Y-100072226D01*
X163068862Y-100082819D01*
X163026405Y-100087000D01*
X161560195Y-100087000D01*
X161517738Y-100082819D01*
X161482819Y-100072226D01*
X161450637Y-100055024D01*
X161422427Y-100031873D01*
X161399276Y-100003663D01*
X161382074Y-99971481D01*
X161371481Y-99936562D01*
X161367300Y-99894105D01*
X161367300Y-98752895D01*
X161371481Y-98710438D01*
X161382074Y-98675519D01*
X161399276Y-98643337D01*
X161422427Y-98615127D01*
X161450637Y-98591976D01*
X161482819Y-98574774D01*
X161517738Y-98564181D01*
X161560195Y-98560000D01*
X163026405Y-98560000D01*
X163068862Y-98564181D01*
X163068862Y-98564181D01*
G37*
G36*
X144723428Y-97637003D02*
G01*
X144878300Y-97701153D01*
X145017681Y-97794285D01*
X145136215Y-97912819D01*
X145229347Y-98052200D01*
X145293497Y-98207072D01*
X145326200Y-98371484D01*
X145326200Y-98539116D01*
X145293497Y-98703528D01*
X145229347Y-98858400D01*
X145136215Y-98997781D01*
X145017681Y-99116315D01*
X144878300Y-99209447D01*
X144723428Y-99273597D01*
X144559016Y-99306300D01*
X144391384Y-99306300D01*
X144226972Y-99273597D01*
X144072100Y-99209447D01*
X143932719Y-99116315D01*
X143814185Y-98997781D01*
X143721053Y-98858400D01*
X143656903Y-98703528D01*
X143624200Y-98539116D01*
X143624200Y-98371484D01*
X143656903Y-98207072D01*
X143721053Y-98052200D01*
X143814185Y-97912819D01*
X143932719Y-97794285D01*
X144072100Y-97701153D01*
X144226972Y-97637003D01*
X144391384Y-97604300D01*
X144559016Y-97604300D01*
X144723428Y-97637003D01*
X144723428Y-97637003D01*
G37*
G36*
X147263428Y-96252003D02*
G01*
X147418300Y-96316153D01*
X147557681Y-96409285D01*
X147676215Y-96527819D01*
X147769347Y-96667200D01*
X147833497Y-96822072D01*
X147866200Y-96986484D01*
X147866200Y-97154116D01*
X147833497Y-97318528D01*
X147769347Y-97473400D01*
X147676215Y-97612781D01*
X147557681Y-97731315D01*
X147418300Y-97824447D01*
X147263428Y-97888597D01*
X147099016Y-97921300D01*
X146931384Y-97921300D01*
X146766972Y-97888597D01*
X146612100Y-97824447D01*
X146472719Y-97731315D01*
X146354185Y-97612781D01*
X146261053Y-97473400D01*
X146196903Y-97318528D01*
X146164200Y-97154116D01*
X146164200Y-96986484D01*
X146196903Y-96822072D01*
X146261053Y-96667200D01*
X146354185Y-96527819D01*
X146472719Y-96409285D01*
X146612100Y-96316153D01*
X146766972Y-96252003D01*
X146931384Y-96219300D01*
X147099016Y-96219300D01*
X147263428Y-96252003D01*
X147263428Y-96252003D01*
G37*
G36*
X144723428Y-94867003D02*
G01*
X144878300Y-94931153D01*
X145017681Y-95024285D01*
X145136215Y-95142819D01*
X145229347Y-95282200D01*
X145293497Y-95437072D01*
X145326200Y-95601484D01*
X145326200Y-95769116D01*
X145293497Y-95933528D01*
X145229347Y-96088400D01*
X145136215Y-96227781D01*
X145017681Y-96346315D01*
X144878300Y-96439447D01*
X144723428Y-96503597D01*
X144559016Y-96536300D01*
X144391384Y-96536300D01*
X144226972Y-96503597D01*
X144072100Y-96439447D01*
X143932719Y-96346315D01*
X143814185Y-96227781D01*
X143721053Y-96088400D01*
X143656903Y-95933528D01*
X143624200Y-95769116D01*
X143624200Y-95601484D01*
X143656903Y-95437072D01*
X143721053Y-95282200D01*
X143814185Y-95142819D01*
X143932719Y-95024285D01*
X144072100Y-94931153D01*
X144226972Y-94867003D01*
X144391384Y-94834300D01*
X144559016Y-94834300D01*
X144723428Y-94867003D01*
X144723428Y-94867003D01*
G37*
G36*
X147263428Y-93482003D02*
G01*
X147418300Y-93546153D01*
X147557681Y-93639285D01*
X147676215Y-93757819D01*
X147769347Y-93897200D01*
X147833497Y-94052072D01*
X147866200Y-94216484D01*
X147866200Y-94384116D01*
X147833497Y-94548528D01*
X147769347Y-94703400D01*
X147676215Y-94842781D01*
X147557681Y-94961315D01*
X147418300Y-95054447D01*
X147263428Y-95118597D01*
X147099016Y-95151300D01*
X146931384Y-95151300D01*
X146766972Y-95118597D01*
X146612100Y-95054447D01*
X146472719Y-94961315D01*
X146354185Y-94842781D01*
X146261053Y-94703400D01*
X146196903Y-94548528D01*
X146164200Y-94384116D01*
X146164200Y-94216484D01*
X146196903Y-94052072D01*
X146261053Y-93897200D01*
X146354185Y-93757819D01*
X146472719Y-93639285D01*
X146612100Y-93546153D01*
X146766972Y-93482003D01*
X146931384Y-93449300D01*
X147099016Y-93449300D01*
X147263428Y-93482003D01*
X147263428Y-93482003D01*
G37*
G36*
X169076000Y-94019000D02*
G01*
X167474000Y-94019000D01*
X167474000Y-92417000D01*
X169076000Y-92417000D01*
X169076000Y-94019000D01*
X169076000Y-94019000D01*
G37*
G36*
X161276000Y-94019000D02*
G01*
X159674000Y-94019000D01*
X159674000Y-92417000D01*
X161276000Y-92417000D01*
X161276000Y-94019000D01*
X161276000Y-94019000D01*
G37*
G36*
X144723428Y-92097003D02*
G01*
X144878300Y-92161153D01*
X145017681Y-92254285D01*
X145136215Y-92372819D01*
X145229347Y-92512200D01*
X145293497Y-92667072D01*
X145326200Y-92831484D01*
X145326200Y-92999116D01*
X145293497Y-93163528D01*
X145229347Y-93318400D01*
X145136215Y-93457781D01*
X145017681Y-93576315D01*
X144878300Y-93669447D01*
X144723428Y-93733597D01*
X144559016Y-93766300D01*
X144391384Y-93766300D01*
X144226972Y-93733597D01*
X144072100Y-93669447D01*
X143932719Y-93576315D01*
X143814185Y-93457781D01*
X143721053Y-93318400D01*
X143656903Y-93163528D01*
X143624200Y-92999116D01*
X143624200Y-92831484D01*
X143656903Y-92667072D01*
X143721053Y-92512200D01*
X143814185Y-92372819D01*
X143932719Y-92254285D01*
X144072100Y-92161153D01*
X144226972Y-92097003D01*
X144391384Y-92064300D01*
X144559016Y-92064300D01*
X144723428Y-92097003D01*
X144723428Y-92097003D01*
G37*
G36*
X147263428Y-90712003D02*
G01*
X147418300Y-90776153D01*
X147557681Y-90869285D01*
X147676215Y-90987819D01*
X147769347Y-91127200D01*
X147833497Y-91282072D01*
X147866200Y-91446484D01*
X147866200Y-91614116D01*
X147833497Y-91778528D01*
X147769347Y-91933400D01*
X147676215Y-92072781D01*
X147557681Y-92191315D01*
X147418300Y-92284447D01*
X147263428Y-92348597D01*
X147099016Y-92381300D01*
X146931384Y-92381300D01*
X146766972Y-92348597D01*
X146612100Y-92284447D01*
X146472719Y-92191315D01*
X146354185Y-92072781D01*
X146261053Y-91933400D01*
X146196903Y-91778528D01*
X146164200Y-91614116D01*
X146164200Y-91446484D01*
X146196903Y-91282072D01*
X146261053Y-91127200D01*
X146354185Y-90987819D01*
X146472719Y-90869285D01*
X146612100Y-90776153D01*
X146766972Y-90712003D01*
X146931384Y-90679300D01*
X147099016Y-90679300D01*
X147263428Y-90712003D01*
X147263428Y-90712003D01*
G37*
G36*
X144723428Y-89327003D02*
G01*
X144878300Y-89391153D01*
X145017681Y-89484285D01*
X145136215Y-89602819D01*
X145229347Y-89742200D01*
X145293497Y-89897072D01*
X145326200Y-90061484D01*
X145326200Y-90229116D01*
X145293497Y-90393528D01*
X145229347Y-90548400D01*
X145136215Y-90687781D01*
X145017681Y-90806315D01*
X144878300Y-90899447D01*
X144723428Y-90963597D01*
X144559016Y-90996300D01*
X144391384Y-90996300D01*
X144226972Y-90963597D01*
X144072100Y-90899447D01*
X143932719Y-90806315D01*
X143814185Y-90687781D01*
X143721053Y-90548400D01*
X143656903Y-90393528D01*
X143624200Y-90229116D01*
X143624200Y-90061484D01*
X143656903Y-89897072D01*
X143721053Y-89742200D01*
X143814185Y-89602819D01*
X143932719Y-89484285D01*
X144072100Y-89391153D01*
X144226972Y-89327003D01*
X144391384Y-89294300D01*
X144559016Y-89294300D01*
X144723428Y-89327003D01*
X144723428Y-89327003D01*
G37*
G36*
X159905348Y-89260720D02*
G01*
X159905350Y-89260721D01*
X159905351Y-89260721D01*
X160046574Y-89319217D01*
X160046577Y-89319219D01*
X160173669Y-89404139D01*
X160281761Y-89512231D01*
X160338375Y-89596960D01*
X160366683Y-89639326D01*
X160387517Y-89689625D01*
X160399068Y-89711236D01*
X160414614Y-89730178D01*
X160433556Y-89745723D01*
X160455166Y-89757274D01*
X160478615Y-89764387D01*
X160503001Y-89766789D01*
X160527387Y-89764387D01*
X160550836Y-89757274D01*
X160572447Y-89745723D01*
X160591389Y-89730177D01*
X160606934Y-89711235D01*
X160618485Y-89689625D01*
X160625598Y-89666176D01*
X160628000Y-89641790D01*
X160628000Y-89280900D01*
X163730000Y-89280900D01*
X163730000Y-89641790D01*
X163732402Y-89666176D01*
X163739515Y-89689625D01*
X163751066Y-89711236D01*
X163766611Y-89730178D01*
X163785553Y-89745723D01*
X163807164Y-89757274D01*
X163830613Y-89764387D01*
X163854999Y-89766789D01*
X163879385Y-89764387D01*
X163902834Y-89757274D01*
X163924445Y-89745723D01*
X163943387Y-89730178D01*
X163958932Y-89711236D01*
X163970483Y-89689625D01*
X163991317Y-89639326D01*
X164019625Y-89596960D01*
X164076239Y-89512231D01*
X164184331Y-89404139D01*
X164311423Y-89319219D01*
X164311426Y-89319217D01*
X164452649Y-89260721D01*
X164452650Y-89260721D01*
X164452652Y-89260720D01*
X164602569Y-89230900D01*
X164755431Y-89230900D01*
X164905348Y-89260720D01*
X164905350Y-89260721D01*
X164905351Y-89260721D01*
X165046574Y-89319217D01*
X165046577Y-89319219D01*
X165173669Y-89404139D01*
X165281761Y-89512231D01*
X165347957Y-89611300D01*
X165366683Y-89639326D01*
X165419479Y-89766789D01*
X165425180Y-89780552D01*
X165455000Y-89930469D01*
X165455000Y-90083331D01*
X165426002Y-90229116D01*
X165425179Y-90233251D01*
X165366683Y-90374474D01*
X165366682Y-90374475D01*
X165366681Y-90374477D01*
X165281761Y-90501569D01*
X165173669Y-90609661D01*
X165056755Y-90687780D01*
X165046574Y-90694583D01*
X164905351Y-90753079D01*
X164905350Y-90753079D01*
X164905348Y-90753080D01*
X164755431Y-90782900D01*
X164602569Y-90782900D01*
X164452652Y-90753080D01*
X164452650Y-90753079D01*
X164452649Y-90753079D01*
X164311426Y-90694583D01*
X164301245Y-90687780D01*
X164184331Y-90609661D01*
X164076239Y-90501569D01*
X163991318Y-90374475D01*
X163991317Y-90374474D01*
X163970481Y-90324172D01*
X163958932Y-90302564D01*
X163943386Y-90283622D01*
X163924444Y-90268077D01*
X163902834Y-90256526D01*
X163879385Y-90249413D01*
X163854999Y-90247011D01*
X163830613Y-90249413D01*
X163807164Y-90256526D01*
X163785553Y-90268077D01*
X163766611Y-90283623D01*
X163751066Y-90302565D01*
X163739515Y-90324175D01*
X163732402Y-90347624D01*
X163730000Y-90372010D01*
X163730000Y-90732900D01*
X160628000Y-90732900D01*
X160628000Y-90372010D01*
X160625598Y-90347624D01*
X160618485Y-90324175D01*
X160606934Y-90302564D01*
X160591389Y-90283622D01*
X160572447Y-90268077D01*
X160550836Y-90256526D01*
X160527387Y-90249413D01*
X160503001Y-90247011D01*
X160478615Y-90249413D01*
X160455166Y-90256526D01*
X160433555Y-90268077D01*
X160414613Y-90283622D01*
X160399068Y-90302564D01*
X160387519Y-90324172D01*
X160366683Y-90374474D01*
X160366682Y-90374475D01*
X160281761Y-90501569D01*
X160173669Y-90609661D01*
X160056755Y-90687780D01*
X160046574Y-90694583D01*
X159905351Y-90753079D01*
X159905350Y-90753079D01*
X159905348Y-90753080D01*
X159755431Y-90782900D01*
X159602569Y-90782900D01*
X159452652Y-90753080D01*
X159452650Y-90753079D01*
X159452649Y-90753079D01*
X159311426Y-90694583D01*
X159301245Y-90687780D01*
X159184331Y-90609661D01*
X159076239Y-90501569D01*
X158991319Y-90374477D01*
X158991318Y-90374475D01*
X158991317Y-90374474D01*
X158932821Y-90233251D01*
X158931999Y-90229116D01*
X158903000Y-90083331D01*
X158903000Y-89930469D01*
X158932820Y-89780552D01*
X158938521Y-89766789D01*
X158991317Y-89639326D01*
X159010043Y-89611300D01*
X159076239Y-89512231D01*
X159184331Y-89404139D01*
X159311423Y-89319219D01*
X159311426Y-89319217D01*
X159452649Y-89260721D01*
X159452650Y-89260721D01*
X159452652Y-89260720D01*
X159602569Y-89230900D01*
X159755431Y-89230900D01*
X159905348Y-89260720D01*
X159905348Y-89260720D01*
G37*
G36*
X147866200Y-89611300D02*
G01*
X146164200Y-89611300D01*
X146164200Y-87909300D01*
X147866200Y-87909300D01*
X147866200Y-89611300D01*
X147866200Y-89611300D01*
G37*
G36*
X165704862Y-86305298D02*
G01*
X165717114Y-86305900D01*
X165790406Y-86305900D01*
X165807164Y-86314857D01*
X165818707Y-86318987D01*
X165929331Y-86352545D01*
X165929334Y-86352546D01*
X166042424Y-86412994D01*
X166141554Y-86494347D01*
X166222906Y-86593475D01*
X166283354Y-86706564D01*
X166293040Y-86738496D01*
X166320580Y-86829282D01*
X166330000Y-86924927D01*
X166330000Y-87688873D01*
X166320580Y-87784518D01*
X166293040Y-87875304D01*
X166283354Y-87907236D01*
X166222906Y-88020325D01*
X166141554Y-88119454D01*
X166042425Y-88200806D01*
X165929336Y-88261254D01*
X165903693Y-88269032D01*
X165818708Y-88294813D01*
X165796075Y-88304187D01*
X165790518Y-88307900D01*
X165717114Y-88307900D01*
X165704862Y-88308502D01*
X165679000Y-88311049D01*
X165653138Y-88308502D01*
X165640886Y-88307900D01*
X164428000Y-88307900D01*
X164428000Y-86305900D01*
X165640886Y-86305900D01*
X165653138Y-86305298D01*
X165679000Y-86302751D01*
X165704862Y-86305298D01*
X165704862Y-86305298D01*
G37*
G36*
X158704862Y-86305298D02*
G01*
X158717114Y-86305900D01*
X159930000Y-86305900D01*
X159930000Y-88307900D01*
X158717114Y-88307900D01*
X158704862Y-88308502D01*
X158679000Y-88311049D01*
X158653138Y-88308502D01*
X158640886Y-88307900D01*
X158567594Y-88307900D01*
X158550836Y-88298943D01*
X158539299Y-88294815D01*
X158454307Y-88269032D01*
X158428664Y-88261254D01*
X158315575Y-88200806D01*
X158216447Y-88119454D01*
X158135094Y-88020324D01*
X158074646Y-87907235D01*
X158064960Y-87875303D01*
X158037420Y-87784517D01*
X158028000Y-87688872D01*
X158028000Y-86924927D01*
X158037420Y-86829282D01*
X158074645Y-86706568D01*
X158135096Y-86593474D01*
X158216447Y-86494346D01*
X158315576Y-86412994D01*
X158428666Y-86352546D01*
X158428669Y-86352545D01*
X158539290Y-86318988D01*
X158561925Y-86309612D01*
X158567481Y-86305900D01*
X158640886Y-86305900D01*
X158653138Y-86305298D01*
X158679000Y-86302751D01*
X158704862Y-86305298D01*
X158704862Y-86305298D01*
G37*
G36*
X161980000Y-88307900D02*
G01*
X160378000Y-88307900D01*
X160378000Y-86305900D01*
X161980000Y-86305900D01*
X161980000Y-88307900D01*
X161980000Y-88307900D01*
G37*
G36*
X163980000Y-88307900D02*
G01*
X162378000Y-88307900D01*
X162378000Y-86305900D01*
X163980000Y-86305900D01*
X163980000Y-88307900D01*
X163980000Y-88307900D01*
G37*
G36*
X145941417Y-80206965D02*
G01*
X146212195Y-80260825D01*
X146503558Y-80381512D01*
X146765778Y-80556722D01*
X146988778Y-80779722D01*
X147163988Y-81041942D01*
X147284675Y-81333305D01*
X147346200Y-81642615D01*
X147346200Y-81957985D01*
X147284675Y-82267295D01*
X147163988Y-82558658D01*
X146988778Y-82820878D01*
X146765778Y-83043878D01*
X146503558Y-83219088D01*
X146212195Y-83339775D01*
X145941417Y-83393635D01*
X145902886Y-83401300D01*
X145587514Y-83401300D01*
X145548983Y-83393635D01*
X145278205Y-83339775D01*
X144986842Y-83219088D01*
X144724622Y-83043878D01*
X144501622Y-82820878D01*
X144326412Y-82558658D01*
X144205725Y-82267295D01*
X144144200Y-81957985D01*
X144144200Y-81642615D01*
X144205725Y-81333305D01*
X144326412Y-81041942D01*
X144501622Y-80779722D01*
X144724622Y-80556722D01*
X144986842Y-80381512D01*
X145278205Y-80260825D01*
X145548983Y-80206965D01*
X145587514Y-80199300D01*
X145902886Y-80199300D01*
X145941417Y-80206965D01*
X145941417Y-80206965D01*
G37*
M02*
