G04 #@! TF.GenerationSoftware,KiCad,Pcbnew,(5.1.4-0-10_14)*
G04 #@! TF.CreationDate,2020-06-27T12:48:12+01:00*
G04 #@! TF.ProjectId,Informer207,496e666f-726d-4657-9232-30372e6b6963,rev?*
G04 #@! TF.SameCoordinates,Original*
G04 #@! TF.FileFunction,Legend,Top*
G04 #@! TF.FilePolarity,Positive*
%FSLAX46Y46*%
G04 Gerber Fmt 4.6, Leading zero omitted, Abs format (unit mm)*
G04 Created by KiCad (PCBNEW (5.1.4-0-10_14)) date 2020-06-27 12:48:12*
%MOMM*%
%LPD*%
G04 APERTURE LIST*
%ADD10C,0.150000*%
%ADD11C,0.120000*%
G04 APERTURE END LIST*
D10*
X136612380Y-110029047D02*
X137326666Y-110029047D01*
X137469523Y-110076666D01*
X137564761Y-110171904D01*
X137612380Y-110314761D01*
X137612380Y-110410000D01*
X137612380Y-109076666D02*
X137612380Y-109552857D01*
X136612380Y-109552857D01*
X137517142Y-108171904D02*
X137564761Y-108219523D01*
X137612380Y-108362380D01*
X137612380Y-108457619D01*
X137564761Y-108600476D01*
X137469523Y-108695714D01*
X137374285Y-108743333D01*
X137183809Y-108790952D01*
X137040952Y-108790952D01*
X136850476Y-108743333D01*
X136755238Y-108695714D01*
X136660000Y-108600476D01*
X136612380Y-108457619D01*
X136612380Y-108362380D01*
X136660000Y-108219523D01*
X136707619Y-108171904D01*
X136612380Y-107457619D02*
X137326666Y-107457619D01*
X137469523Y-107505238D01*
X137564761Y-107600476D01*
X137612380Y-107743333D01*
X137612380Y-107838571D01*
X137612380Y-106505238D02*
X137612380Y-106981428D01*
X136612380Y-106981428D01*
X137517142Y-105600476D02*
X137564761Y-105648095D01*
X137612380Y-105790952D01*
X137612380Y-105886190D01*
X137564761Y-106029047D01*
X137469523Y-106124285D01*
X137374285Y-106171904D01*
X137183809Y-106219523D01*
X137040952Y-106219523D01*
X136850476Y-106171904D01*
X136755238Y-106124285D01*
X136660000Y-106029047D01*
X136612380Y-105886190D01*
X136612380Y-105790952D01*
X136660000Y-105648095D01*
X136707619Y-105600476D01*
X136612380Y-104886190D02*
X137326666Y-104886190D01*
X137469523Y-104933809D01*
X137564761Y-105029047D01*
X137612380Y-105171904D01*
X137612380Y-105267142D01*
X137612380Y-103933809D02*
X137612380Y-104410000D01*
X136612380Y-104410000D01*
X137517142Y-103029047D02*
X137564761Y-103076666D01*
X137612380Y-103219523D01*
X137612380Y-103314761D01*
X137564761Y-103457619D01*
X137469523Y-103552857D01*
X137374285Y-103600476D01*
X137183809Y-103648095D01*
X137040952Y-103648095D01*
X136850476Y-103600476D01*
X136755238Y-103552857D01*
X136660000Y-103457619D01*
X136612380Y-103314761D01*
X136612380Y-103219523D01*
X136660000Y-103076666D01*
X136707619Y-103029047D01*
X136612380Y-102314761D02*
X137326666Y-102314761D01*
X137469523Y-102362380D01*
X137564761Y-102457619D01*
X137612380Y-102600476D01*
X137612380Y-102695714D01*
X137612380Y-101362380D02*
X137612380Y-101838571D01*
X136612380Y-101838571D01*
X137517142Y-100457619D02*
X137564761Y-100505238D01*
X137612380Y-100648095D01*
X137612380Y-100743333D01*
X137564761Y-100886190D01*
X137469523Y-100981428D01*
X137374285Y-101029047D01*
X137183809Y-101076666D01*
X137040952Y-101076666D01*
X136850476Y-101029047D01*
X136755238Y-100981428D01*
X136660000Y-100886190D01*
X136612380Y-100743333D01*
X136612380Y-100648095D01*
X136660000Y-100505238D01*
X136707619Y-100457619D01*
D11*
X138125200Y-78854300D02*
X138125200Y-131940300D01*
X148666200Y-124955300D02*
X134061200Y-124955300D01*
X148666200Y-85839300D02*
X134061200Y-85839300D01*
X134061200Y-78854300D02*
X148666200Y-78854300D01*
X134061200Y-131940300D02*
X134061200Y-78854300D01*
X148666200Y-131940300D02*
X134061200Y-131940300D01*
X148666200Y-78854300D02*
X148666200Y-131940300D01*
X147015200Y-87565975D02*
X146765200Y-87132962D01*
X147265200Y-87132962D02*
X147015200Y-87565975D01*
X146765200Y-87132962D02*
X147265200Y-87132962D01*
X167417336Y-94839200D02*
X168621464Y-94839200D01*
X167417336Y-93019200D02*
X168621464Y-93019200D01*
X162454000Y-118929564D02*
X162454000Y-117725436D01*
X160634000Y-118929564D02*
X160634000Y-117725436D01*
X154834000Y-117725436D02*
X154834000Y-118929564D01*
X153014000Y-117725436D02*
X153014000Y-118929564D01*
X150474000Y-118929564D02*
X150474000Y-117725436D01*
X152294000Y-118929564D02*
X152294000Y-117725436D01*
X159914000Y-118929564D02*
X159914000Y-117725436D01*
X158094000Y-118929564D02*
X158094000Y-117725436D01*
X155554000Y-118929564D02*
X155554000Y-117725436D01*
X157374000Y-118929564D02*
X157374000Y-117725436D01*
X163174000Y-117725436D02*
X163174000Y-118929564D01*
X164994000Y-117725436D02*
X164994000Y-118929564D01*
X151653300Y-96086800D02*
X150873300Y-96086800D01*
X150873300Y-96086800D02*
X150873300Y-97086800D01*
X151653300Y-114326800D02*
X150873300Y-114326800D01*
X150873300Y-114326800D02*
X150873300Y-113326800D01*
X176618300Y-96086800D02*
X176618300Y-114326800D01*
X176618300Y-114326800D02*
X170198300Y-114326800D01*
X176618300Y-96086800D02*
X170198300Y-96086800D01*
X170198300Y-96086800D02*
X170198300Y-95706800D01*
X150425100Y-92562200D02*
X151685100Y-92562200D01*
X157245100Y-92562200D02*
X155985100Y-92562200D01*
X150425100Y-88802200D02*
X150425100Y-92562200D01*
X157245100Y-86552200D02*
X157245100Y-92562200D01*
X158490500Y-94902600D02*
X165425500Y-94902600D01*
X165425500Y-94902600D02*
X165425500Y-91482600D01*
X165425500Y-91482600D02*
X158490500Y-91482600D01*
D10*
X140676380Y-105997333D02*
X141390666Y-105997333D01*
X141533523Y-106044952D01*
X141628761Y-106140190D01*
X141676380Y-106283047D01*
X141676380Y-106378285D01*
X140676380Y-105616380D02*
X140676380Y-104997333D01*
X141057333Y-105330666D01*
X141057333Y-105187809D01*
X141104952Y-105092571D01*
X141152571Y-105044952D01*
X141247809Y-104997333D01*
X141485904Y-104997333D01*
X141581142Y-105044952D01*
X141628761Y-105092571D01*
X141676380Y-105187809D01*
X141676380Y-105473523D01*
X141628761Y-105568761D01*
X141581142Y-105616380D01*
X167852733Y-94337142D02*
X167805114Y-94384761D01*
X167662257Y-94432380D01*
X167567019Y-94432380D01*
X167424161Y-94384761D01*
X167328923Y-94289523D01*
X167281304Y-94194285D01*
X167233685Y-94003809D01*
X167233685Y-93860952D01*
X167281304Y-93670476D01*
X167328923Y-93575238D01*
X167424161Y-93480000D01*
X167567019Y-93432380D01*
X167662257Y-93432380D01*
X167805114Y-93480000D01*
X167852733Y-93527619D01*
X168186066Y-93432380D02*
X168805114Y-93432380D01*
X168471780Y-93813333D01*
X168614638Y-93813333D01*
X168709876Y-93860952D01*
X168757495Y-93908571D01*
X168805114Y-94003809D01*
X168805114Y-94241904D01*
X168757495Y-94337142D01*
X168709876Y-94384761D01*
X168614638Y-94432380D01*
X168328923Y-94432380D01*
X168233685Y-94384761D01*
X168186066Y-94337142D01*
X161996380Y-118472976D02*
X161520190Y-118806309D01*
X161996380Y-119044404D02*
X160996380Y-119044404D01*
X160996380Y-118663452D01*
X161044000Y-118568214D01*
X161091619Y-118520595D01*
X161186857Y-118472976D01*
X161329714Y-118472976D01*
X161424952Y-118520595D01*
X161472571Y-118568214D01*
X161520190Y-118663452D01*
X161520190Y-119044404D01*
X161996380Y-117520595D02*
X161996380Y-118092023D01*
X161996380Y-117806309D02*
X160996380Y-117806309D01*
X161139238Y-117901547D01*
X161234476Y-117996785D01*
X161282095Y-118092023D01*
X156916380Y-118494166D02*
X156440190Y-118827500D01*
X156916380Y-119065595D02*
X155916380Y-119065595D01*
X155916380Y-118684642D01*
X155964000Y-118589404D01*
X156011619Y-118541785D01*
X156106857Y-118494166D01*
X156249714Y-118494166D01*
X156344952Y-118541785D01*
X156392571Y-118589404D01*
X156440190Y-118684642D01*
X156440190Y-119065595D01*
X156011619Y-118113214D02*
X155964000Y-118065595D01*
X155916380Y-117970357D01*
X155916380Y-117732261D01*
X155964000Y-117637023D01*
X156011619Y-117589404D01*
X156106857Y-117541785D01*
X156202095Y-117541785D01*
X156344952Y-117589404D01*
X156916380Y-118160833D01*
X156916380Y-117541785D01*
X151836380Y-118530666D02*
X151360190Y-118864000D01*
X151836380Y-119102095D02*
X150836380Y-119102095D01*
X150836380Y-118721142D01*
X150884000Y-118625904D01*
X150931619Y-118578285D01*
X151026857Y-118530666D01*
X151169714Y-118530666D01*
X151264952Y-118578285D01*
X151312571Y-118625904D01*
X151360190Y-118721142D01*
X151360190Y-119102095D01*
X150836380Y-118197333D02*
X150836380Y-117578285D01*
X151217333Y-117911619D01*
X151217333Y-117768761D01*
X151264952Y-117673523D01*
X151312571Y-117625904D01*
X151407809Y-117578285D01*
X151645904Y-117578285D01*
X151741142Y-117625904D01*
X151788761Y-117673523D01*
X151836380Y-117768761D01*
X151836380Y-118054476D01*
X151788761Y-118149714D01*
X151741142Y-118197333D01*
X159456380Y-118472976D02*
X158980190Y-118806309D01*
X159456380Y-119044404D02*
X158456380Y-119044404D01*
X158456380Y-118663452D01*
X158504000Y-118568214D01*
X158551619Y-118520595D01*
X158646857Y-118472976D01*
X158789714Y-118472976D01*
X158884952Y-118520595D01*
X158932571Y-118568214D01*
X158980190Y-118663452D01*
X158980190Y-119044404D01*
X158789714Y-117615833D02*
X159456380Y-117615833D01*
X158408761Y-117853928D02*
X159123047Y-118092023D01*
X159123047Y-117472976D01*
X154376380Y-118494166D02*
X153900190Y-118827500D01*
X154376380Y-119065595D02*
X153376380Y-119065595D01*
X153376380Y-118684642D01*
X153424000Y-118589404D01*
X153471619Y-118541785D01*
X153566857Y-118494166D01*
X153709714Y-118494166D01*
X153804952Y-118541785D01*
X153852571Y-118589404D01*
X153900190Y-118684642D01*
X153900190Y-119065595D01*
X153376380Y-117589404D02*
X153376380Y-118065595D01*
X153852571Y-118113214D01*
X153804952Y-118065595D01*
X153757333Y-117970357D01*
X153757333Y-117732261D01*
X153804952Y-117637023D01*
X153852571Y-117589404D01*
X153947809Y-117541785D01*
X154185904Y-117541785D01*
X154281142Y-117589404D01*
X154328761Y-117637023D01*
X154376380Y-117732261D01*
X154376380Y-117970357D01*
X154328761Y-118065595D01*
X154281142Y-118113214D01*
X164523680Y-118472976D02*
X164047490Y-118806309D01*
X164523680Y-119044404D02*
X163523680Y-119044404D01*
X163523680Y-118663452D01*
X163571300Y-118568214D01*
X163618919Y-118520595D01*
X163714157Y-118472976D01*
X163857014Y-118472976D01*
X163952252Y-118520595D01*
X163999871Y-118568214D01*
X164047490Y-118663452D01*
X164047490Y-119044404D01*
X163523680Y-117615833D02*
X163523680Y-117806309D01*
X163571300Y-117901547D01*
X163618919Y-117949166D01*
X163761776Y-118044404D01*
X163952252Y-118092023D01*
X164333204Y-118092023D01*
X164428442Y-118044404D01*
X164476061Y-117996785D01*
X164523680Y-117901547D01*
X164523680Y-117711071D01*
X164476061Y-117615833D01*
X164428442Y-117568214D01*
X164333204Y-117520595D01*
X164095109Y-117520595D01*
X163999871Y-117568214D01*
X163952252Y-117615833D01*
X163904633Y-117711071D01*
X163904633Y-117901547D01*
X163952252Y-117996785D01*
X163999871Y-118044404D01*
X164095109Y-118092023D01*
X156972095Y-104608380D02*
X156972095Y-105417904D01*
X157019714Y-105513142D01*
X157067333Y-105560761D01*
X157162571Y-105608380D01*
X157353047Y-105608380D01*
X157448285Y-105560761D01*
X157495904Y-105513142D01*
X157543523Y-105417904D01*
X157543523Y-104608380D01*
X158543523Y-105608380D02*
X157972095Y-105608380D01*
X158257809Y-105608380D02*
X158257809Y-104608380D01*
X158162571Y-104751238D01*
X158067333Y-104846476D01*
X157972095Y-104894095D01*
X153162095Y-90104580D02*
X153162095Y-90914104D01*
X153209714Y-91009342D01*
X153257333Y-91056961D01*
X153352571Y-91104580D01*
X153543047Y-91104580D01*
X153638285Y-91056961D01*
X153685904Y-91009342D01*
X153733523Y-90914104D01*
X153733523Y-90104580D01*
X154114476Y-90104580D02*
X154733523Y-90104580D01*
X154400190Y-90485533D01*
X154543047Y-90485533D01*
X154638285Y-90533152D01*
X154685904Y-90580771D01*
X154733523Y-90676009D01*
X154733523Y-90914104D01*
X154685904Y-91009342D01*
X154638285Y-91056961D01*
X154543047Y-91104580D01*
X154257333Y-91104580D01*
X154162095Y-91056961D01*
X154114476Y-91009342D01*
X161323833Y-93575142D02*
X161276214Y-93622761D01*
X161133357Y-93670380D01*
X161038119Y-93670380D01*
X160895261Y-93622761D01*
X160800023Y-93527523D01*
X160752404Y-93432285D01*
X160704785Y-93241809D01*
X160704785Y-93098952D01*
X160752404Y-92908476D01*
X160800023Y-92813238D01*
X160895261Y-92718000D01*
X161038119Y-92670380D01*
X161133357Y-92670380D01*
X161276214Y-92718000D01*
X161323833Y-92765619D01*
X161657166Y-92670380D02*
X162323833Y-92670380D01*
X161895261Y-93670380D01*
M02*
