M48
INCH,TZ
T1C0.0157
T2C0.0236
T3C0.0335
T4C0.0394
%
G90
G05
T1
X59660Y-35140
X60100Y-46600
X60300Y-43800
X61000Y-46600
X62100Y-46585
X62600Y-46600
X63050Y-42750
X63550Y-42750
X63750Y-39700
X63750Y-46550
X63863Y-36488
X64545Y-39755
X64600Y-46600
X65330Y-41480
X65550Y-38800
X65950Y-43800
X66050Y-39100
T3
X62866Y-35436
X64834Y-35436
T4
X56880Y-35490
X56880Y-36581
X56880Y-37671
X56880Y-38762
X56880Y-39852
X56880Y-40943
X56880Y-42034
X56880Y-43124
X56880Y-44215
X56880Y-45305
X57880Y-34945
X57880Y-36036
X57880Y-37126
X57880Y-38217
X57880Y-39307
X57880Y-40398
X57880Y-42579
X57880Y-43669
X57880Y-44760
X57880Y-45851
X57880Y-46941
X60100Y-48550
X61100Y-48550
X62100Y-48550
X63100Y-48550
X64100Y-48550
X65100Y-48550
X56880Y-46396
X56880Y-47486
X57880Y-41488
X57880Y-48032
T2
G00X62472Y-34511
M15
G01X62472Y-34235
M16
G05
G00X65228Y-34235
M15
G01X65228Y-34511
M16
G05
T0
M30
